<?xml version="1.0" encoding="UTF-8" standalone="no"?><svg xmlns="http://www.w3.org/2000/svg" xmlns:xlink="http://www.w3.org/1999/xlink" contentScriptType="application/ecmascript" contentStyleType="text/css" height="552px" preserveAspectRatio="none" style="width:752px;height:552px;" version="1.1" viewBox="0 0 752 552" width="752px" zoomAndPan="magnify"><defs><filter height="300%" id="f1cvax87pxhtv0" width="300%" x="-1" y="-1"><feGaussianBlur result="blurOut" stdDeviation="2.0"/><feColorMatrix in="blurOut" result="blurOut2" type="matrix" values="0 0 0 0 0 0 0 0 0 0 0 0 0 0 0 0 0 0 .4 0"/><feOffset dx="4.0" dy="4.0" in="blurOut2" result="blurOut3"/><feBlend in="SourceGraphic" in2="blurOut3" mode="normal"/></filter></defs><g><ellipse cx="327.99" cy="29" fill="#000000" filter="url(#f1cvax87pxhtv0)" rx="10" ry="10" style="stroke: none; stroke-width: 1.0;"/><rect fill="#FEFECE" filter="url(#f1cvax87pxhtv0)" height="40" rx="12.5" ry="12.5" style="stroke: #A80036; stroke-width: 1.5;" width="53" x="373.49" y="9"/><text fill="#000000" font-family="sans-serif" font-size="14" lengthAdjust="spacingAndGlyphs" textLength="43" x="378.49" y="33.8467">Ready</text><rect fill="#FEFECE" filter="url(#f1cvax87pxhtv0)" height="42.5938" rx="12.5" ry="12.5" style="stroke: #A80036; stroke-width: 1.5;" width="86" x="33.99" y="142"/><text fill="#000000" font-family="sans-serif" font-size="14" lengthAdjust="spacingAndGlyphs" textLength="35" x="59.49" y="159.9951">Input</text><text fill="#000000" font-family="sans-serif" font-size="14" lengthAdjust="spacingAndGlyphs" textLength="76" x="38.99" y="176.292">Registered</text><rect fill="#FEFECE" filter="url(#f1cvax87pxhtv0)" height="42.5938" rx="12.5" ry="12.5" style="stroke: #A80036; stroke-width: 1.5;" width="90" x="126.99" y="401"/><text fill="#000000" font-family="sans-serif" font-size="14" lengthAdjust="spacingAndGlyphs" textLength="80" x="131.99" y="418.9951">Connection</text><text fill="#000000" font-family="sans-serif" font-size="14" lengthAdjust="spacingAndGlyphs" textLength="71" x="136.49" y="435.292">Confirmed</text><polygon fill="#FEFECE" filter="url(#f1cvax87pxhtv0)" points="154.99,281,166.99,293,154.99,305,142.99,293,154.99,281" style="stroke: #A80036; stroke-width: 1.5;"/><ellipse cx="369.99" cy="531" fill="none" filter="url(#f1cvax87pxhtv0)" rx="10" ry="10" style="stroke: #000000; stroke-width: 1.0;"/><ellipse cx="370.49" cy="531.5" fill="#000000" rx="6" ry="6" style="stroke: none; stroke-width: 1.0;"/><!--link *start to ready--><path d="M338.12,29 C348.13,29 358.15,29 368.17,29 " fill="none" id="*start-ready" style="stroke: #A80036; stroke-width: 1.0;"/><polygon fill="#A80036" points="373.41,29,364.41,25,368.41,29,364.41,33,373.41,29" style="stroke: #A80036; stroke-width: 1.0;"/><!--link ready to ready--><path d="M431.5,17.01 C447.33,15.31 461.49,19.3 461.49,29 C461.49,39.7 444.25,43.46 426.54,40.28 " fill="none" id="ready-ready" style="stroke: #A80036; stroke-width: 1.0;"/><polygon fill="#A80036" points="426.54,17.72,436.0185,20.3955,431.4889,17.0069,434.8775,12.4773,426.54,17.72" style="stroke: #A80036; stroke-width: 1.0;"/><text fill="#000000" font-family="sans-serif" font-size="13" lengthAdjust="spacingAndGlyphs" textLength="21" x="484.49" y="26.0669">get</text><text fill="#000000" font-family="sans-serif" font-size="13" lengthAdjust="spacingAndGlyphs" textLength="55" x="467.49" y="41.1997">statuses</text><!--link ready to registered_input--><path d="M373.45,43.46 C367.79,45.93 361.78,48.27 355.99,50 C272.82,74.86 240.8,41.51 162.99,80 C135.75,93.48 111.46,118.65 95.7,137.66 " fill="none" id="ready-registered_input" style="stroke: #A80036; stroke-width: 1.0;"/><polygon fill="#A80036" points="92.27,141.86,101.0578,137.4132,95.43,137.9851,94.858,132.3573,92.27,141.86" style="stroke: #A80036; stroke-width: 1.0;"/><text fill="#000000" font-family="sans-serif" font-size="13" lengthAdjust="spacingAndGlyphs" textLength="49" x="163.99" y="93.0669">register</text><text fill="#000000" font-family="sans-serif" font-size="13" lengthAdjust="spacingAndGlyphs" textLength="32" x="172.49" y="108.1997">input</text><!--link ready to c1--><path d="M376.42,49.1 C365.06,58.36 351.26,69.69 338.99,80 C306.66,107.16 293.13,108.83 266.99,142 C234.51,183.22 246.52,206.63 212.99,247 C199.51,263.24 179.19,277.31 166.53,285.21 " fill="none" id="ready-c1" style="stroke: #A80036; stroke-width: 1.0;"/><polygon fill="#A80036" points="162.23,287.84,171.9976,286.5773,166.501,285.2403,167.838,279.7437,162.23,287.84" style="stroke: #A80036; stroke-width: 1.0;"/><text fill="#000000" font-family="sans-serif" font-size="13" lengthAdjust="spacingAndGlyphs" textLength="48" x="278.99" y="160.5669">confirm</text><text fill="#000000" font-family="sans-serif" font-size="13" lengthAdjust="spacingAndGlyphs" textLength="70" x="267.99" y="175.6997">connection</text><!--link registered_input to c1--><path d="M48.4,185.16 C28.6,202.04 8.25,226.4 22.99,247 C49.79,284.44 109.61,291.09 138.61,292.03 " fill="none" id="registered_input-c1" style="stroke: #A80036; stroke-width: 1.0;"/><polygon fill="#A80036" points="143.65,292.15,134.7438,287.9454,138.6513,292.0357,134.5609,295.9433,143.65,292.15" style="stroke: #A80036; stroke-width: 1.0;"/><text fill="#000000" font-family="sans-serif" font-size="13" lengthAdjust="spacingAndGlyphs" textLength="48" x="34.99" y="228.0669">confirm</text><text fill="#000000" font-family="sans-serif" font-size="13" lengthAdjust="spacingAndGlyphs" textLength="70" x="23.99" y="243.1997">connection</text><!--link c1 to registered_input--><path d="M150.7,284.98 C139.81,267.19 110.73,219.65 92.52,189.89 " fill="none" id="c1-registered_input" style="stroke: #A80036; stroke-width: 1.0;"/><polygon fill="#A80036" points="89.7,185.27,91.0011,195.0325,92.3165,189.5307,97.8183,190.8461,89.7,185.27" style="stroke: #A80036; stroke-width: 1.0;"/><text fill="#000000" font-family="sans-serif" font-size="13" lengthAdjust="spacingAndGlyphs" textLength="54" x="138.49" y="228.0669">not_final</text><text fill="#000000" font-family="sans-serif" font-size="13" lengthAdjust="spacingAndGlyphs" textLength="77" x="126.99" y="243.1997">(zero creds)</text><!--link c1 to confirmed_input--><path d="M156.33,304 C158.94,323.57 164.79,367.44 168.55,395.69 " fill="none" id="c1-confirmed_input" style="stroke: #A80036; stroke-width: 1.0;"/><polygon fill="#A80036" points="169.23,400.78,172.0126,391.3324,168.5729,395.8234,164.082,392.3837,169.23,400.78" style="stroke: #A80036; stroke-width: 1.0;"/><text fill="#000000" font-family="sans-serif" font-size="13" lengthAdjust="spacingAndGlyphs" textLength="26" x="189.49" y="352.0669">final</text><text fill="#000000" font-family="sans-serif" font-size="13" lengthAdjust="spacingAndGlyphs" textLength="73" x="165.99" y="367.1997">(real creds)</text><!--link ready to *end--><path d="M392.7,49.15 C377.52,90.17 342.93,189.88 330.99,277 C329.06,291.09 329.75,294.83 330.99,309 C337.9,387.84 358.4,480.71 366.57,515.7 " fill="none" id="ready-*end" style="stroke: #A80036; stroke-width: 1.0;"/><polygon fill="#A80036" points="367.78,520.81,369.6123,511.1331,366.6348,515.9429,361.825,512.9654,367.78,520.81" style="stroke: #A80036; stroke-width: 1.0;"/><text fill="#000000" font-family="sans-serif" font-size="13" lengthAdjust="spacingAndGlyphs" textLength="60" x="331.99" y="297.5669">signature</text><!--link ready to *end--><path d="M408.71,49.31 C419.36,74.72 435.99,121.02 435.99,162.5 C435.99,162.5 435.99,162.5 435.99,423.5 C435.99,464.55 400.12,502.96 381.27,520.31 " fill="none" id="ready-*end" style="stroke: #A80036; stroke-width: 1.0;"/><polygon fill="#A80036" points="377.31,523.87,386.669,520.8026,381.0194,520.5173,381.3047,514.8676,377.31,523.87" style="stroke: #A80036; stroke-width: 1.0;"/><text fill="#000000" font-family="sans-serif" font-size="13" lengthAdjust="spacingAndGlyphs" textLength="65" x="436.99" y="290.0669">deregister</text><text fill="#000000" font-family="sans-serif" font-size="13" lengthAdjust="spacingAndGlyphs" textLength="32" x="453.49" y="305.1997">input</text><!--link ready to *end--><path d="M426.65,36.97 C475.17,51.45 572.99,89.67 572.99,162.5 C572.99,162.5 572.99,162.5 572.99,423.5 C572.99,508.38 432.09,525.75 385.07,529.18 " fill="none" id="ready-*end" style="stroke: #A80036; stroke-width: 1.0;"/><polygon fill="#A80036" points="380.06,529.52,389.3132,532.8931,385.0482,529.177,388.7644,524.912,380.06,529.52" style="stroke: #A80036; stroke-width: 1.0;"/><text fill="#000000" font-family="sans-serif" font-size="13" lengthAdjust="spacingAndGlyphs" textLength="49" x="573.99" y="290.0669">register</text><text fill="#000000" font-family="sans-serif" font-size="13" lengthAdjust="spacingAndGlyphs" textLength="42" x="577.49" y="305.1997">output</text><!--link ready to *end--><path d="M426.6,29.94 C498.97,31.29 693.99,45.77 693.99,162.5 C693.99,162.5 693.99,162.5 693.99,423.5 C693.99,489.31 449.7,521.13 385.37,528.37 " fill="none" id="ready-*end" style="stroke: #A80036; stroke-width: 1.0;"/><polygon fill="#A80036" points="380.04,528.96,389.4295,531.9328,385.0089,528.4031,388.5385,523.9825,380.04,528.96" style="stroke: #A80036; stroke-width: 1.0;"/><text fill="#000000" font-family="sans-serif" font-size="13" lengthAdjust="spacingAndGlyphs" textLength="46" x="694.99" y="290.0669">reissue</text><text fill="#000000" font-family="sans-serif" font-size="13" lengthAdjust="spacingAndGlyphs" textLength="35" x="700.49" y="305.1997">creds</text><!--link confirmed_input to *end--><path d="M180.48,444.23 C187.73,459.39 199.61,479.29 215.99,491 C259.51,522.1 325.47,528.46 354.9,529.72 " fill="none" id="confirmed_input-*end" style="stroke: #A80036; stroke-width: 1.0;"/><polygon fill="#A80036" points="359.95,529.9,351.1047,525.5687,354.9534,529.7144,350.8077,533.5632,359.95,529.9" style="stroke: #A80036; stroke-width: 1.0;"/><text fill="#000000" font-family="sans-serif" font-size="13" lengthAdjust="spacingAndGlyphs" textLength="60" x="216.99" y="487.0669">signature</text><!--link registered_input to *end--><path d="M37.45,185.1 C26.53,192.9 16.04,202.88 9.99,215 C3.65,227.73 6.71,233.16 9.99,247 C32.6,342.35 41.82,372.66 108.99,444 C177.84,517.11 309.93,528.14 354.71,529.74 " fill="none" id="registered_input-*end" style="stroke: #A80036; stroke-width: 1.0;"/><polygon fill="#A80036" points="359.97,529.9,351.0879,525.6446,354.972,529.7572,350.8594,533.6413,359.97,529.9" style="stroke: #A80036; stroke-width: 1.0;"/><text fill="#000000" font-family="sans-serif" font-size="13" lengthAdjust="spacingAndGlyphs" textLength="65" x="51.99" y="352.0669">deregister</text><text fill="#000000" font-family="sans-serif" font-size="13" lengthAdjust="spacingAndGlyphs" textLength="32" x="68.49" y="367.1997">input</text><!--
@startuml
hide empty description



[*] -> ready

state "Ready" as ready
state "Input\nRegistered" as registered_input
state "Connection\nConfirmed" as confirmed_input
state c1 <<choice>>

ready -left-> ready : get\nstatuses

ready - -> registered_input : register\ninput

ready- -> c1 : confirm\nconnection
registered_input - -> c1 : confirm\nconnection

c1 - -> registered_input : not_final\n(zero creds)
c1 - -> confirmed_input : final\n(real creds)

ready- -> [*] : signature
confirmed_input - -> [*] : signature

ready - -> [*] : deregister\ninput
registered_input - -> [*] : deregister\ninput

ready - -> [*] : register\noutput

ready - -> [*] : reissue\ncreds

@enduml

PlantUML version 1.2019.01(Sat Feb 09 15:32:04 UTC 2019)
(LGPL source distribution)
Java Runtime: OpenJDK Runtime Environment
JVM: OpenJDK 64-Bit Server VM
Java Version: 1.8.0_252-b09
Operating System: Linux
OS Version: 5.5.7-1.qubes.x86_64
Default Encoding: UTF-8
Language: en
Country: null
--></g></svg>