<?xml version="1.0" encoding="UTF-8" standalone="no"?>
<!DOCTYPE svg PUBLIC "-//W3C//DTD SVG 1.1//EN"
 "http://www.w3.org/Graphics/SVG/1.1/DTD/svg11.dtd">
<!-- Generated by graphviz version 2.40.1 (20161225.0304)
 -->
<!-- Title: %3 Pages: 1 -->
<svg width="167pt" height="146pt"
 viewBox="0.00 0.00 167.00 146.00" xmlns="http://www.w3.org/2000/svg" xmlns:xlink="http://www.w3.org/1999/xlink">
<g id="graph0" class="graph" transform="scale(1 1) rotate(0) translate(4 142)">
<title>%3</title>
<polygon fill="#ffffff" stroke="transparent" points="-4,4 -4,-142 163,-142 163,4 -4,4"/>
<!-- mix -->
<g id="node1" class="node">
<title>mix</title>
<text text-anchor="start" x="13.5" y="-119.8" font-family="Times,serif" font-size="9.00" fill="#7f7f7f">out</text>
<polygon fill="#9acd32" stroke="transparent" points="29.5,-113 29.5,-131 60.5,-131 60.5,-113 29.5,-113"/>
<polygon fill="none" stroke="#000000" stroke-width="2" points="30.5,-114 30.5,-130 59.5,-130 59.5,-114 30.5,-114"/>
<text text-anchor="start" x="39" y="-119.8" font-family="Times,serif" font-size="9.00" fill="#000000">0.1</text>
<polygon fill="none" stroke="#7f7f7f" points="62.5,-113 62.5,-131 95.5,-131 95.5,-113 62.5,-113"/>
<text text-anchor="start" x="73" y="-119.8" font-family="Times,serif" font-size="9.00" fill="#7f7f7f">0.1</text>
<polygon fill="none" stroke="#7f7f7f" points="97.5,-113 97.5,-131 148.5,-131 148.5,-113 97.5,-113"/>
<text text-anchor="start" x="117" y="-119.8" font-family="Times,serif" font-size="9.00" fill="#7f7f7f">0.1</text>
<text text-anchor="start" x="16" y="-99.8" font-family="Times,serif" font-size="9.00" fill="#7f7f7f">in</text>
<polygon fill="none" stroke="#7f7f7f" points="29.5,-93 29.5,-111 60.5,-111 60.5,-93 29.5,-93"/>
<text text-anchor="start" x="32.5" y="-99.8" font-family="Times,serif" font-size="9.00" fill="#7f7f7f">0.1001</text>
<polygon fill="#ff7f50" stroke="transparent" points="62.5,-93 62.5,-111 95.5,-111 95.5,-93 62.5,-93"/>
<polygon fill="none" stroke="#000000" stroke-width="2" points="63.5,-94 63.5,-110 94.5,-110 94.5,-94 63.5,-94"/>
<text text-anchor="start" x="66.5" y="-99.8" font-family="Times,serif" font-size="9.00" fill="#000000">0.1001</text>
<polygon fill="none" stroke="#7f7f7f" points="97.5,-93 97.5,-111 115.5,-111 115.5,-93 97.5,-93"/>
<text text-anchor="start" x="100.5" y="-99.8" font-family="Times,serif" font-size="9.00" fill="#7f7f7f">0.1</text>
<polygon fill="none" stroke="#7f7f7f" points="117.5,-93 117.5,-111 148.5,-111 148.5,-93 117.5,-93"/>
<text text-anchor="start" x="120.5" y="-99.8" font-family="Times,serif" font-size="9.00" fill="#7f7f7f">0.0001</text>
<polygon fill="none" stroke="#7f7f7f" points="8,-90 8,-134 151,-134 151,-90 8,-90"/>
</g>
<!-- receive -->
<g id="node2" class="node">
<title>receive</title>
<text text-anchor="start" x="46.5" y="-31.8" font-family="Times,serif" font-size="9.00" fill="#7f7f7f">out</text>
<polygon fill="#ff7f50" stroke="transparent" points="62.5,-25 62.5,-43 95.5,-43 95.5,-25 62.5,-25"/>
<polygon fill="none" stroke="#000000" stroke-width="2" points="63.5,-26 63.5,-42 94.5,-42 94.5,-26 63.5,-26"/>
<text text-anchor="start" x="66.5" y="-31.8" font-family="Times,serif" font-size="9.00" fill="#000000">0.1001</text>
<polygon fill="none" stroke="#7f7f7f" points="97.5,-25 97.5,-43 133.5,-43 133.5,-25 97.5,-25"/>
<text text-anchor="start" x="100.5" y="-31.8" font-family="Times,serif" font-size="9.00" fill="#7f7f7f">0.04985</text>
<text text-anchor="start" x="49" y="-12.8" font-family="Times,serif" font-size="9.00" fill="#7f7f7f">in</text>
<polygon fill="none" stroke="#7f7f7f" points="62.5,-7 62.5,-23 133.5,-23 133.5,-7 62.5,-7"/>
<text text-anchor="start" x="90" y="-12.8" font-family="Times,serif" font-size="9.00" fill="#7f7f7f">0.15</text>
<polygon fill="none" stroke="#7f7f7f" points="41,-4 41,-46 136,-46 136,-4 41,-4"/>
</g>
<!-- mix&#45;&gt;receive -->
<g id="edge1" class="edge">
<title>mix:i01&#45;&gt;receive:o01</title>
<path fill="none" stroke="#000000" d="M78.5,-93C78.5,-74.5972 78.5,-67.6243 78.5,-53.1505"/>
<polygon fill="#000000" stroke="#000000" points="82.0001,-53 78.5,-43 75.0001,-53 82.0001,-53"/>
</g>
</g>
</svg>
