<?xml version="1.0" encoding="UTF-8" standalone="no"?>
<!DOCTYPE svg PUBLIC "-//W3C//DTD SVG 1.1//EN"
 "http://www.w3.org/Graphics/SVG/1.1/DTD/svg11.dtd">
<!-- Generated by graphviz version 2.40.1 (20161225.0304)
 -->
<!-- Title: %3 Pages: 1 -->
<svg width="266pt" height="146pt"
 viewBox="0.00 0.00 266.00 146.00" xmlns="http://www.w3.org/2000/svg" xmlns:xlink="http://www.w3.org/1999/xlink">
<g id="graph0" class="graph" transform="scale(1 1) rotate(0) translate(4 142)">
<title>%3</title>
<polygon fill="#ffffff" stroke="transparent" points="-4,4 -4,-142 262,-142 262,4 -4,4"/>
<!-- mix -->
<g id="node1" class="node">
<title>mix</title>
<text text-anchor="start" x="13.5" y="-119.8" font-family="Times,serif" font-size="9.00" fill="#7f7f7f">out</text>
<polygon fill="none" stroke="#7f7f7f" points="29.5,-113 29.5,-131 60.5,-131 60.5,-113 29.5,-113"/>
<text text-anchor="start" x="39" y="-119.8" font-family="Times,serif" font-size="9.00" fill="#7f7f7f">0.1</text>
<polygon fill="#9acd32" stroke="transparent" points="62.5,-113 62.5,-131 93.5,-131 93.5,-113 62.5,-113"/>
<polygon fill="none" stroke="#000000" stroke-width="2" points="63.5,-114 63.5,-130 92.5,-130 92.5,-114 63.5,-114"/>
<text text-anchor="start" x="72" y="-119.8" font-family="Times,serif" font-size="9.00" fill="#000000">0.1</text>
<polygon fill="none" stroke="#7f7f7f" points="95.5,-113 95.5,-131 150.5,-131 150.5,-113 95.5,-113"/>
<text text-anchor="start" x="117" y="-119.8" font-family="Times,serif" font-size="9.00" fill="#7f7f7f">0.1</text>
<text text-anchor="start" x="16" y="-99.8" font-family="Times,serif" font-size="9.00" fill="#7f7f7f">in</text>
<polygon fill="none" stroke="#7f7f7f" points="29.5,-93 29.5,-111 60.5,-111 60.5,-93 29.5,-93"/>
<text text-anchor="start" x="32.5" y="-99.8" font-family="Times,serif" font-size="9.00" fill="#7f7f7f">0.1001</text>
<polygon fill="none" stroke="#7f7f7f" points="62.5,-93 62.5,-111 93.5,-111 93.5,-93 62.5,-93"/>
<text text-anchor="start" x="65.5" y="-99.8" font-family="Times,serif" font-size="9.00" fill="#7f7f7f">0.1001</text>
<polygon fill="#ff7f50" stroke="transparent" points="95.5,-93 95.5,-111 115.5,-111 115.5,-93 95.5,-93"/>
<polygon fill="none" stroke="#000000" stroke-width="2" points="96.5,-94 96.5,-110 114.5,-110 114.5,-94 96.5,-94"/>
<text text-anchor="start" x="99.5" y="-99.8" font-family="Times,serif" font-size="9.00" fill="#000000">0.1</text>
<polygon fill="#ff7f50" stroke="transparent" stroke-width="2" points="117.5,-93 117.5,-111 150.5,-111 150.5,-93 117.5,-93"/>
<polygon fill="none" stroke="#000000" stroke-width="2" points="118.5,-94 118.5,-110 149.5,-110 149.5,-94 118.5,-94"/>
<text text-anchor="start" x="121.5" y="-99.8" font-family="Times,serif" font-size="9.00" fill="#000000">0.0001</text>
<polygon fill="none" stroke="#7f7f7f" points="8,-90 8,-134 153,-134 153,-90 8,-90"/>
</g>
<!-- receive -->
<g id="node2" class="node">
<title>receive</title>
<text text-anchor="start" x="15.5" y="-31.8" font-family="Times,serif" font-size="9.00" fill="#7f7f7f">out</text>
<polygon fill="#ff7f50" stroke="transparent" points="31.5,-25 31.5,-43 51.5,-43 51.5,-25 31.5,-25"/>
<polygon fill="none" stroke="#000000" stroke-width="2" points="32.5,-26 32.5,-42 50.5,-42 50.5,-26 32.5,-26"/>
<text text-anchor="start" x="35.5" y="-31.8" font-family="Times,serif" font-size="9.00" fill="#000000">0.1</text>
<polygon fill="none" stroke="#7f7f7f" points="53.5,-25 53.5,-43 89.5,-43 89.5,-25 53.5,-25"/>
<text text-anchor="start" x="56.5" y="-31.8" font-family="Times,serif" font-size="9.00" fill="#7f7f7f">0.04995</text>
<text text-anchor="start" x="18" y="-12.8" font-family="Times,serif" font-size="9.00" fill="#7f7f7f">in</text>
<polygon fill="none" stroke="#7f7f7f" points="31.5,-7 31.5,-23 89.5,-23 89.5,-7 31.5,-7"/>
<text text-anchor="start" x="52.5" y="-12.8" font-family="Times,serif" font-size="9.00" fill="#7f7f7f">0.15</text>
<polygon fill="none" stroke="#7f7f7f" points="10.5,-4 10.5,-46 92.5,-46 92.5,-4 10.5,-4"/>
</g>
<!-- mix&#45;&gt;receive -->
<g id="edge1" class="edge">
<title>mix:s&#45;&gt;receive:o01</title>
<path fill="none" stroke="#000000" d="M105.5,-93C105.5,-60.8521 54.7344,-74.9387 43.6294,-52.9046"/>
<polygon fill="#000000" stroke="#000000" points="47.0238,-52.0409 41.5,-43 40.1801,-53.5123 47.0238,-52.0409"/>
</g>
<!-- prev_mix -->
<g id="node3" class="node">
<title>prev_mix</title>
<text text-anchor="start" x="132.5" y="-31.8" font-family="Times,serif" font-size="9.00" fill="#7f7f7f">out</text>
<polygon fill="none" stroke="#7f7f7f" points="148.5,-25 148.5,-43 179.5,-43 179.5,-25 148.5,-25"/>
<text text-anchor="start" x="151.5" y="-31.8" font-family="Times,serif" font-size="9.00" fill="#7f7f7f">0.0001</text>
<polygon fill="#9acd32" stroke="transparent" points="181.5,-25 181.5,-43 214.5,-43 214.5,-25 181.5,-25"/>
<polygon fill="none" stroke="#000000" stroke-width="2" points="182.5,-26 182.5,-42 213.5,-42 213.5,-26 182.5,-26"/>
<text text-anchor="start" x="185.5" y="-31.8" font-family="Times,serif" font-size="9.00" fill="#000000">0.0001</text>
<polygon fill="none" stroke="#7f7f7f" points="216.5,-25 216.5,-43 247.5,-43 247.5,-25 216.5,-25"/>
<text text-anchor="start" x="219.5" y="-31.8" font-family="Times,serif" font-size="9.00" fill="#7f7f7f">0.0001</text>
<text text-anchor="start" x="135" y="-12.8" font-family="Times,serif" font-size="9.00" fill="#7f7f7f">in</text>
<polygon fill="none" stroke="#7f7f7f" points="148.5,-7 148.5,-23 179.5,-23 179.5,-7 148.5,-7"/>
<text text-anchor="start" x="151.5" y="-12.8" font-family="Times,serif" font-size="9.00" fill="#7f7f7f">0.0002</text>
<polygon fill="none" stroke="#7f7f7f" points="181.5,-7 181.5,-23 214.5,-23 214.5,-7 181.5,-7"/>
<text text-anchor="start" x="185.5" y="-12.8" font-family="Times,serif" font-size="9.00" fill="#7f7f7f">0.0002</text>
<polygon fill="none" stroke="#7f7f7f" points="216.5,-7 216.5,-23 247.5,-23 247.5,-7 216.5,-7"/>
<text text-anchor="start" x="219.5" y="-12.8" font-family="Times,serif" font-size="9.00" fill="#7f7f7f">0.0002</text>
<polygon fill="none" stroke="#7f7f7f" points="127,-4 127,-46 250,-46 250,-4 127,-4"/>
</g>
<!-- mix&#45;&gt;prev_mix -->
<g id="edge2" class="edge">
<title>mix:s&#45;&gt;prev_mix:o01</title>
<path fill="none" stroke="#000000" d="M134.5,-93C134.5,-60.8521 185.2656,-74.9387 196.3706,-52.9046"/>
<polygon fill="#000000" stroke="#000000" points="199.8199,-53.5123 198.5,-43 192.9762,-52.0409 199.8199,-53.5123"/>
</g>
</g>
</svg>
