<?xml version="1.0" encoding="UTF-8" standalone="no"?>
<!DOCTYPE svg PUBLIC "-//W3C//DTD SVG 1.1//EN"
 "http://www.w3.org/Graphics/SVG/1.1/DTD/svg11.dtd">
<!-- Generated by graphviz version 2.40.1 (20161225.0304)
 -->
<!-- Title: %3 Pages: 1 -->
<svg width="421pt" height="146pt"
 viewBox="0.00 0.00 421.00 146.00" xmlns="http://www.w3.org/2000/svg" xmlns:xlink="http://www.w3.org/1999/xlink">
<g id="graph0" class="graph" transform="scale(1 1) rotate(0) translate(4 142)">
<title>%3</title>
<polygon fill="#ffffff" stroke="transparent" points="-4,4 -4,-142 417,-142 417,4 -4,4"/>
<!-- mix -->
<g id="node1" class="node">
<title>mix</title>
<text text-anchor="start" x="13.5" y="-119.8" font-family="Times,serif" font-size="9.00" fill="#7f7f7f">out</text>
<polygon fill="none" stroke="#7f7f7f" points="29.5,-113 29.5,-131 60.5,-131 60.5,-113 29.5,-113"/>
<text text-anchor="start" x="39" y="-119.8" font-family="Times,serif" font-size="9.00" fill="#7f7f7f">0.1</text>
<polygon fill="#9acd32" stroke="transparent" points="62.5,-113 62.5,-131 86.5,-131 86.5,-113 62.5,-113"/>
<polygon fill="none" stroke="#000000" stroke-width="2" points="63.5,-114 63.5,-130 85.5,-130 85.5,-114 63.5,-114"/>
<text text-anchor="start" x="66.5" y="-119.8" font-family="Times,serif" font-size="9.00" fill="#000000">0.05</text>
<polygon fill="none" stroke="#7f7f7f" points="88.5,-113 88.5,-131 119.5,-131 119.5,-113 88.5,-113"/>
<text text-anchor="start" x="96" y="-119.8" font-family="Times,serif" font-size="9.00" fill="#7f7f7f">0.05</text>
<polygon fill="none" stroke="#7f7f7f" points="121.5,-113 121.5,-131 143.5,-131 143.5,-113 121.5,-113"/>
<text text-anchor="start" x="124.5" y="-119.8" font-family="Times,serif" font-size="9.00" fill="#7f7f7f">0.05</text>
<polygon fill="#9acd32" stroke="transparent" points="145.5,-113 145.5,-131 176.5,-131 176.5,-113 145.5,-113"/>
<polygon fill="none" stroke="#000000" stroke-width="2" points="146.5,-114 146.5,-130 175.5,-130 175.5,-114 146.5,-114"/>
<text text-anchor="start" x="153" y="-119.8" font-family="Times,serif" font-size="9.00" fill="#000000">0.02</text>
<polygon fill="none" stroke="#7f7f7f" points="178.5,-113 178.5,-131 200.5,-131 200.5,-113 178.5,-113"/>
<text text-anchor="start" x="181.5" y="-119.8" font-family="Times,serif" font-size="9.00" fill="#7f7f7f">0.02</text>
<polygon fill="#9acd32" stroke="transparent" points="202.5,-113 202.5,-131 233.5,-131 233.5,-113 202.5,-113"/>
<polygon fill="none" stroke="#000000" stroke-width="2" points="203.5,-114 203.5,-130 232.5,-130 232.5,-114 203.5,-114"/>
<text text-anchor="start" x="210" y="-119.8" font-family="Times,serif" font-size="9.00" fill="#000000">0.02</text>
<polygon fill="#ffd700" stroke="transparent" stroke-width="2" points="235.5,-113 235.5,-131 266.5,-131 266.5,-113 235.5,-113"/>
<polygon fill="none" stroke="#000000" stroke-width="2" points="236.5,-114 236.5,-130 265.5,-130 265.5,-114 236.5,-114"/>
<text text-anchor="start" x="240.5" y="-119.8" font-family="Times,serif" font-size="9.00" fill="#000000">0.005</text>
<polygon fill="#ffd700" stroke="transparent" stroke-width="2" points="268.5,-113 268.5,-131 297.5,-131 297.5,-113 268.5,-113"/>
<polygon fill="none" stroke="#000000" stroke-width="2" points="269.5,-114 269.5,-130 296.5,-130 296.5,-114 269.5,-114"/>
<text text-anchor="start" x="272.5" y="-119.8" font-family="Times,serif" font-size="9.00" fill="#000000">0.002</text>
<polygon fill="#ffd700" stroke="transparent" stroke-width="2" points="299.5,-113 299.5,-131 332.5,-131 332.5,-113 299.5,-113"/>
<polygon fill="none" stroke="#000000" stroke-width="2" points="300.5,-114 300.5,-130 331.5,-130 331.5,-114 300.5,-114"/>
<text text-anchor="start" x="303.5" y="-119.8" font-family="Times,serif" font-size="9.00" fill="#000000">0.0005</text>
<polygon fill="#ffd700" stroke="transparent" stroke-width="2" points="334.5,-113 334.5,-131 367.5,-131 367.5,-113 334.5,-113"/>
<polygon fill="none" stroke="#000000" stroke-width="2" points="335.5,-114 335.5,-130 366.5,-130 366.5,-114 335.5,-114"/>
<text text-anchor="start" x="338.5" y="-119.8" font-family="Times,serif" font-size="9.00" fill="#000000">0.0002</text>
<polygon fill="#ffd700" stroke="transparent" stroke-width="2" points="369.5,-113 369.5,-131 402.5,-131 402.5,-113 369.5,-113"/>
<polygon fill="none" stroke="#000000" stroke-width="2" points="370.5,-114 370.5,-130 401.5,-130 401.5,-114 370.5,-114"/>
<text text-anchor="start" x="373.5" y="-119.8" font-family="Times,serif" font-size="9.00" fill="#000000">0.0002</text>
<text text-anchor="start" x="16" y="-99.8" font-family="Times,serif" font-size="9.00" fill="#7f7f7f">in</text>
<polygon fill="none" stroke="#7f7f7f" points="29.5,-93 29.5,-111 60.5,-111 60.5,-93 29.5,-93"/>
<text text-anchor="start" x="32.5" y="-99.8" font-family="Times,serif" font-size="9.00" fill="#7f7f7f">0.1001</text>
<polygon fill="#ff7f50" stroke="transparent" points="62.5,-93 62.5,-111 86.5,-111 86.5,-93 62.5,-93"/>
<polygon fill="none" stroke="#000000" stroke-width="2" points="63.5,-94 63.5,-110 85.5,-110 85.5,-94 63.5,-94"/>
<text text-anchor="start" x="68.5" y="-99.8" font-family="Times,serif" font-size="9.00" fill="#000000">0.1</text>
<polygon fill="none" stroke="#7f7f7f" points="88.5,-93 88.5,-111 119.5,-111 119.5,-93 88.5,-93"/>
<text text-anchor="start" x="91.5" y="-99.8" font-family="Times,serif" font-size="9.00" fill="#7f7f7f">0.0501</text>
<polygon fill="none" stroke="#7f7f7f" points="121.5,-93 121.5,-111 143.5,-111 143.5,-93 121.5,-93"/>
<text text-anchor="start" x="124.5" y="-99.8" font-family="Times,serif" font-size="9.00" fill="#7f7f7f">0.05</text>
<polygon fill="none" stroke="#7f7f7f" points="145.5,-93 145.5,-111 176.5,-111 176.5,-93 145.5,-93"/>
<text text-anchor="start" x="148.5" y="-99.8" font-family="Times,serif" font-size="9.00" fill="#7f7f7f">0.0201</text>
<polygon fill="none" stroke="#7f7f7f" points="178.5,-93 178.5,-111 200.5,-111 200.5,-93 178.5,-93"/>
<text text-anchor="start" x="181.5" y="-99.8" font-family="Times,serif" font-size="9.00" fill="#7f7f7f">0.02</text>
<polygon fill="none" stroke="#7f7f7f" points="202.5,-93 202.5,-111 233.5,-111 233.5,-93 202.5,-93"/>
<text text-anchor="start" x="205.5" y="-99.8" font-family="Times,serif" font-size="9.00" fill="#7f7f7f">0.0001</text>
<polygon fill="none" stroke="#7f7f7f" points="235.5,-93 235.5,-111 266.5,-111 266.5,-93 235.5,-93"/>
<text text-anchor="start" x="238.5" y="-99.8" font-family="Times,serif" font-size="9.00" fill="#7f7f7f">0.0001</text>
<polygon fill="none" stroke="#7f7f7f" points="8,-90 8,-134 405,-134 405,-90 8,-90"/>
</g>
<!-- receive -->
<g id="node2" class="node">
<title>receive</title>
<text text-anchor="start" x="48.5" y="-31.8" font-family="Times,serif" font-size="9.00" fill="#7f7f7f">out</text>
<polygon fill="#ff7f50" stroke="transparent" points="64.5,-25 64.5,-43 84.5,-43 84.5,-25 64.5,-25"/>
<polygon fill="none" stroke="#000000" stroke-width="2" points="65.5,-26 65.5,-42 83.5,-42 83.5,-26 65.5,-26"/>
<text text-anchor="start" x="68.5" y="-31.8" font-family="Times,serif" font-size="9.00" fill="#000000">0.1</text>
<polygon fill="none" stroke="#7f7f7f" points="86.5,-25 86.5,-43 122.5,-43 122.5,-25 86.5,-25"/>
<text text-anchor="start" x="89.5" y="-31.8" font-family="Times,serif" font-size="9.00" fill="#7f7f7f">0.04995</text>
<text text-anchor="start" x="51" y="-12.8" font-family="Times,serif" font-size="9.00" fill="#7f7f7f">in</text>
<polygon fill="none" stroke="#7f7f7f" points="64.5,-7 64.5,-23 122.5,-23 122.5,-7 64.5,-7"/>
<text text-anchor="start" x="85.5" y="-12.8" font-family="Times,serif" font-size="9.00" fill="#7f7f7f">0.15</text>
<polygon fill="none" stroke="#7f7f7f" points="43.5,-4 43.5,-46 125.5,-46 125.5,-4 43.5,-4"/>
</g>
<!-- mix&#45;&gt;receive -->
<g id="edge1" class="edge">
<title>mix:i01&#45;&gt;receive:o01</title>
<path fill="none" stroke="#000000" d="M74.5,-93C74.5,-74.5972 74.5,-67.6243 74.5,-53.1505"/>
<polygon fill="#000000" stroke="#000000" points="78.0001,-53 74.5,-43 71.0001,-53 78.0001,-53"/>
</g>
</g>
</svg>
