<?xml version="1.0" encoding="UTF-8" standalone="no"?>
<!DOCTYPE svg PUBLIC "-//W3C//DTD SVG 1.1//EN"
 "http://www.w3.org/Graphics/SVG/1.1/DTD/svg11.dtd">
<!-- Generated by graphviz version 2.40.1 (20161225.0304)
 -->
<!-- Title: %3 Pages: 1 -->
<svg width="551pt" height="146pt"
 viewBox="0.00 0.00 551.00 146.00" xmlns="http://www.w3.org/2000/svg" xmlns:xlink="http://www.w3.org/1999/xlink">
<g id="graph0" class="graph" transform="scale(1 1) rotate(0) translate(4 142)">
<title>%3</title>
<polygon fill="#ffffff" stroke="transparent" points="-4,4 -4,-142 547,-142 547,4 -4,4"/>
<!-- mix -->
<g id="node1" class="node">
<title>mix</title>
<text text-anchor="start" x="13.5" y="-119.8" font-family="Times,serif" font-size="9.00" fill="#7f7f7f">out</text>
<polygon fill="#ffd700" stroke="transparent" points="29.5,-113 29.5,-131 58.5,-131 58.5,-113 29.5,-113"/>
<polygon fill="none" stroke="#000000" stroke-width="2" points="30.5,-114 30.5,-130 57.5,-130 57.5,-114 30.5,-114"/>
<text text-anchor="start" x="38" y="-119.8" font-family="Times,serif" font-size="9.00" fill="#000000">0.5</text>
<polygon fill="none" stroke="#7f7f7f" points="60.5,-113 60.5,-131 91.5,-131 91.5,-113 60.5,-113"/>
<text text-anchor="start" x="70" y="-119.8" font-family="Times,serif" font-size="9.00" fill="#7f7f7f">0.2</text>
<polygon fill="#9acd32" stroke="transparent" points="93.5,-113 93.5,-131 113.5,-131 113.5,-113 93.5,-113"/>
<polygon fill="none" stroke="#000000" stroke-width="2" points="94.5,-114 94.5,-130 112.5,-130 112.5,-114 94.5,-114"/>
<text text-anchor="start" x="97.5" y="-119.8" font-family="Times,serif" font-size="9.00" fill="#000000">0.2</text>
<polygon fill="none" stroke="#7f7f7f" points="115.5,-113 115.5,-131 133.5,-131 133.5,-113 115.5,-113"/>
<text text-anchor="start" x="118.5" y="-119.8" font-family="Times,serif" font-size="9.00" fill="#7f7f7f">0.1</text>
<polygon fill="none" stroke="#7f7f7f" points="135.5,-113 135.5,-131 166.5,-131 166.5,-113 135.5,-113"/>
<text text-anchor="start" x="143" y="-119.8" font-family="Times,serif" font-size="9.00" fill="#7f7f7f">0.05</text>
<polygon fill="none" stroke="#7f7f7f" points="168.5,-113 168.5,-131 190.5,-131 190.5,-113 168.5,-113"/>
<text text-anchor="start" x="171.5" y="-119.8" font-family="Times,serif" font-size="9.00" fill="#7f7f7f">0.05</text>
<polygon fill="none" stroke="#7f7f7f" points="192.5,-113 192.5,-131 214.5,-131 214.5,-113 192.5,-113"/>
<text text-anchor="start" x="195.5" y="-119.8" font-family="Times,serif" font-size="9.00" fill="#7f7f7f">0.05</text>
<polygon fill="none" stroke="#7f7f7f" points="216.5,-113 216.5,-131 238.5,-131 238.5,-113 216.5,-113"/>
<text text-anchor="start" x="219.5" y="-119.8" font-family="Times,serif" font-size="9.00" fill="#7f7f7f">0.05</text>
<polygon fill="none" stroke="#7f7f7f" points="240.5,-113 240.5,-131 262.5,-131 262.5,-113 240.5,-113"/>
<text text-anchor="start" x="243.5" y="-119.8" font-family="Times,serif" font-size="9.00" fill="#7f7f7f">0.02</text>
<polygon fill="#9acd32" stroke="transparent" points="264.5,-113 264.5,-131 288.5,-131 288.5,-113 264.5,-113"/>
<polygon fill="none" stroke="#000000" stroke-width="2" points="265.5,-114 265.5,-130 287.5,-130 287.5,-114 265.5,-114"/>
<text text-anchor="start" x="268.5" y="-119.8" font-family="Times,serif" font-size="9.00" fill="#000000">0.02</text>
<polygon fill="#9acd32" stroke="transparent" stroke-width="2" points="290.5,-113 290.5,-131 314.5,-131 314.5,-113 290.5,-113"/>
<polygon fill="none" stroke="#000000" stroke-width="2" points="291.5,-114 291.5,-130 313.5,-130 313.5,-114 291.5,-114"/>
<text text-anchor="start" x="294.5" y="-119.8" font-family="Times,serif" font-size="9.00" fill="#000000">0.01</text>
<polygon fill="none" stroke="#7f7f7f" points="316.5,-113 316.5,-131 338.5,-131 338.5,-113 316.5,-113"/>
<text text-anchor="start" x="319.5" y="-119.8" font-family="Times,serif" font-size="9.00" fill="#7f7f7f">0.01</text>
<polygon fill="none" stroke="#7f7f7f" points="340.5,-113 340.5,-131 367.5,-131 367.5,-113 340.5,-113"/>
<text text-anchor="start" x="343.5" y="-119.8" font-family="Times,serif" font-size="9.00" fill="#7f7f7f">0.005</text>
<polygon fill="#ffd700" stroke="transparent" points="369.5,-113 369.5,-131 398.5,-131 398.5,-113 369.5,-113"/>
<polygon fill="none" stroke="#000000" stroke-width="2" points="370.5,-114 370.5,-130 397.5,-130 397.5,-114 370.5,-114"/>
<text text-anchor="start" x="373.5" y="-119.8" font-family="Times,serif" font-size="9.00" fill="#000000">0.005</text>
<polygon fill="none" stroke="#7f7f7f" points="400.5,-113 400.5,-131 427.5,-131 427.5,-113 400.5,-113"/>
<text text-anchor="start" x="403.5" y="-119.8" font-family="Times,serif" font-size="9.00" fill="#7f7f7f">0.001</text>
<polygon fill="#ff7f50" stroke="transparent" points="429.5,-113 429.5,-131 462.5,-131 462.5,-113 429.5,-113"/>
<polygon fill="none" stroke="#000000" stroke-width="2" points="430.5,-114 430.5,-130 461.5,-130 461.5,-114 430.5,-114"/>
<text text-anchor="start" x="433.5" y="-119.8" font-family="Times,serif" font-size="9.00" fill="#000000">0.0005</text>
<polygon fill="#ff7f50" stroke="transparent" stroke-width="2" points="464.5,-113 464.5,-131 497.5,-131 497.5,-113 464.5,-113"/>
<polygon fill="none" stroke="#000000" stroke-width="2" points="465.5,-114 465.5,-130 496.5,-130 496.5,-114 465.5,-114"/>
<text text-anchor="start" x="468.5" y="-119.8" font-family="Times,serif" font-size="9.00" fill="#000000">0.0002</text>
<polygon fill="#ff7f50" stroke="transparent" stroke-width="2" points="499.5,-113 499.5,-131 532.5,-131 532.5,-113 499.5,-113"/>
<polygon fill="none" stroke="#000000" stroke-width="2" points="500.5,-114 500.5,-130 531.5,-130 531.5,-114 500.5,-114"/>
<text text-anchor="start" x="503.5" y="-119.8" font-family="Times,serif" font-size="9.00" fill="#000000">0.0002</text>
<text text-anchor="start" x="16" y="-99.8" font-family="Times,serif" font-size="9.00" fill="#7f7f7f">in</text>
<polygon fill="#ff7f50" stroke="transparent" stroke-width="2" points="29.5,-93 29.5,-111 58.5,-111 58.5,-93 29.5,-93"/>
<polygon fill="none" stroke="#000000" stroke-width="2" points="30.5,-94 30.5,-110 57.5,-110 57.5,-94 30.5,-94"/>
<text text-anchor="start" x="33.5" y="-99.8" font-family="Times,serif" font-size="9.00" fill="#000000">0.736</text>
<polygon fill="none" stroke="#7f7f7f" points="60.5,-93 60.5,-111 91.5,-111 91.5,-93 60.5,-93"/>
<text text-anchor="start" x="63.5" y="-99.8" font-family="Times,serif" font-size="9.00" fill="#7f7f7f">0.2001</text>
<polygon fill="none" stroke="#7f7f7f" points="93.5,-93 93.5,-111 113.5,-111 113.5,-93 93.5,-93"/>
<text text-anchor="start" x="97.5" y="-99.8" font-family="Times,serif" font-size="9.00" fill="#7f7f7f">0.2</text>
<polygon fill="none" stroke="#7f7f7f" points="115.5,-93 115.5,-111 133.5,-111 133.5,-93 115.5,-93"/>
<text text-anchor="start" x="118.5" y="-99.8" font-family="Times,serif" font-size="9.00" fill="#7f7f7f">0.1</text>
<polygon fill="none" stroke="#7f7f7f" points="135.5,-93 135.5,-111 166.5,-111 166.5,-93 135.5,-93"/>
<text text-anchor="start" x="138.5" y="-99.8" font-family="Times,serif" font-size="9.00" fill="#7f7f7f">0.0361</text>
<polygon fill="none" stroke="#7f7f7f" points="8,-90 8,-134 535,-134 535,-90 8,-90"/>
</g>
<!-- receive -->
<g id="node2" class="node">
<title>receive</title>
<text text-anchor="start" x="13.5" y="-31.8" font-family="Times,serif" font-size="9.00" fill="#7f7f7f">out</text>
<polygon fill="#ff7f50" stroke="transparent" points="29.5,-25 29.5,-43 58.5,-43 58.5,-25 29.5,-25"/>
<polygon fill="none" stroke="#000000" stroke-width="2" points="30.5,-26 30.5,-42 57.5,-42 57.5,-26 30.5,-26"/>
<text text-anchor="start" x="33.5" y="-31.8" font-family="Times,serif" font-size="9.00" fill="#000000">0.736</text>
<polygon fill="none" stroke="#7f7f7f" points="60.5,-25 60.5,-43 91.5,-43 91.5,-25 60.5,-25"/>
<text text-anchor="start" x="63.5" y="-31.8" font-family="Times,serif" font-size="9.00" fill="#7f7f7f">0.0635</text>
<text text-anchor="start" x="16" y="-12.8" font-family="Times,serif" font-size="9.00" fill="#7f7f7f">in</text>
<polygon fill="none" stroke="#7f7f7f" points="29.5,-7 29.5,-23 91.5,-23 91.5,-7 29.5,-7"/>
<text text-anchor="start" x="54.5" y="-12.8" font-family="Times,serif" font-size="9.00" fill="#7f7f7f">0.8</text>
<polygon fill="none" stroke="#7f7f7f" points="8.5,-4 8.5,-46 94.5,-46 94.5,-4 8.5,-4"/>
</g>
<!-- mix&#45;&gt;receive -->
<g id="edge1" class="edge">
<title>mix:i01&#45;&gt;receive:o01</title>
<path fill="none" stroke="#000000" d="M43.5,-93C43.5,-74.5972 43.5,-67.6243 43.5,-53.1505"/>
<polygon fill="#000000" stroke="#000000" points="47.0001,-53 43.5,-43 40.0001,-53 47.0001,-53"/>
</g>
</g>
</svg>
