<?xml version="1.0" encoding="UTF-8" standalone="no"?>
<!DOCTYPE svg PUBLIC "-//W3C//DTD SVG 1.1//EN"
 "http://www.w3.org/Graphics/SVG/1.1/DTD/svg11.dtd">
<!-- Generated by graphviz version 2.40.1 (20161225.0304)
 -->
<!-- Title: %3 Pages: 1 -->
<svg width="1043pt" height="326pt"
 viewBox="0.00 0.00 1042.50 326.00" xmlns="http://www.w3.org/2000/svg" xmlns:xlink="http://www.w3.org/1999/xlink">
<g id="graph0" class="graph" transform="scale(1 1) rotate(0) translate(4 322)">
<title>%3</title>
<polygon fill="#ffffff" stroke="transparent" points="-4,4 -4,-322 1038.5,-322 1038.5,4 -4,4"/>
<!-- mix -->
<g id="node1" class="node">
<title>mix</title>
<text text-anchor="start" x="253" y="-299.8" font-family="Times,serif" font-size="9.00" fill="#7f7f7f">out</text>
<polygon fill="none" stroke="#7f7f7f" points="269,-293 269,-311 300,-311 300,-293 269,-293"/>
<text text-anchor="start" x="278.5" y="-299.8" font-family="Times,serif" font-size="9.00" fill="#7f7f7f">1.0</text>
<polygon fill="none" stroke="#7f7f7f" points="302,-293 302,-311 331,-311 331,-293 302,-293"/>
<text text-anchor="start" x="310.5" y="-299.8" font-family="Times,serif" font-size="9.00" fill="#7f7f7f">1.0</text>
<polygon fill="#9acd32" stroke="transparent" points="333,-293 333,-311 353,-311 353,-293 333,-293"/>
<polygon fill="none" stroke="#000000" stroke-width="2" points="334,-294 334,-310 352,-310 352,-294 334,-294"/>
<text text-anchor="start" x="337" y="-299.8" font-family="Times,serif" font-size="9.00" fill="#000000">1.0</text>
<text text-anchor="start" x="255.5" y="-279.8" font-family="Times,serif" font-size="9.00" fill="#7f7f7f">in</text>
<polygon fill="none" stroke="#7f7f7f" points="269,-273 269,-291 300,-291 300,-273 269,-273"/>
<text text-anchor="start" x="272" y="-279.8" font-family="Times,serif" font-size="9.00" fill="#7f7f7f">1.0001</text>
<polygon fill="#ff7f50" stroke="transparent" points="302,-273 302,-291 331,-291 331,-273 302,-273"/>
<polygon fill="none" stroke="#000000" stroke-width="2" points="303,-274 303,-290 330,-290 330,-274 303,-274"/>
<text text-anchor="start" x="306" y="-279.8" font-family="Times,serif" font-size="9.00" fill="#000000">0.736</text>
<polygon fill="none" stroke="#7f7f7f" points="333,-273 333,-291 353,-291 353,-273 333,-273"/>
<text text-anchor="start" x="337" y="-279.8" font-family="Times,serif" font-size="9.00" fill="#7f7f7f">0.5</text>
<polygon fill="#ffd700" stroke="transparent" points="355,-273 355,-291 375,-291 375,-273 355,-273"/>
<polygon fill="none" stroke="#000000" stroke-width="2" points="356,-274 356,-290 374,-290 374,-274 356,-274"/>
<text text-anchor="start" x="359" y="-279.8" font-family="Times,serif" font-size="9.00" fill="#000000">0.2</text>
<polygon fill="none" stroke="#7f7f7f" points="377,-273 377,-291 395,-291 395,-273 377,-273"/>
<text text-anchor="start" x="380" y="-279.8" font-family="Times,serif" font-size="9.00" fill="#7f7f7f">0.2</text>
<polygon fill="none" stroke="#7f7f7f" points="397,-273 397,-291 415,-291 415,-273 397,-273"/>
<text text-anchor="start" x="400" y="-279.8" font-family="Times,serif" font-size="9.00" fill="#7f7f7f">0.2</text>
<polygon fill="none" stroke="#7f7f7f" points="417,-273 417,-291 435,-291 435,-273 417,-273"/>
<text text-anchor="start" x="420" y="-279.8" font-family="Times,serif" font-size="9.00" fill="#7f7f7f">0.1</text>
<polygon fill="#ff7f50" stroke="transparent" points="437,-273 437,-291 461,-291 461,-273 437,-273"/>
<polygon fill="none" stroke="#000000" stroke-width="2" points="438,-274 438,-290 460,-290 460,-274 438,-274"/>
<text text-anchor="start" x="441" y="-279.8" font-family="Times,serif" font-size="9.00" fill="#000000">0.05</text>
<polygon fill="#ff7f50" stroke="transparent" stroke-width="2" points="463,-273 463,-291 487,-291 487,-273 463,-273"/>
<polygon fill="none" stroke="#000000" stroke-width="2" points="464,-274 464,-290 486,-290 486,-274 464,-274"/>
<text text-anchor="start" x="467" y="-279.8" font-family="Times,serif" font-size="9.00" fill="#000000">0.01</text>
<polygon fill="#ff7f50" stroke="transparent" stroke-width="2" points="489,-273 489,-291 518,-291 518,-273 489,-273"/>
<polygon fill="none" stroke="#000000" stroke-width="2" points="490,-274 490,-290 517,-290 517,-274 490,-274"/>
<text text-anchor="start" x="493" y="-279.8" font-family="Times,serif" font-size="9.00" fill="#000000">0.002</text>
<polygon fill="#ff7f50" stroke="transparent" stroke-width="2" points="520,-273 520,-291 549,-291 549,-273 520,-273"/>
<polygon fill="none" stroke="#000000" stroke-width="2" points="521,-274 521,-290 548,-290 548,-274 521,-274"/>
<text text-anchor="start" x="524" y="-279.8" font-family="Times,serif" font-size="9.00" fill="#000000">0.002</text>
<polygon fill="none" stroke="#7f7f7f" points="551,-273 551,-291 582,-291 582,-273 551,-273"/>
<text text-anchor="start" x="554" y="-279.8" font-family="Times,serif" font-size="9.00" fill="#7f7f7f">0.0001</text>
<polygon fill="#ffd700" stroke="transparent" points="584,-273 584,-291 617,-291 617,-273 584,-273"/>
<polygon fill="none" stroke="#000000" stroke-width="2" points="585,-274 585,-290 616,-290 616,-274 585,-274"/>
<text text-anchor="start" x="588" y="-279.8" font-family="Times,serif" font-size="9.00" fill="#000000">0.0001</text>
<polygon fill="none" stroke="#7f7f7f" points="248,-270 248,-314 620,-314 620,-270 248,-270"/>
</g>
<!-- receive -->
<g id="node2" class="node">
<title>receive</title>
<text text-anchor="start" x="13" y="-31.8" font-family="Times,serif" font-size="9.00" fill="#7f7f7f">out</text>
<polygon fill="#ff7f50" stroke="transparent" points="29,-25 29,-43 58,-43 58,-25 29,-25"/>
<polygon fill="none" stroke="#000000" stroke-width="2" points="30,-26 30,-42 57,-42 57,-26 30,-26"/>
<text text-anchor="start" x="33" y="-31.8" font-family="Times,serif" font-size="9.00" fill="#000000">0.736</text>
<polygon fill="none" stroke="#7f7f7f" points="60,-25 60,-43 91,-43 91,-25 60,-25"/>
<text text-anchor="start" x="63" y="-31.8" font-family="Times,serif" font-size="9.00" fill="#7f7f7f">0.0635</text>
<text text-anchor="start" x="15.5" y="-12.8" font-family="Times,serif" font-size="9.00" fill="#7f7f7f">in</text>
<polygon fill="none" stroke="#7f7f7f" points="29,-7 29,-23 91,-23 91,-7 29,-7"/>
<text text-anchor="start" x="54" y="-12.8" font-family="Times,serif" font-size="9.00" fill="#7f7f7f">0.8</text>
<polygon fill="none" stroke="#7f7f7f" points="8,-4 8,-46 94,-46 94,-4 8,-4"/>
</g>
<!-- mix&#45;&gt;receive -->
<g id="edge1" class="edge">
<title>mix:s&#45;&gt;receive:o01</title>
<path fill="none" stroke="#000000" d="M316,-273C316,-117.9093 55.1259,-197.8562 43.407,-53.3239"/>
<polygon fill="#000000" stroke="#000000" points="46.8913,-52.8543 43,-43 39.8967,-53.1301 46.8913,-52.8543"/>
</g>
<!-- prev_mix_2 -->
<g id="node3" class="node">
<title>prev_mix_2</title>
<text text-anchor="start" x="134" y="-31.8" font-family="Times,serif" font-size="9.00" fill="#7f7f7f">out</text>
<polygon fill="none" stroke="#7f7f7f" points="150,-25 150,-43 181,-43 181,-25 150,-25"/>
<text text-anchor="start" x="159.5" y="-31.8" font-family="Times,serif" font-size="9.00" fill="#7f7f7f">0.2</text>
<polygon fill="#9acd32" stroke="transparent" points="183,-25 183,-43 214,-43 214,-25 183,-25"/>
<polygon fill="none" stroke="#000000" stroke-width="2" points="184,-26 184,-42 213,-42 213,-26 184,-26"/>
<text text-anchor="start" x="192.5" y="-31.8" font-family="Times,serif" font-size="9.00" fill="#000000">0.2</text>
<polygon fill="none" stroke="#7f7f7f" points="216,-25 216,-43 247,-43 247,-25 216,-25"/>
<text text-anchor="start" x="225.5" y="-31.8" font-family="Times,serif" font-size="9.00" fill="#7f7f7f">0.2</text>
<text text-anchor="start" x="136.5" y="-12.8" font-family="Times,serif" font-size="9.00" fill="#7f7f7f">in</text>
<polygon fill="none" stroke="#7f7f7f" points="150,-7 150,-23 181,-23 181,-7 150,-7"/>
<text text-anchor="start" x="153" y="-12.8" font-family="Times,serif" font-size="9.00" fill="#7f7f7f">0.2001</text>
<polygon fill="none" stroke="#7f7f7f" points="183,-7 183,-23 214,-23 214,-7 183,-7"/>
<text text-anchor="start" x="186" y="-12.8" font-family="Times,serif" font-size="9.00" fill="#7f7f7f">0.2001</text>
<polygon fill="none" stroke="#7f7f7f" points="216,-7 216,-23 247,-23 247,-7 216,-7"/>
<text text-anchor="start" x="219" y="-12.8" font-family="Times,serif" font-size="9.00" fill="#7f7f7f">0.2001</text>
<polygon fill="none" stroke="#7f7f7f" points="128.5,-4 128.5,-46 249.5,-46 249.5,-4 128.5,-4"/>
</g>
<!-- mix&#45;&gt;prev_mix_2 -->
<g id="edge2" class="edge">
<title>mix:s&#45;&gt;prev_mix_2:o01</title>
<path fill="none" stroke="#000000" d="M365,-273C365,-150.3815 207.954,-167.9661 199.3656,-53.015"/>
<polygon fill="#000000" stroke="#000000" points="202.8625,-52.8656 199,-43 195.8672,-53.121 202.8625,-52.8656"/>
</g>
<!-- prev_mix_3 -->
<g id="node4" class="node">
<title>prev_mix_3</title>
<text text-anchor="start" x="289" y="-31.8" font-family="Times,serif" font-size="9.00" fill="#7f7f7f">out</text>
<polygon fill="none" stroke="#7f7f7f" points="305,-25 305,-43 336,-43 336,-25 305,-25"/>
<text text-anchor="start" x="312.5" y="-31.8" font-family="Times,serif" font-size="9.00" fill="#7f7f7f">0.05</text>
<polygon fill="none" stroke="#7f7f7f" points="338,-25 338,-43 369,-43 369,-25 338,-25"/>
<text text-anchor="start" x="345.5" y="-31.8" font-family="Times,serif" font-size="9.00" fill="#7f7f7f">0.05</text>
<polygon fill="#9acd32" stroke="transparent" points="371,-25 371,-43 402,-43 402,-25 371,-25"/>
<polygon fill="none" stroke="#000000" stroke-width="2" points="372,-26 372,-42 401,-42 401,-26 372,-26"/>
<text text-anchor="start" x="378.5" y="-31.8" font-family="Times,serif" font-size="9.00" fill="#000000">0.05</text>
<text text-anchor="start" x="291.5" y="-12.8" font-family="Times,serif" font-size="9.00" fill="#7f7f7f">in</text>
<polygon fill="none" stroke="#7f7f7f" points="305,-7 305,-23 336,-23 336,-7 305,-7"/>
<text text-anchor="start" x="308" y="-12.8" font-family="Times,serif" font-size="9.00" fill="#7f7f7f">0.0501</text>
<polygon fill="none" stroke="#7f7f7f" points="338,-7 338,-23 369,-23 369,-7 338,-7"/>
<text text-anchor="start" x="341" y="-12.8" font-family="Times,serif" font-size="9.00" fill="#7f7f7f">0.0501</text>
<polygon fill="none" stroke="#7f7f7f" points="371,-7 371,-23 402,-23 402,-7 371,-7"/>
<text text-anchor="start" x="374" y="-12.8" font-family="Times,serif" font-size="9.00" fill="#7f7f7f">0.0501</text>
<polygon fill="none" stroke="#7f7f7f" points="283.5,-4 283.5,-46 404.5,-46 404.5,-4 283.5,-4"/>
</g>
<!-- mix&#45;&gt;prev_mix_3 -->
<g id="edge3" class="edge">
<title>mix:s&#45;&gt;prev_mix_3:o01</title>
<path fill="none" stroke="#000000" d="M449,-273C449,-170.6441 391.0488,-150.1801 387.2005,-53.2624"/>
<polygon fill="#000000" stroke="#000000" points="390.6948,-52.9297 387,-43 383.6961,-53.0665 390.6948,-52.9297"/>
</g>
<!-- prev_mix_4 -->
<g id="node5" class="node">
<title>prev_mix_4</title>
<text text-anchor="start" x="444" y="-31.8" font-family="Times,serif" font-size="9.00" fill="#7f7f7f">out</text>
<polygon fill="#9acd32" stroke="transparent" points="460,-25 460,-43 491,-43 491,-25 460,-25"/>
<polygon fill="none" stroke="#000000" stroke-width="2" points="461,-26 461,-42 490,-42 490,-26 461,-26"/>
<text text-anchor="start" x="467.5" y="-31.8" font-family="Times,serif" font-size="9.00" fill="#000000">0.01</text>
<polygon fill="none" stroke="#7f7f7f" points="493,-25 493,-43 524,-43 524,-25 493,-25"/>
<text text-anchor="start" x="500.5" y="-31.8" font-family="Times,serif" font-size="9.00" fill="#7f7f7f">0.01</text>
<polygon fill="none" stroke="#7f7f7f" points="526,-25 526,-43 557,-43 557,-25 526,-25"/>
<text text-anchor="start" x="533.5" y="-31.8" font-family="Times,serif" font-size="9.00" fill="#7f7f7f">0.01</text>
<text text-anchor="start" x="446.5" y="-12.8" font-family="Times,serif" font-size="9.00" fill="#7f7f7f">in</text>
<polygon fill="none" stroke="#7f7f7f" points="460,-7 460,-23 491,-23 491,-7 460,-7"/>
<text text-anchor="start" x="463" y="-12.8" font-family="Times,serif" font-size="9.00" fill="#7f7f7f">0.0101</text>
<polygon fill="none" stroke="#7f7f7f" points="493,-7 493,-23 524,-23 524,-7 493,-7"/>
<text text-anchor="start" x="496" y="-12.8" font-family="Times,serif" font-size="9.00" fill="#7f7f7f">0.0101</text>
<polygon fill="none" stroke="#7f7f7f" points="526,-7 526,-23 557,-23 557,-7 526,-7"/>
<text text-anchor="start" x="529" y="-12.8" font-family="Times,serif" font-size="9.00" fill="#7f7f7f">0.0101</text>
<polygon fill="none" stroke="#7f7f7f" points="438.5,-4 438.5,-46 559.5,-46 559.5,-4 438.5,-4"/>
</g>
<!-- mix&#45;&gt;prev_mix_4 -->
<g id="edge4" class="edge">
<title>mix:s&#45;&gt;prev_mix_4:o01</title>
<path fill="none" stroke="#000000" d="M475,-273C475,-174.2717 475,-147.0587 475,-53.2192"/>
<polygon fill="#000000" stroke="#000000" points="478.5001,-53 475,-43 471.5001,-53 478.5001,-53"/>
</g>
<!-- prev_mix_5 -->
<g id="node6" class="node">
<title>prev_mix_5</title>
<text text-anchor="start" x="599" y="-31.8" font-family="Times,serif" font-size="9.00" fill="#7f7f7f">out</text>
<polygon fill="none" stroke="#7f7f7f" points="615,-25 615,-43 646,-43 646,-25 615,-25"/>
<text text-anchor="start" x="620" y="-31.8" font-family="Times,serif" font-size="9.00" fill="#7f7f7f">0.002</text>
<polygon fill="none" stroke="#7f7f7f" points="648,-25 648,-43 679,-43 679,-25 648,-25"/>
<text text-anchor="start" x="653" y="-31.8" font-family="Times,serif" font-size="9.00" fill="#7f7f7f">0.002</text>
<polygon fill="#9acd32" stroke="transparent" points="681,-25 681,-43 712,-43 712,-25 681,-25"/>
<polygon fill="none" stroke="#000000" stroke-width="2" points="682,-26 682,-42 711,-42 711,-26 682,-26"/>
<text text-anchor="start" x="686" y="-31.8" font-family="Times,serif" font-size="9.00" fill="#000000">0.002</text>
<text text-anchor="start" x="601.5" y="-12.8" font-family="Times,serif" font-size="9.00" fill="#7f7f7f">in</text>
<polygon fill="none" stroke="#7f7f7f" points="615,-7 615,-23 646,-23 646,-7 615,-7"/>
<text text-anchor="start" x="618" y="-12.8" font-family="Times,serif" font-size="9.00" fill="#7f7f7f">0.0021</text>
<polygon fill="none" stroke="#7f7f7f" points="648,-7 648,-23 679,-23 679,-7 648,-7"/>
<text text-anchor="start" x="651" y="-12.8" font-family="Times,serif" font-size="9.00" fill="#7f7f7f">0.0021</text>
<polygon fill="none" stroke="#7f7f7f" points="681,-7 681,-23 712,-23 712,-7 681,-7"/>
<text text-anchor="start" x="684" y="-12.8" font-family="Times,serif" font-size="9.00" fill="#7f7f7f">0.0021</text>
<polygon fill="none" stroke="#7f7f7f" points="593.5,-4 593.5,-46 714.5,-46 714.5,-4 593.5,-4"/>
</g>
<!-- mix&#45;&gt;prev_mix_5 -->
<g id="edge5" class="edge">
<title>mix:s&#45;&gt;prev_mix_5:o01</title>
<path fill="none" stroke="#000000" d="M504,-273C504,-143.0749 686.9564,-174.6168 696.6045,-53.2066"/>
<polygon fill="#000000" stroke="#000000" points="700.1101,-53.128 697,-43 693.1154,-52.857 700.1101,-53.128"/>
</g>
<!-- prev_mix_6 -->
<g id="node7" class="node">
<title>prev_mix_6</title>
<text text-anchor="start" x="754" y="-31.8" font-family="Times,serif" font-size="9.00" fill="#7f7f7f">out</text>
<polygon fill="#9acd32" stroke="transparent" points="770,-25 770,-43 801,-43 801,-25 770,-25"/>
<polygon fill="none" stroke="#000000" stroke-width="2" points="771,-26 771,-42 800,-42 800,-26 771,-26"/>
<text text-anchor="start" x="775" y="-31.8" font-family="Times,serif" font-size="9.00" fill="#000000">0.002</text>
<polygon fill="none" stroke="#7f7f7f" points="803,-25 803,-43 834,-43 834,-25 803,-25"/>
<text text-anchor="start" x="808" y="-31.8" font-family="Times,serif" font-size="9.00" fill="#7f7f7f">0.002</text>
<polygon fill="none" stroke="#7f7f7f" points="836,-25 836,-43 867,-43 867,-25 836,-25"/>
<text text-anchor="start" x="841" y="-31.8" font-family="Times,serif" font-size="9.00" fill="#7f7f7f">0.002</text>
<text text-anchor="start" x="756.5" y="-12.8" font-family="Times,serif" font-size="9.00" fill="#7f7f7f">in</text>
<polygon fill="none" stroke="#7f7f7f" points="770,-7 770,-23 801,-23 801,-7 770,-7"/>
<text text-anchor="start" x="773" y="-12.8" font-family="Times,serif" font-size="9.00" fill="#7f7f7f">0.0021</text>
<polygon fill="none" stroke="#7f7f7f" points="803,-7 803,-23 834,-23 834,-7 803,-7"/>
<text text-anchor="start" x="806" y="-12.8" font-family="Times,serif" font-size="9.00" fill="#7f7f7f">0.0021</text>
<polygon fill="none" stroke="#7f7f7f" points="836,-7 836,-23 867,-23 867,-7 836,-7"/>
<text text-anchor="start" x="839" y="-12.8" font-family="Times,serif" font-size="9.00" fill="#7f7f7f">0.0021</text>
<polygon fill="none" stroke="#7f7f7f" points="748.5,-4 748.5,-46 869.5,-46 869.5,-4 748.5,-4"/>
</g>
<!-- mix&#45;&gt;prev_mix_6 -->
<g id="edge6" class="edge">
<title>mix:s&#45;&gt;prev_mix_6:o01</title>
<path fill="none" stroke="#000000" d="M535,-273C535,-125.5583 773.4186,-190.7296 784.5944,-53.2541"/>
<polygon fill="#000000" stroke="#000000" points="788.102,-53.1305 785,-43 781.1075,-52.8538 788.102,-53.1305"/>
</g>
<!-- prev_mix_7 -->
<g id="node8" class="node">
<title>prev_mix_7</title>
<text text-anchor="start" x="909" y="-31.8" font-family="Times,serif" font-size="9.00" fill="#7f7f7f">out</text>
<polygon fill="none" stroke="#7f7f7f" points="925,-25 925,-43 956,-43 956,-25 925,-25"/>
<text text-anchor="start" x="928" y="-31.8" font-family="Times,serif" font-size="9.00" fill="#7f7f7f">0.0001</text>
<polygon fill="none" stroke="#7f7f7f" points="958,-25 958,-43 989,-43 989,-25 958,-25"/>
<text text-anchor="start" x="961" y="-31.8" font-family="Times,serif" font-size="9.00" fill="#7f7f7f">0.0001</text>
<polygon fill="#9acd32" stroke="transparent" points="991,-25 991,-43 1024,-43 1024,-25 991,-25"/>
<polygon fill="none" stroke="#000000" stroke-width="2" points="992,-26 992,-42 1023,-42 1023,-26 992,-26"/>
<text text-anchor="start" x="995" y="-31.8" font-family="Times,serif" font-size="9.00" fill="#000000">0.0001</text>
<text text-anchor="start" x="911.5" y="-12.8" font-family="Times,serif" font-size="9.00" fill="#7f7f7f">in</text>
<polygon fill="none" stroke="#7f7f7f" points="925,-7 925,-23 956,-23 956,-7 925,-7"/>
<text text-anchor="start" x="928" y="-12.8" font-family="Times,serif" font-size="9.00" fill="#7f7f7f">0.0002</text>
<polygon fill="none" stroke="#7f7f7f" points="958,-7 958,-23 989,-23 989,-7 958,-7"/>
<text text-anchor="start" x="961" y="-12.8" font-family="Times,serif" font-size="9.00" fill="#7f7f7f">0.0002</text>
<polygon fill="none" stroke="#7f7f7f" points="991,-7 991,-23 1024,-23 1024,-7 991,-7"/>
<text text-anchor="start" x="995" y="-12.8" font-family="Times,serif" font-size="9.00" fill="#7f7f7f">0.0002</text>
<polygon fill="none" stroke="#7f7f7f" points="903.5,-4 903.5,-46 1026.5,-46 1026.5,-4 903.5,-4"/>
</g>
<!-- mix&#45;&gt;prev_mix_7 -->
<g id="edge7" class="edge">
<title>mix:s&#45;&gt;prev_mix_7:o01</title>
<path fill="none" stroke="#000000" d="M601,-273C601,-68.675 994.5985,-244.7219 1007.6672,-53.0265"/>
<polygon fill="#000000" stroke="#000000" points="1011.1662,-53.1106 1008,-43 1004.1701,-52.8784 1011.1662,-53.1106"/>
</g>
</g>
</svg>
