<?xml version="1.0" encoding="UTF-8" standalone="no"?>
<!DOCTYPE svg PUBLIC "-//W3C//DTD SVG 1.1//EN"
 "http://www.w3.org/Graphics/SVG/1.1/DTD/svg11.dtd">
<!-- Generated by graphviz version 2.40.1 (20161225.0304)
 -->
<!-- Title: %3 Pages: 1 -->
<svg width="217pt" height="146pt"
 viewBox="0.00 0.00 216.50 146.00" xmlns="http://www.w3.org/2000/svg" xmlns:xlink="http://www.w3.org/1999/xlink">
<g id="graph0" class="graph" transform="scale(1 1) rotate(0) translate(4 142)">
<title>%3</title>
<polygon fill="#ffffff" stroke="transparent" points="-4,4 -4,-142 212.5,-142 212.5,4 -4,4"/>
<!-- mix -->
<g id="node1" class="node">
<title>mix</title>
<text text-anchor="start" x="13.5" y="-119.8" font-family="Times,serif" font-size="9.00" fill="#7f7f7f">out</text>
<polygon fill="none" stroke="#7f7f7f" points="29.5,-113 29.5,-131 62.5,-131 62.5,-113 29.5,-113"/>
<text text-anchor="start" x="40" y="-119.8" font-family="Times,serif" font-size="9.00" fill="#7f7f7f">0.1</text>
<polygon fill="#9acd32" stroke="transparent" points="64.5,-113 64.5,-131 113.5,-131 113.5,-113 64.5,-113"/>
<polygon fill="none" stroke="#000000" stroke-width="2" points="65.5,-114 65.5,-130 112.5,-130 112.5,-114 65.5,-114"/>
<text text-anchor="start" x="83" y="-119.8" font-family="Times,serif" font-size="9.00" fill="#000000">0.1</text>
<polygon fill="none" stroke="#7f7f7f" points="115.5,-113 115.5,-131 146.5,-131 146.5,-113 115.5,-113"/>
<text text-anchor="start" x="125" y="-119.8" font-family="Times,serif" font-size="9.00" fill="#7f7f7f">0.1</text>
<polygon fill="#000000" stroke="transparent" points="148.5,-113 148.5,-131 197.5,-131 197.5,-113 148.5,-113"/>
<polygon fill="none" stroke="#7f7f7f" points="148.5,-113 148.5,-131 197.5,-131 197.5,-113 148.5,-113"/>
<text text-anchor="start" x="151.5" y="-119.8" font-family="Times,serif" font-size="9.00" fill="#7f7f7f">0.00021481</text>
<text text-anchor="start" x="16" y="-99.8" font-family="Times,serif" font-size="9.00" fill="#7f7f7f">in</text>
<polygon fill="#ff7f50" stroke="transparent" points="29.5,-93 29.5,-111 62.5,-111 62.5,-93 29.5,-93"/>
<polygon fill="none" stroke="#000000" stroke-width="2" points="30.5,-94 30.5,-110 61.5,-110 61.5,-94 30.5,-94"/>
<text text-anchor="start" x="33.5" y="-99.8" font-family="Times,serif" font-size="9.00" fill="#000000">0.1002</text>
<polygon fill="none" stroke="#7f7f7f" points="64.5,-93 64.5,-111 113.5,-111 113.5,-93 64.5,-93"/>
<text text-anchor="start" x="67.5" y="-99.8" font-family="Times,serif" font-size="9.00" fill="#7f7f7f">0.10021481</text>
<polygon fill="none" stroke="#7f7f7f" points="115.5,-93 115.5,-111 146.5,-111 146.5,-93 115.5,-93"/>
<text text-anchor="start" x="118.5" y="-99.8" font-family="Times,serif" font-size="9.00" fill="#7f7f7f">0.1001</text>
<polygon fill="none" stroke="#7f7f7f" points="8.5,-90 8.5,-134 200.5,-134 200.5,-90 8.5,-90"/>
</g>
<!-- receive -->
<g id="node2" class="node">
<title>receive</title>
<text text-anchor="start" x="13.5" y="-31.8" font-family="Times,serif" font-size="9.00" fill="#7f7f7f">out</text>
<polygon fill="#ff7f50" stroke="transparent" points="29.5,-25 29.5,-43 62.5,-43 62.5,-25 29.5,-25"/>
<polygon fill="none" stroke="#000000" stroke-width="2" points="30.5,-26 30.5,-42 61.5,-42 61.5,-26 30.5,-26"/>
<text text-anchor="start" x="33.5" y="-31.8" font-family="Times,serif" font-size="9.00" fill="#000000">0.1002</text>
<polygon fill="none" stroke="#7f7f7f" points="64.5,-25 64.5,-43 100.5,-43 100.5,-25 64.5,-25"/>
<text text-anchor="start" x="67.5" y="-31.8" font-family="Times,serif" font-size="9.00" fill="#7f7f7f">0.04975</text>
<text text-anchor="start" x="16" y="-12.8" font-family="Times,serif" font-size="9.00" fill="#7f7f7f">in</text>
<polygon fill="none" stroke="#7f7f7f" points="29.5,-7 29.5,-23 100.5,-23 100.5,-7 29.5,-7"/>
<text text-anchor="start" x="57" y="-12.8" font-family="Times,serif" font-size="9.00" fill="#7f7f7f">0.15</text>
<polygon fill="none" stroke="#7f7f7f" points="8,-4 8,-46 103,-46 103,-4 8,-4"/>
</g>
<!-- mix&#45;&gt;receive -->
<g id="edge1" class="edge">
<title>mix:i01&#45;&gt;receive:o01</title>
<path fill="none" stroke="#000000" d="M45.5,-93C45.5,-74.5972 45.5,-67.6243 45.5,-53.1505"/>
<polygon fill="#000000" stroke="#000000" points="49.0001,-53 45.5,-43 42.0001,-53 49.0001,-53"/>
</g>
</g>
</svg>
