<?xml version="1.0" encoding="UTF-8" standalone="no"?>
<!DOCTYPE svg PUBLIC "-//W3C//DTD SVG 1.1//EN"
 "http://www.w3.org/Graphics/SVG/1.1/DTD/svg11.dtd">
<!-- Generated by graphviz version 2.40.1 (20161225.0304)
 -->
<!-- Title: %3 Pages: 1 -->
<svg width="731pt" height="182pt"
 viewBox="0.00 0.00 730.50 182.00" xmlns="http://www.w3.org/2000/svg" xmlns:xlink="http://www.w3.org/1999/xlink">
<g id="graph0" class="graph" transform="scale(1 1) rotate(0) translate(4 178)">
<title>%3</title>
<polygon fill="#ffffff" stroke="transparent" points="-4,4 -4,-178 726.5,-178 726.5,4 -4,4"/>
<!-- mix -->
<g id="node1" class="node">
<title>mix</title>
<text text-anchor="start" x="180" y="-155.8" font-family="Times,serif" font-size="9.00" fill="#7f7f7f">out</text>
<polygon fill="none" stroke="#7f7f7f" points="196,-149 196,-167 227,-167 227,-149 196,-149"/>
<text text-anchor="start" x="205.5" y="-155.8" font-family="Times,serif" font-size="9.00" fill="#7f7f7f">1.0</text>
<polygon fill="none" stroke="#7f7f7f" points="229,-149 229,-167 258,-167 258,-149 229,-149"/>
<text text-anchor="start" x="237.5" y="-155.8" font-family="Times,serif" font-size="9.00" fill="#7f7f7f">1.0</text>
<polygon fill="#9acd32" stroke="transparent" points="260,-149 260,-167 280,-167 280,-149 260,-149"/>
<polygon fill="none" stroke="#000000" stroke-width="2" points="261,-150 261,-166 279,-166 279,-150 261,-150"/>
<text text-anchor="start" x="264" y="-155.8" font-family="Times,serif" font-size="9.00" fill="#000000">1.0</text>
<polygon fill="#000000" stroke="transparent" stroke-width="2" points="282,-149 282,-167 313,-167 313,-149 282,-149"/>
<polygon fill="none" stroke="#7f7f7f" points="282,-149 282,-167 313,-167 313,-149 282,-149"/>
<text text-anchor="start" x="285" y="-155.8" font-family="Times,serif" font-size="9.00" fill="#7f7f7f">0.0009</text>
<text text-anchor="start" x="182.5" y="-135.8" font-family="Times,serif" font-size="9.00" fill="#7f7f7f">in</text>
<polygon fill="none" stroke="#7f7f7f" points="196,-129 196,-147 227,-147 227,-129 196,-129"/>
<text text-anchor="start" x="199" y="-135.8" font-family="Times,serif" font-size="9.00" fill="#7f7f7f">1.0001</text>
<polygon fill="#ff7f50" stroke="transparent" points="229,-129 229,-147 258,-147 258,-129 229,-129"/>
<polygon fill="none" stroke="#000000" stroke-width="2" points="230,-130 230,-146 257,-146 257,-130 230,-130"/>
<text text-anchor="start" x="233" y="-135.8" font-family="Times,serif" font-size="9.00" fill="#000000">0.736</text>
<polygon fill="none" stroke="#7f7f7f" points="260,-129 260,-147 280,-147 280,-129 260,-129"/>
<text text-anchor="start" x="264" y="-135.8" font-family="Times,serif" font-size="9.00" fill="#7f7f7f">0.5</text>
<polygon fill="#ffd700" stroke="transparent" points="282,-129 282,-147 313,-147 313,-129 282,-129"/>
<polygon fill="none" stroke="#000000" stroke-width="2" points="283,-130 283,-146 312,-146 312,-130 283,-130"/>
<text text-anchor="start" x="291.5" y="-135.8" font-family="Times,serif" font-size="9.00" fill="#000000">0.2</text>
<polygon fill="none" stroke="#7f7f7f" points="315,-129 315,-147 333,-147 333,-129 315,-129"/>
<text text-anchor="start" x="318" y="-135.8" font-family="Times,serif" font-size="9.00" fill="#7f7f7f">0.2</text>
<polygon fill="none" stroke="#7f7f7f" points="335,-129 335,-147 353,-147 353,-129 335,-129"/>
<text text-anchor="start" x="338" y="-135.8" font-family="Times,serif" font-size="9.00" fill="#7f7f7f">0.2</text>
<polygon fill="none" stroke="#7f7f7f" points="355,-129 355,-147 373,-147 373,-129 355,-129"/>
<text text-anchor="start" x="358" y="-135.8" font-family="Times,serif" font-size="9.00" fill="#7f7f7f">0.1</text>
<polygon fill="#ff7f50" stroke="transparent" points="375,-129 375,-147 399,-147 399,-129 375,-129"/>
<polygon fill="none" stroke="#000000" stroke-width="2" points="376,-130 376,-146 398,-146 398,-130 376,-130"/>
<text text-anchor="start" x="379" y="-135.8" font-family="Times,serif" font-size="9.00" fill="#000000">0.05</text>
<polygon fill="#ff7f50" stroke="transparent" stroke-width="2" points="401,-129 401,-147 425,-147 425,-129 401,-129"/>
<polygon fill="none" stroke="#000000" stroke-width="2" points="402,-130 402,-146 424,-146 424,-130 402,-130"/>
<text text-anchor="start" x="405" y="-135.8" font-family="Times,serif" font-size="9.00" fill="#000000">0.01</text>
<polygon fill="#ff7f50" stroke="transparent" stroke-width="2" points="427,-129 427,-147 456,-147 456,-129 427,-129"/>
<polygon fill="none" stroke="#000000" stroke-width="2" points="428,-130 428,-146 455,-146 455,-130 428,-130"/>
<text text-anchor="start" x="431" y="-135.8" font-family="Times,serif" font-size="9.00" fill="#000000">0.005</text>
<polygon fill="none" stroke="#7f7f7f" points="458,-129 458,-147 489,-147 489,-129 458,-129"/>
<text text-anchor="start" x="461" y="-135.8" font-family="Times,serif" font-size="9.00" fill="#7f7f7f">0.0001</text>
<polygon fill="none" stroke="#7f7f7f" points="174.5,-126 174.5,-170 491.5,-170 491.5,-126 174.5,-126"/>
</g>
<!-- receive -->
<g id="node2" class="node">
<title>receive</title>
<text text-anchor="start" x="13" y="-31.8" font-family="Times,serif" font-size="9.00" fill="#7f7f7f">out</text>
<polygon fill="#ff7f50" stroke="transparent" points="29,-25 29,-43 58,-43 58,-25 29,-25"/>
<polygon fill="none" stroke="#000000" stroke-width="2" points="30,-26 30,-42 57,-42 57,-26 30,-26"/>
<text text-anchor="start" x="33" y="-31.8" font-family="Times,serif" font-size="9.00" fill="#000000">0.736</text>
<polygon fill="none" stroke="#7f7f7f" points="60,-25 60,-43 91,-43 91,-25 60,-25"/>
<text text-anchor="start" x="63" y="-31.8" font-family="Times,serif" font-size="9.00" fill="#7f7f7f">0.0635</text>
<text text-anchor="start" x="15.5" y="-12.8" font-family="Times,serif" font-size="9.00" fill="#7f7f7f">in</text>
<polygon fill="none" stroke="#7f7f7f" points="29,-7 29,-23 91,-23 91,-7 29,-7"/>
<text text-anchor="start" x="54" y="-12.8" font-family="Times,serif" font-size="9.00" fill="#7f7f7f">0.8</text>
<polygon fill="none" stroke="#7f7f7f" points="8,-4 8,-46 94,-46 94,-4 8,-4"/>
</g>
<!-- mix&#45;&gt;receive -->
<g id="edge1" class="edge">
<title>mix:s&#45;&gt;receive:o01</title>
<path fill="none" stroke="#000000" d="M243,-129C243,-36.0213 58.3198,-131.6703 43.8917,-53.4281"/>
<polygon fill="#000000" stroke="#000000" points="47.3393,-52.6654 43,-43 40.3648,-53.2619 47.3393,-52.6654"/>
</g>
<!-- prev_mix_2 -->
<g id="node3" class="node">
<title>prev_mix_2</title>
<text text-anchor="start" x="134" y="-31.8" font-family="Times,serif" font-size="9.00" fill="#7f7f7f">out</text>
<polygon fill="none" stroke="#7f7f7f" points="150,-25 150,-43 181,-43 181,-25 150,-25"/>
<text text-anchor="start" x="159.5" y="-31.8" font-family="Times,serif" font-size="9.00" fill="#7f7f7f">0.2</text>
<polygon fill="#9acd32" stroke="transparent" points="183,-25 183,-43 214,-43 214,-25 183,-25"/>
<polygon fill="none" stroke="#000000" stroke-width="2" points="184,-26 184,-42 213,-42 213,-26 184,-26"/>
<text text-anchor="start" x="192.5" y="-31.8" font-family="Times,serif" font-size="9.00" fill="#000000">0.2</text>
<polygon fill="none" stroke="#7f7f7f" points="216,-25 216,-43 247,-43 247,-25 216,-25"/>
<text text-anchor="start" x="225.5" y="-31.8" font-family="Times,serif" font-size="9.00" fill="#7f7f7f">0.2</text>
<text text-anchor="start" x="136.5" y="-12.8" font-family="Times,serif" font-size="9.00" fill="#7f7f7f">in</text>
<polygon fill="none" stroke="#7f7f7f" points="150,-7 150,-23 181,-23 181,-7 150,-7"/>
<text text-anchor="start" x="153" y="-12.8" font-family="Times,serif" font-size="9.00" fill="#7f7f7f">0.2001</text>
<polygon fill="none" stroke="#7f7f7f" points="183,-7 183,-23 214,-23 214,-7 183,-7"/>
<text text-anchor="start" x="186" y="-12.8" font-family="Times,serif" font-size="9.00" fill="#7f7f7f">0.2001</text>
<polygon fill="none" stroke="#7f7f7f" points="216,-7 216,-23 247,-23 247,-7 216,-7"/>
<text text-anchor="start" x="219" y="-12.8" font-family="Times,serif" font-size="9.00" fill="#7f7f7f">0.2001</text>
<polygon fill="none" stroke="#7f7f7f" points="128.5,-4 128.5,-46 249.5,-46 249.5,-4 128.5,-4"/>
</g>
<!-- mix&#45;&gt;prev_mix_2 -->
<g id="edge2" class="edge">
<title>mix:s&#45;&gt;prev_mix_2:o01</title>
<path fill="none" stroke="#000000" d="M297,-129C297,-74.7865 211.2257,-97.4595 200.1689,-53.1571"/>
<polygon fill="#000000" stroke="#000000" points="203.6204,-52.5343 199,-43 196.6663,-53.3346 203.6204,-52.5343"/>
</g>
<!-- prev_mix_3 -->
<g id="node4" class="node">
<title>prev_mix_3</title>
<text text-anchor="start" x="289" y="-31.8" font-family="Times,serif" font-size="9.00" fill="#7f7f7f">out</text>
<polygon fill="none" stroke="#7f7f7f" points="305,-25 305,-43 336,-43 336,-25 305,-25"/>
<text text-anchor="start" x="312.5" y="-31.8" font-family="Times,serif" font-size="9.00" fill="#7f7f7f">0.05</text>
<polygon fill="none" stroke="#7f7f7f" points="338,-25 338,-43 369,-43 369,-25 338,-25"/>
<text text-anchor="start" x="345.5" y="-31.8" font-family="Times,serif" font-size="9.00" fill="#7f7f7f">0.05</text>
<polygon fill="#9acd32" stroke="transparent" points="371,-25 371,-43 402,-43 402,-25 371,-25"/>
<polygon fill="none" stroke="#000000" stroke-width="2" points="372,-26 372,-42 401,-42 401,-26 372,-26"/>
<text text-anchor="start" x="378.5" y="-31.8" font-family="Times,serif" font-size="9.00" fill="#000000">0.05</text>
<text text-anchor="start" x="291.5" y="-12.8" font-family="Times,serif" font-size="9.00" fill="#7f7f7f">in</text>
<polygon fill="none" stroke="#7f7f7f" points="305,-7 305,-23 336,-23 336,-7 305,-7"/>
<text text-anchor="start" x="308" y="-12.8" font-family="Times,serif" font-size="9.00" fill="#7f7f7f">0.0501</text>
<polygon fill="none" stroke="#7f7f7f" points="338,-7 338,-23 369,-23 369,-7 338,-7"/>
<text text-anchor="start" x="341" y="-12.8" font-family="Times,serif" font-size="9.00" fill="#7f7f7f">0.0501</text>
<polygon fill="none" stroke="#7f7f7f" points="371,-7 371,-23 402,-23 402,-7 371,-7"/>
<text text-anchor="start" x="374" y="-12.8" font-family="Times,serif" font-size="9.00" fill="#7f7f7f">0.0501</text>
<polygon fill="none" stroke="#7f7f7f" points="283.5,-4 283.5,-46 404.5,-46 404.5,-4 283.5,-4"/>
</g>
<!-- mix&#45;&gt;prev_mix_3 -->
<g id="edge3" class="edge">
<title>mix:s&#45;&gt;prev_mix_3:o01</title>
<path fill="none" stroke="#000000" d="M387,-129C387,-94.3611 387,-83.2658 387,-53.0414"/>
<polygon fill="#000000" stroke="#000000" points="390.5001,-53 387,-43 383.5001,-53 390.5001,-53"/>
</g>
<!-- prev_mix_4 -->
<g id="node5" class="node">
<title>prev_mix_4</title>
<text text-anchor="start" x="444" y="-31.8" font-family="Times,serif" font-size="9.00" fill="#7f7f7f">out</text>
<polygon fill="#9acd32" stroke="transparent" points="460,-25 460,-43 491,-43 491,-25 460,-25"/>
<polygon fill="none" stroke="#000000" stroke-width="2" points="461,-26 461,-42 490,-42 490,-26 461,-26"/>
<text text-anchor="start" x="467.5" y="-31.8" font-family="Times,serif" font-size="9.00" fill="#000000">0.01</text>
<polygon fill="none" stroke="#7f7f7f" points="493,-25 493,-43 524,-43 524,-25 493,-25"/>
<text text-anchor="start" x="500.5" y="-31.8" font-family="Times,serif" font-size="9.00" fill="#7f7f7f">0.01</text>
<polygon fill="none" stroke="#7f7f7f" points="526,-25 526,-43 557,-43 557,-25 526,-25"/>
<text text-anchor="start" x="533.5" y="-31.8" font-family="Times,serif" font-size="9.00" fill="#7f7f7f">0.01</text>
<text text-anchor="start" x="446.5" y="-12.8" font-family="Times,serif" font-size="9.00" fill="#7f7f7f">in</text>
<polygon fill="none" stroke="#7f7f7f" points="460,-7 460,-23 491,-23 491,-7 460,-7"/>
<text text-anchor="start" x="463" y="-12.8" font-family="Times,serif" font-size="9.00" fill="#7f7f7f">0.0101</text>
<polygon fill="none" stroke="#7f7f7f" points="493,-7 493,-23 524,-23 524,-7 493,-7"/>
<text text-anchor="start" x="496" y="-12.8" font-family="Times,serif" font-size="9.00" fill="#7f7f7f">0.0101</text>
<polygon fill="none" stroke="#7f7f7f" points="526,-7 526,-23 557,-23 557,-7 526,-7"/>
<text text-anchor="start" x="529" y="-12.8" font-family="Times,serif" font-size="9.00" fill="#7f7f7f">0.0101</text>
<polygon fill="none" stroke="#7f7f7f" points="438.5,-4 438.5,-46 559.5,-46 559.5,-4 438.5,-4"/>
</g>
<!-- mix&#45;&gt;prev_mix_4 -->
<g id="edge4" class="edge">
<title>mix:s&#45;&gt;prev_mix_4:o01</title>
<path fill="none" stroke="#000000" d="M413,-129C413,-85.5617 465.6909,-89.17 473.9239,-53.0828"/>
<polygon fill="#000000" stroke="#000000" points="477.4189,-53.315 475,-43 470.4584,-52.5721 477.4189,-53.315"/>
</g>
<!-- prev_mix_5 -->
<g id="node6" class="node">
<title>prev_mix_5</title>
<text text-anchor="start" x="599" y="-31.8" font-family="Times,serif" font-size="9.00" fill="#7f7f7f">out</text>
<polygon fill="#9acd32" stroke="transparent" points="615,-25 615,-43 646,-43 646,-25 615,-25"/>
<polygon fill="none" stroke="#000000" stroke-width="2" points="616,-26 616,-42 645,-42 645,-26 616,-26"/>
<text text-anchor="start" x="620" y="-31.8" font-family="Times,serif" font-size="9.00" fill="#000000">0.005</text>
<polygon fill="none" stroke="#7f7f7f" points="648,-25 648,-43 679,-43 679,-25 648,-25"/>
<text text-anchor="start" x="653" y="-31.8" font-family="Times,serif" font-size="9.00" fill="#7f7f7f">0.005</text>
<polygon fill="none" stroke="#7f7f7f" points="681,-25 681,-43 712,-43 712,-25 681,-25"/>
<text text-anchor="start" x="686" y="-31.8" font-family="Times,serif" font-size="9.00" fill="#7f7f7f">0.005</text>
<text text-anchor="start" x="601.5" y="-12.8" font-family="Times,serif" font-size="9.00" fill="#7f7f7f">in</text>
<polygon fill="none" stroke="#7f7f7f" points="615,-7 615,-23 646,-23 646,-7 615,-7"/>
<text text-anchor="start" x="618" y="-12.8" font-family="Times,serif" font-size="9.00" fill="#7f7f7f">0.0051</text>
<polygon fill="none" stroke="#7f7f7f" points="648,-7 648,-23 679,-23 679,-7 648,-7"/>
<text text-anchor="start" x="651" y="-12.8" font-family="Times,serif" font-size="9.00" fill="#7f7f7f">0.0051</text>
<polygon fill="none" stroke="#7f7f7f" points="681,-7 681,-23 712,-23 712,-7 681,-7"/>
<text text-anchor="start" x="684" y="-12.8" font-family="Times,serif" font-size="9.00" fill="#7f7f7f">0.0051</text>
<polygon fill="none" stroke="#7f7f7f" points="593.5,-4 593.5,-46 714.5,-46 714.5,-4 593.5,-4"/>
</g>
<!-- mix&#45;&gt;prev_mix_5 -->
<g id="edge5" class="edge">
<title>mix:s&#45;&gt;prev_mix_5:o01</title>
<path fill="none" stroke="#000000" d="M442,-129C442,-40.8857 614.8944,-127.1821 629.0771,-53.3749"/>
<polygon fill="#000000" stroke="#000000" points="632.6001,-53.2708 630,-43 625.6277,-52.6505 632.6001,-53.2708"/>
</g>
</g>
</svg>
