<?xml version="1.0" encoding="UTF-8" standalone="no"?>
<!DOCTYPE svg PUBLIC "-//W3C//DTD SVG 1.1//EN"
 "http://www.w3.org/Graphics/SVG/1.1/DTD/svg11.dtd">
<!-- Generated by graphviz version 2.40.1 (20161225.0304)
 -->
<!-- Title: %3 Pages: 1 -->
<svg width="886pt" height="254pt"
 viewBox="0.00 0.00 885.50 254.00" xmlns="http://www.w3.org/2000/svg" xmlns:xlink="http://www.w3.org/1999/xlink">
<g id="graph0" class="graph" transform="scale(1 1) rotate(0) translate(4 250)">
<title>%3</title>
<polygon fill="#ffffff" stroke="transparent" points="-4,4 -4,-250 881.5,-250 881.5,4 -4,4"/>
<!-- mix -->
<g id="node1" class="node">
<title>mix</title>
<text text-anchor="start" x="252" y="-227.8" font-family="Times,serif" font-size="9.00" fill="#7f7f7f">out</text>
<polygon fill="none" stroke="#7f7f7f" points="268,-221 268,-239 286,-239 286,-221 268,-221"/>
<text text-anchor="start" x="271" y="-227.8" font-family="Times,serif" font-size="9.00" fill="#7f7f7f">1.0</text>
<polygon fill="none" stroke="#7f7f7f" points="288,-221 288,-239 317,-239 317,-221 288,-221"/>
<text text-anchor="start" x="296.5" y="-227.8" font-family="Times,serif" font-size="9.00" fill="#7f7f7f">1.0</text>
<polygon fill="#9acd32" stroke="transparent" points="319,-221 319,-239 339,-239 339,-221 319,-221"/>
<polygon fill="none" stroke="#000000" stroke-width="2" points="320,-222 320,-238 338,-238 338,-222 320,-222"/>
<text text-anchor="start" x="323" y="-227.8" font-family="Times,serif" font-size="9.00" fill="#000000">1.0</text>
<text text-anchor="start" x="254.5" y="-207.8" font-family="Times,serif" font-size="9.00" fill="#7f7f7f">in</text>
<polygon fill="none" stroke="#7f7f7f" points="268,-201 268,-219 286,-219 286,-201 268,-201"/>
<text text-anchor="start" x="271" y="-207.8" font-family="Times,serif" font-size="9.00" fill="#7f7f7f">1.0</text>
<polygon fill="#ff7f50" stroke="transparent" points="288,-201 288,-219 317,-219 317,-201 288,-201"/>
<polygon fill="none" stroke="#000000" stroke-width="2" points="289,-202 289,-218 316,-218 316,-202 289,-202"/>
<text text-anchor="start" x="292" y="-207.8" font-family="Times,serif" font-size="9.00" fill="#000000">0.736</text>
<polygon fill="none" stroke="#7f7f7f" points="319,-201 319,-219 339,-219 339,-201 319,-201"/>
<text text-anchor="start" x="323" y="-207.8" font-family="Times,serif" font-size="9.00" fill="#7f7f7f">0.5</text>
<polygon fill="#ffd700" stroke="transparent" points="341,-201 341,-219 361,-219 361,-201 341,-201"/>
<polygon fill="none" stroke="#000000" stroke-width="2" points="342,-202 342,-218 360,-218 360,-202 342,-202"/>
<text text-anchor="start" x="345" y="-207.8" font-family="Times,serif" font-size="9.00" fill="#000000">0.2</text>
<polygon fill="none" stroke="#7f7f7f" points="363,-201 363,-219 381,-219 381,-201 363,-201"/>
<text text-anchor="start" x="366" y="-207.8" font-family="Times,serif" font-size="9.00" fill="#7f7f7f">0.2</text>
<polygon fill="none" stroke="#7f7f7f" points="383,-201 383,-219 401,-219 401,-201 383,-201"/>
<text text-anchor="start" x="386" y="-207.8" font-family="Times,serif" font-size="9.00" fill="#7f7f7f">0.2</text>
<polygon fill="none" stroke="#7f7f7f" points="403,-201 403,-219 421,-219 421,-201 403,-201"/>
<text text-anchor="start" x="406" y="-207.8" font-family="Times,serif" font-size="9.00" fill="#7f7f7f">0.1</text>
<polygon fill="#ff7f50" stroke="transparent" points="423,-201 423,-219 447,-219 447,-201 423,-201"/>
<polygon fill="none" stroke="#000000" stroke-width="2" points="424,-202 424,-218 446,-218 446,-202 424,-202"/>
<text text-anchor="start" x="427" y="-207.8" font-family="Times,serif" font-size="9.00" fill="#000000">0.05</text>
<polygon fill="#ff7f50" stroke="transparent" stroke-width="2" points="449,-201 449,-219 473,-219 473,-201 449,-201"/>
<polygon fill="none" stroke="#000000" stroke-width="2" points="450,-202 450,-218 472,-218 472,-202 450,-202"/>
<text text-anchor="start" x="453" y="-207.8" font-family="Times,serif" font-size="9.00" fill="#000000">0.01</text>
<polygon fill="#ff7f50" stroke="transparent" stroke-width="2" points="475,-201 475,-219 504,-219 504,-201 475,-201"/>
<polygon fill="none" stroke="#000000" stroke-width="2" points="476,-202 476,-218 503,-218 503,-202 476,-202"/>
<text text-anchor="start" x="479" y="-207.8" font-family="Times,serif" font-size="9.00" fill="#000000">0.002</text>
<polygon fill="#ff7f50" stroke="transparent" stroke-width="2" points="506,-201 506,-219 535,-219 535,-201 506,-201"/>
<polygon fill="none" stroke="#000000" stroke-width="2" points="507,-202 507,-218 534,-218 534,-202 507,-202"/>
<text text-anchor="start" x="510" y="-207.8" font-family="Times,serif" font-size="9.00" fill="#000000">0.002</text>
<polygon fill="#000000" stroke="transparent" stroke-width="2" points="537,-201 537,-219 568,-219 568,-201 537,-201"/>
<polygon fill="none" stroke="#7f7f7f" points="537,-201 537,-219 568,-219 568,-201 537,-201"/>
<text text-anchor="start" x="540" y="-207.8" font-family="Times,serif" font-size="9.00" fill="#7f7f7f">0.0003</text>
<polygon fill="none" stroke="#7f7f7f" points="247,-198 247,-242 571,-242 571,-198 247,-198"/>
</g>
<!-- receive -->
<g id="node2" class="node">
<title>receive</title>
<text text-anchor="start" x="13" y="-31.8" font-family="Times,serif" font-size="9.00" fill="#7f7f7f">out</text>
<polygon fill="#ff7f50" stroke="transparent" points="29,-25 29,-43 58,-43 58,-25 29,-25"/>
<polygon fill="none" stroke="#000000" stroke-width="2" points="30,-26 30,-42 57,-42 57,-26 30,-26"/>
<text text-anchor="start" x="33" y="-31.8" font-family="Times,serif" font-size="9.00" fill="#000000">0.736</text>
<polygon fill="none" stroke="#7f7f7f" points="60,-25 60,-43 91,-43 91,-25 60,-25"/>
<text text-anchor="start" x="63" y="-31.8" font-family="Times,serif" font-size="9.00" fill="#7f7f7f">0.0635</text>
<text text-anchor="start" x="15.5" y="-12.8" font-family="Times,serif" font-size="9.00" fill="#7f7f7f">in</text>
<polygon fill="none" stroke="#7f7f7f" points="29,-7 29,-23 91,-23 91,-7 29,-7"/>
<text text-anchor="start" x="54" y="-12.8" font-family="Times,serif" font-size="9.00" fill="#7f7f7f">0.8</text>
<polygon fill="none" stroke="#7f7f7f" points="8,-4 8,-46 94,-46 94,-4 8,-4"/>
</g>
<!-- mix&#45;&gt;receive -->
<g id="edge1" class="edge">
<title>mix:s&#45;&gt;receive:o01</title>
<path fill="none" stroke="#000000" d="M302,-201C302,-69.7157 56.4781,-172.1217 43.5307,-53.1609"/>
<polygon fill="#000000" stroke="#000000" points="47.0169,-52.8038 43,-43 40.0264,-53.169 47.0169,-52.8038"/>
</g>
<!-- prev_mix_2 -->
<g id="node3" class="node">
<title>prev_mix_2</title>
<text text-anchor="start" x="134" y="-31.8" font-family="Times,serif" font-size="9.00" fill="#7f7f7f">out</text>
<polygon fill="none" stroke="#7f7f7f" points="150,-25 150,-43 181,-43 181,-25 150,-25"/>
<text text-anchor="start" x="159.5" y="-31.8" font-family="Times,serif" font-size="9.00" fill="#7f7f7f">0.2</text>
<polygon fill="#9acd32" stroke="transparent" points="183,-25 183,-43 214,-43 214,-25 183,-25"/>
<polygon fill="none" stroke="#000000" stroke-width="2" points="184,-26 184,-42 213,-42 213,-26 184,-26"/>
<text text-anchor="start" x="192.5" y="-31.8" font-family="Times,serif" font-size="9.00" fill="#000000">0.2</text>
<polygon fill="none" stroke="#7f7f7f" points="216,-25 216,-43 247,-43 247,-25 216,-25"/>
<text text-anchor="start" x="225.5" y="-31.8" font-family="Times,serif" font-size="9.00" fill="#7f7f7f">0.2</text>
<text text-anchor="start" x="136.5" y="-12.8" font-family="Times,serif" font-size="9.00" fill="#7f7f7f">in</text>
<polygon fill="none" stroke="#7f7f7f" points="150,-7 150,-23 181,-23 181,-7 150,-7"/>
<text text-anchor="start" x="153" y="-12.8" font-family="Times,serif" font-size="9.00" fill="#7f7f7f">0.2001</text>
<polygon fill="none" stroke="#7f7f7f" points="183,-7 183,-23 214,-23 214,-7 183,-7"/>
<text text-anchor="start" x="186" y="-12.8" font-family="Times,serif" font-size="9.00" fill="#7f7f7f">0.2001</text>
<polygon fill="none" stroke="#7f7f7f" points="216,-7 216,-23 247,-23 247,-7 216,-7"/>
<text text-anchor="start" x="219" y="-12.8" font-family="Times,serif" font-size="9.00" fill="#7f7f7f">0.2001</text>
<polygon fill="none" stroke="#7f7f7f" points="128.5,-4 128.5,-46 249.5,-46 249.5,-4 128.5,-4"/>
</g>
<!-- mix&#45;&gt;prev_mix_2 -->
<g id="edge2" class="edge">
<title>mix:s&#45;&gt;prev_mix_2:o01</title>
<path fill="none" stroke="#000000" d="M351,-201C351,-107.079 209.7859,-137.9518 199.581,-53.0491"/>
<polygon fill="#000000" stroke="#000000" points="203.0715,-52.7813 199,-43 196.0831,-53.1854 203.0715,-52.7813"/>
</g>
<!-- prev_mix_3 -->
<g id="node4" class="node">
<title>prev_mix_3</title>
<text text-anchor="start" x="289" y="-31.8" font-family="Times,serif" font-size="9.00" fill="#7f7f7f">out</text>
<polygon fill="none" stroke="#7f7f7f" points="305,-25 305,-43 336,-43 336,-25 305,-25"/>
<text text-anchor="start" x="312.5" y="-31.8" font-family="Times,serif" font-size="9.00" fill="#7f7f7f">0.05</text>
<polygon fill="none" stroke="#7f7f7f" points="338,-25 338,-43 369,-43 369,-25 338,-25"/>
<text text-anchor="start" x="345.5" y="-31.8" font-family="Times,serif" font-size="9.00" fill="#7f7f7f">0.05</text>
<polygon fill="#9acd32" stroke="transparent" points="371,-25 371,-43 402,-43 402,-25 371,-25"/>
<polygon fill="none" stroke="#000000" stroke-width="2" points="372,-26 372,-42 401,-42 401,-26 372,-26"/>
<text text-anchor="start" x="378.5" y="-31.8" font-family="Times,serif" font-size="9.00" fill="#000000">0.05</text>
<text text-anchor="start" x="291.5" y="-12.8" font-family="Times,serif" font-size="9.00" fill="#7f7f7f">in</text>
<polygon fill="none" stroke="#7f7f7f" points="305,-7 305,-23 336,-23 336,-7 305,-7"/>
<text text-anchor="start" x="308" y="-12.8" font-family="Times,serif" font-size="9.00" fill="#7f7f7f">0.0501</text>
<polygon fill="none" stroke="#7f7f7f" points="338,-7 338,-23 369,-23 369,-7 338,-7"/>
<text text-anchor="start" x="341" y="-12.8" font-family="Times,serif" font-size="9.00" fill="#7f7f7f">0.0501</text>
<polygon fill="none" stroke="#7f7f7f" points="371,-7 371,-23 402,-23 402,-7 371,-7"/>
<text text-anchor="start" x="374" y="-12.8" font-family="Times,serif" font-size="9.00" fill="#7f7f7f">0.0501</text>
<polygon fill="none" stroke="#7f7f7f" points="283.5,-4 283.5,-46 404.5,-46 404.5,-4 283.5,-4"/>
</g>
<!-- mix&#45;&gt;prev_mix_3 -->
<g id="edge3" class="edge">
<title>mix:s&#45;&gt;prev_mix_3:o01</title>
<path fill="none" stroke="#000000" d="M435,-201C435,-131.1923 391.5731,-117.6349 387.3321,-53.3204"/>
<polygon fill="#000000" stroke="#000000" points="390.8199,-52.8822 387,-43 383.8236,-53.1074 390.8199,-52.8822"/>
</g>
<!-- prev_mix_4 -->
<g id="node5" class="node">
<title>prev_mix_4</title>
<text text-anchor="start" x="444" y="-31.8" font-family="Times,serif" font-size="9.00" fill="#7f7f7f">out</text>
<polygon fill="none" stroke="#7f7f7f" points="460,-25 460,-43 491,-43 491,-25 460,-25"/>
<text text-anchor="start" x="467.5" y="-31.8" font-family="Times,serif" font-size="9.00" fill="#7f7f7f">0.01</text>
<polygon fill="#9acd32" stroke="transparent" points="493,-25 493,-43 524,-43 524,-25 493,-25"/>
<polygon fill="none" stroke="#000000" stroke-width="2" points="494,-26 494,-42 523,-42 523,-26 494,-26"/>
<text text-anchor="start" x="500.5" y="-31.8" font-family="Times,serif" font-size="9.00" fill="#000000">0.01</text>
<polygon fill="none" stroke="#7f7f7f" points="526,-25 526,-43 557,-43 557,-25 526,-25"/>
<text text-anchor="start" x="533.5" y="-31.8" font-family="Times,serif" font-size="9.00" fill="#7f7f7f">0.01</text>
<text text-anchor="start" x="446.5" y="-12.8" font-family="Times,serif" font-size="9.00" fill="#7f7f7f">in</text>
<polygon fill="none" stroke="#7f7f7f" points="460,-7 460,-23 491,-23 491,-7 460,-7"/>
<text text-anchor="start" x="463" y="-12.8" font-family="Times,serif" font-size="9.00" fill="#7f7f7f">0.0101</text>
<polygon fill="none" stroke="#7f7f7f" points="493,-7 493,-23 524,-23 524,-7 493,-7"/>
<text text-anchor="start" x="496" y="-12.8" font-family="Times,serif" font-size="9.00" fill="#7f7f7f">0.0101</text>
<polygon fill="none" stroke="#7f7f7f" points="526,-7 526,-23 557,-23 557,-7 526,-7"/>
<text text-anchor="start" x="529" y="-12.8" font-family="Times,serif" font-size="9.00" fill="#7f7f7f">0.0101</text>
<polygon fill="none" stroke="#7f7f7f" points="438.5,-4 438.5,-46 559.5,-46 559.5,-4 438.5,-4"/>
</g>
<!-- mix&#45;&gt;prev_mix_4 -->
<g id="edge4" class="edge">
<title>mix:s&#45;&gt;prev_mix_4:o01</title>
<path fill="none" stroke="#000000" d="M461,-201C461,-131.1923 504.4269,-117.6349 508.6679,-53.3204"/>
<polygon fill="#000000" stroke="#000000" points="512.1764,-53.1074 509,-43 505.1801,-52.8822 512.1764,-53.1074"/>
</g>
<!-- prev_mix_5 -->
<g id="node6" class="node">
<title>prev_mix_5</title>
<text text-anchor="start" x="599" y="-31.8" font-family="Times,serif" font-size="9.00" fill="#7f7f7f">out</text>
<polygon fill="#9acd32" stroke="transparent" points="615,-25 615,-43 646,-43 646,-25 615,-25"/>
<polygon fill="none" stroke="#000000" stroke-width="2" points="616,-26 616,-42 645,-42 645,-26 616,-26"/>
<text text-anchor="start" x="620" y="-31.8" font-family="Times,serif" font-size="9.00" fill="#000000">0.002</text>
<polygon fill="none" stroke="#7f7f7f" points="648,-25 648,-43 679,-43 679,-25 648,-25"/>
<text text-anchor="start" x="653" y="-31.8" font-family="Times,serif" font-size="9.00" fill="#7f7f7f">0.002</text>
<polygon fill="none" stroke="#7f7f7f" points="681,-25 681,-43 712,-43 712,-25 681,-25"/>
<text text-anchor="start" x="686" y="-31.8" font-family="Times,serif" font-size="9.00" fill="#7f7f7f">0.002</text>
<text text-anchor="start" x="601.5" y="-12.8" font-family="Times,serif" font-size="9.00" fill="#7f7f7f">in</text>
<polygon fill="none" stroke="#7f7f7f" points="615,-7 615,-23 646,-23 646,-7 615,-7"/>
<text text-anchor="start" x="618" y="-12.8" font-family="Times,serif" font-size="9.00" fill="#7f7f7f">0.0021</text>
<polygon fill="none" stroke="#7f7f7f" points="648,-7 648,-23 679,-23 679,-7 648,-7"/>
<text text-anchor="start" x="651" y="-12.8" font-family="Times,serif" font-size="9.00" fill="#7f7f7f">0.0021</text>
<polygon fill="none" stroke="#7f7f7f" points="681,-7 681,-23 712,-23 712,-7 681,-7"/>
<text text-anchor="start" x="684" y="-12.8" font-family="Times,serif" font-size="9.00" fill="#7f7f7f">0.0021</text>
<polygon fill="none" stroke="#7f7f7f" points="593.5,-4 593.5,-46 714.5,-46 714.5,-4 593.5,-4"/>
</g>
<!-- mix&#45;&gt;prev_mix_5 -->
<g id="edge5" class="edge">
<title>mix:s&#45;&gt;prev_mix_5:o01</title>
<path fill="none" stroke="#000000" d="M490,-201C490,-110.8419 619.2761,-134.6954 629.3758,-53.4444"/>
<polygon fill="#000000" stroke="#000000" points="632.8971,-53.191 630,-43 625.9096,-52.7734 632.8971,-53.191"/>
</g>
<!-- prev_mix_6 -->
<g id="node7" class="node">
<title>prev_mix_6</title>
<text text-anchor="start" x="754" y="-31.8" font-family="Times,serif" font-size="9.00" fill="#7f7f7f">out</text>
<polygon fill="#9acd32" stroke="transparent" points="770,-25 770,-43 801,-43 801,-25 770,-25"/>
<polygon fill="none" stroke="#000000" stroke-width="2" points="771,-26 771,-42 800,-42 800,-26 771,-26"/>
<text text-anchor="start" x="775" y="-31.8" font-family="Times,serif" font-size="9.00" fill="#000000">0.002</text>
<polygon fill="none" stroke="#7f7f7f" points="803,-25 803,-43 834,-43 834,-25 803,-25"/>
<text text-anchor="start" x="808" y="-31.8" font-family="Times,serif" font-size="9.00" fill="#7f7f7f">0.002</text>
<polygon fill="none" stroke="#7f7f7f" points="836,-25 836,-43 867,-43 867,-25 836,-25"/>
<text text-anchor="start" x="841" y="-31.8" font-family="Times,serif" font-size="9.00" fill="#7f7f7f">0.002</text>
<text text-anchor="start" x="756.5" y="-12.8" font-family="Times,serif" font-size="9.00" fill="#7f7f7f">in</text>
<polygon fill="none" stroke="#7f7f7f" points="770,-7 770,-23 801,-23 801,-7 770,-7"/>
<text text-anchor="start" x="773" y="-12.8" font-family="Times,serif" font-size="9.00" fill="#7f7f7f">0.0021</text>
<polygon fill="none" stroke="#7f7f7f" points="803,-7 803,-23 834,-23 834,-7 803,-7"/>
<text text-anchor="start" x="806" y="-12.8" font-family="Times,serif" font-size="9.00" fill="#7f7f7f">0.0021</text>
<polygon fill="none" stroke="#7f7f7f" points="836,-7 836,-23 867,-23 867,-7 836,-7"/>
<text text-anchor="start" x="839" y="-12.8" font-family="Times,serif" font-size="9.00" fill="#7f7f7f">0.0021</text>
<polygon fill="none" stroke="#7f7f7f" points="748.5,-4 748.5,-46 869.5,-46 869.5,-4 748.5,-4"/>
</g>
<!-- mix&#45;&gt;prev_mix_6 -->
<g id="edge6" class="edge">
<title>mix:s&#45;&gt;prev_mix_6:o01</title>
<path fill="none" stroke="#000000" d="M521,-201C521,-67.8639 771.2617,-173.827 784.4591,-53.2997"/>
<polygon fill="#000000" stroke="#000000" points="787.9706,-53.1698 785,-43 780.9802,-52.8026 787.9706,-53.1698"/>
</g>
</g>
</svg>
