<?xml version="1.0" encoding="UTF-8" standalone="no"?>
<!DOCTYPE svg PUBLIC "-//W3C//DTD SVG 1.1//EN"
 "http://www.w3.org/Graphics/SVG/1.1/DTD/svg11.dtd">
<!-- Generated by graphviz version 2.40.1 (20161225.0304)
 -->
<!-- Title: %3 Pages: 1 -->
<svg width="249pt" height="146pt"
 viewBox="0.00 0.00 248.50 146.00" xmlns="http://www.w3.org/2000/svg" xmlns:xlink="http://www.w3.org/1999/xlink">
<g id="graph0" class="graph" transform="scale(1 1) rotate(0) translate(4 142)">
<title>%3</title>
<polygon fill="#ffffff" stroke="transparent" points="-4,4 -4,-142 244.5,-142 244.5,4 -4,4"/>
<!-- mix -->
<g id="node1" class="node">
<title>mix</title>
<text text-anchor="start" x="17.5" y="-119.8" font-family="Times,serif" font-size="9.00" fill="#7f7f7f">out</text>
<polygon fill="none" stroke="#7f7f7f" points="33.5,-113 33.5,-131 64.5,-131 64.5,-113 33.5,-113"/>
<text text-anchor="start" x="41" y="-119.8" font-family="Times,serif" font-size="9.00" fill="#7f7f7f">0.01</text>
<polygon fill="none" stroke="#7f7f7f" points="66.5,-113 66.5,-131 90.5,-131 90.5,-113 66.5,-113"/>
<text text-anchor="start" x="70.5" y="-119.8" font-family="Times,serif" font-size="9.00" fill="#7f7f7f">0.01</text>
<polygon fill="#ff7f50" stroke="transparent" points="92.5,-113 92.5,-131 143.5,-131 143.5,-113 92.5,-113"/>
<polygon fill="none" stroke="#000000" stroke-width="2" points="93.5,-114 93.5,-130 142.5,-130 142.5,-114 93.5,-114"/>
<text text-anchor="start" x="96.5" y="-119.8" font-family="Times,serif" font-size="9.00" fill="#000000">0.00934178</text>
<polygon fill="#ff7f50" stroke="transparent" stroke-width="2" points="145.5,-113 145.5,-131 178.5,-131 178.5,-113 145.5,-113"/>
<polygon fill="none" stroke="#000000" stroke-width="2" points="146.5,-114 146.5,-130 177.5,-130 177.5,-114 146.5,-114"/>
<text text-anchor="start" x="149.5" y="-119.8" font-family="Times,serif" font-size="9.00" fill="#000000">0.0005</text>
<polygon fill="#000000" stroke="transparent" stroke-width="2" points="180.5,-113 180.5,-131 229.5,-131 229.5,-113 180.5,-113"/>
<polygon fill="none" stroke="#7f7f7f" points="180.5,-113 180.5,-131 229.5,-131 229.5,-113 180.5,-113"/>
<text text-anchor="start" x="183.5" y="-119.8" font-family="Times,serif" font-size="9.00" fill="#7f7f7f">0.00005822</text>
<text text-anchor="start" x="20" y="-99.8" font-family="Times,serif" font-size="9.00" fill="#7f7f7f">in</text>
<polygon fill="none" stroke="#7f7f7f" points="33.5,-93 33.5,-111 64.5,-111 64.5,-93 33.5,-93"/>
<text text-anchor="start" x="36.5" y="-99.8" font-family="Times,serif" font-size="9.00" fill="#7f7f7f">0.1001</text>
<polygon fill="#9acd32" stroke="transparent" points="66.5,-93 66.5,-111 90.5,-111 90.5,-93 66.5,-93"/>
<polygon fill="none" stroke="#000000" stroke-width="2" points="67.5,-94 67.5,-110 89.5,-110 89.5,-94 67.5,-94"/>
<text text-anchor="start" x="70.5" y="-99.8" font-family="Times,serif" font-size="9.00" fill="#000000">0.01</text>
<polygon fill="none" stroke="#7f7f7f" points="92.5,-93 92.5,-111 143.5,-111 143.5,-93 92.5,-93"/>
<text text-anchor="start" x="110" y="-99.8" font-family="Times,serif" font-size="9.00" fill="#7f7f7f">0.01</text>
<polygon fill="none" stroke="#7f7f7f" points="145.5,-93 145.5,-111 178.5,-111 178.5,-93 145.5,-93"/>
<text text-anchor="start" x="149.5" y="-99.8" font-family="Times,serif" font-size="9.00" fill="#7f7f7f">0.0001</text>
<polygon fill="none" stroke="#7f7f7f" points="12.5,-90 12.5,-134 232.5,-134 232.5,-90 12.5,-90"/>
</g>
<!-- prev_mix -->
<g id="node2" class="node">
<title>prev_mix</title>
<text text-anchor="start" x="13.5" y="-31.8" font-family="Times,serif" font-size="9.00" fill="#7f7f7f">out</text>
<polygon fill="none" stroke="#7f7f7f" points="29.5,-25 29.5,-43 60.5,-43 60.5,-25 29.5,-25"/>
<text text-anchor="start" x="37" y="-31.8" font-family="Times,serif" font-size="9.00" fill="#7f7f7f">0.01</text>
<polygon fill="#9acd32" stroke="transparent" points="62.5,-25 62.5,-43 93.5,-43 93.5,-25 62.5,-25"/>
<polygon fill="none" stroke="#000000" stroke-width="2" points="63.5,-26 63.5,-42 92.5,-42 92.5,-26 63.5,-26"/>
<text text-anchor="start" x="70" y="-31.8" font-family="Times,serif" font-size="9.00" fill="#000000">0.01</text>
<polygon fill="none" stroke="#7f7f7f" points="95.5,-25 95.5,-43 126.5,-43 126.5,-25 95.5,-25"/>
<text text-anchor="start" x="103" y="-31.8" font-family="Times,serif" font-size="9.00" fill="#7f7f7f">0.01</text>
<text text-anchor="start" x="16" y="-12.8" font-family="Times,serif" font-size="9.00" fill="#7f7f7f">in</text>
<polygon fill="none" stroke="#7f7f7f" points="29.5,-7 29.5,-23 60.5,-23 60.5,-7 29.5,-7"/>
<text text-anchor="start" x="32.5" y="-12.8" font-family="Times,serif" font-size="9.00" fill="#7f7f7f">0.0101</text>
<polygon fill="none" stroke="#7f7f7f" points="62.5,-7 62.5,-23 93.5,-23 93.5,-7 62.5,-7"/>
<text text-anchor="start" x="65.5" y="-12.8" font-family="Times,serif" font-size="9.00" fill="#7f7f7f">0.0101</text>
<polygon fill="none" stroke="#7f7f7f" points="95.5,-7 95.5,-23 126.5,-23 126.5,-7 95.5,-7"/>
<text text-anchor="start" x="98.5" y="-12.8" font-family="Times,serif" font-size="9.00" fill="#7f7f7f">0.0101</text>
<polygon fill="none" stroke="#7f7f7f" points="8,-4 8,-46 129,-46 129,-4 8,-4"/>
</g>
<!-- mix&#45;&gt;prev_mix -->
<g id="edge1" class="edge">
<title>mix:i01&#45;&gt;prev_mix:o01</title>
<path fill="none" stroke="#000000" d="M78.5,-93C78.5,-74.5972 78.5,-67.6243 78.5,-53.1505"/>
<polygon fill="#000000" stroke="#000000" points="82.0001,-53 78.5,-43 75.0001,-53 82.0001,-53"/>
</g>
</g>
</svg>
