<?xml version="1.0" encoding="UTF-8" standalone="no"?>
<!DOCTYPE svg PUBLIC "-//W3C//DTD SVG 1.1//EN"
 "http://www.w3.org/Graphics/SVG/1.1/DTD/svg11.dtd">
<!-- Generated by graphviz version 2.40.1 (20161225.0304)
 -->
<!-- Title: %3 Pages: 1 -->
<svg width="298pt" height="146pt"
 viewBox="0.00 0.00 297.50 146.00" xmlns="http://www.w3.org/2000/svg" xmlns:xlink="http://www.w3.org/1999/xlink">
<g id="graph0" class="graph" transform="scale(1 1) rotate(0) translate(4 142)">
<title>%3</title>
<polygon fill="#ffffff" stroke="transparent" points="-4,4 -4,-142 293.5,-142 293.5,4 -4,4"/>
<!-- mix -->
<g id="node1" class="node">
<title>mix</title>
<text text-anchor="start" x="18.5" y="-119.8" font-family="Times,serif" font-size="9.00" fill="#7f7f7f">out</text>
<polygon fill="none" stroke="#7f7f7f" points="34.5,-113 34.5,-131 65.5,-131 65.5,-113 34.5,-113"/>
<text text-anchor="start" x="42" y="-119.8" font-family="Times,serif" font-size="9.00" fill="#7f7f7f">0.01</text>
<polygon fill="none" stroke="#7f7f7f" points="67.5,-113 67.5,-131 89.5,-131 89.5,-113 67.5,-113"/>
<text text-anchor="start" x="70.5" y="-119.8" font-family="Times,serif" font-size="9.00" fill="#7f7f7f">0.01</text>
<polygon fill="#ff7f50" stroke="transparent" points="91.5,-113 91.5,-131 142.5,-131 142.5,-113 91.5,-113"/>
<polygon fill="none" stroke="#000000" stroke-width="2" points="92.5,-114 92.5,-130 141.5,-130 141.5,-114 92.5,-114"/>
<text text-anchor="start" x="95.5" y="-119.8" font-family="Times,serif" font-size="9.00" fill="#000000">0.00934178</text>
<polygon fill="#ff7f50" stroke="transparent" stroke-width="2" points="144.5,-113 144.5,-131 175.5,-131 175.5,-113 144.5,-113"/>
<polygon fill="none" stroke="#000000" stroke-width="2" points="145.5,-114 145.5,-130 174.5,-130 174.5,-114 145.5,-114"/>
<text text-anchor="start" x="152" y="-119.8" font-family="Times,serif" font-size="9.00" fill="#000000">0.05</text>
<polygon fill="#ff7f50" stroke="transparent" stroke-width="2" points="177.5,-113 177.5,-131 201.5,-131 201.5,-113 177.5,-113"/>
<polygon fill="none" stroke="#000000" stroke-width="2" points="178.5,-114 178.5,-130 200.5,-130 200.5,-114 178.5,-114"/>
<text text-anchor="start" x="181.5" y="-119.8" font-family="Times,serif" font-size="9.00" fill="#000000">0.02</text>
<polygon fill="#ff7f50" stroke="transparent" stroke-width="2" points="203.5,-113 203.5,-131 227.5,-131 227.5,-113 203.5,-113"/>
<polygon fill="none" stroke="#000000" stroke-width="2" points="204.5,-114 204.5,-130 226.5,-130 226.5,-114 204.5,-114"/>
<text text-anchor="start" x="207.5" y="-119.8" font-family="Times,serif" font-size="9.00" fill="#000000">0.02</text>
<polygon fill="#000000" stroke="transparent" stroke-width="2" points="229.5,-113 229.5,-131 278.5,-131 278.5,-113 229.5,-113"/>
<polygon fill="none" stroke="#7f7f7f" points="229.5,-113 229.5,-131 278.5,-131 278.5,-113 229.5,-113"/>
<text text-anchor="start" x="232.5" y="-119.8" font-family="Times,serif" font-size="9.00" fill="#7f7f7f">0.00055822</text>
<text text-anchor="start" x="21" y="-99.8" font-family="Times,serif" font-size="9.00" fill="#7f7f7f">in</text>
<polygon fill="none" stroke="#7f7f7f" points="34.5,-93 34.5,-111 65.5,-111 65.5,-93 34.5,-93"/>
<text text-anchor="start" x="37.5" y="-99.8" font-family="Times,serif" font-size="9.00" fill="#7f7f7f">0.1001</text>
<polygon fill="#9acd32" stroke="transparent" points="67.5,-93 67.5,-111 89.5,-111 89.5,-93 67.5,-93"/>
<polygon fill="none" stroke="#000000" stroke-width="2" points="68.5,-94 68.5,-110 88.5,-110 88.5,-94 68.5,-94"/>
<text text-anchor="start" x="72.5" y="-99.8" font-family="Times,serif" font-size="9.00" fill="#000000">0.1</text>
<polygon fill="none" stroke="#7f7f7f" points="91.5,-93 91.5,-111 142.5,-111 142.5,-93 91.5,-93"/>
<text text-anchor="start" x="109" y="-99.8" font-family="Times,serif" font-size="9.00" fill="#7f7f7f">0.01</text>
<polygon fill="none" stroke="#7f7f7f" points="144.5,-93 144.5,-111 175.5,-111 175.5,-93 144.5,-93"/>
<text text-anchor="start" x="147.5" y="-99.8" font-family="Times,serif" font-size="9.00" fill="#7f7f7f">0.0001</text>
<polygon fill="none" stroke="#7f7f7f" points="13.5,-90 13.5,-134 281.5,-134 281.5,-90 13.5,-90"/>
</g>
<!-- prev_mix -->
<g id="node2" class="node">
<title>prev_mix</title>
<text text-anchor="start" x="13.5" y="-31.8" font-family="Times,serif" font-size="9.00" fill="#7f7f7f">out</text>
<polygon fill="none" stroke="#7f7f7f" points="29.5,-25 29.5,-43 60.5,-43 60.5,-25 29.5,-25"/>
<text text-anchor="start" x="37" y="-31.8" font-family="Times,serif" font-size="9.00" fill="#7f7f7f">0.01</text>
<polygon fill="#9acd32" stroke="transparent" points="62.5,-25 62.5,-43 93.5,-43 93.5,-25 62.5,-25"/>
<polygon fill="none" stroke="#000000" stroke-width="2" points="63.5,-26 63.5,-42 92.5,-42 92.5,-26 63.5,-26"/>
<text text-anchor="start" x="70" y="-31.8" font-family="Times,serif" font-size="9.00" fill="#000000">0.01</text>
<polygon fill="none" stroke="#7f7f7f" points="95.5,-25 95.5,-43 126.5,-43 126.5,-25 95.5,-25"/>
<text text-anchor="start" x="103" y="-31.8" font-family="Times,serif" font-size="9.00" fill="#7f7f7f">0.01</text>
<text text-anchor="start" x="16" y="-12.8" font-family="Times,serif" font-size="9.00" fill="#7f7f7f">in</text>
<polygon fill="none" stroke="#7f7f7f" points="29.5,-7 29.5,-23 60.5,-23 60.5,-7 29.5,-7"/>
<text text-anchor="start" x="32.5" y="-12.8" font-family="Times,serif" font-size="9.00" fill="#7f7f7f">0.0101</text>
<polygon fill="none" stroke="#7f7f7f" points="62.5,-7 62.5,-23 93.5,-23 93.5,-7 62.5,-7"/>
<text text-anchor="start" x="65.5" y="-12.8" font-family="Times,serif" font-size="9.00" fill="#7f7f7f">0.0101</text>
<polygon fill="none" stroke="#7f7f7f" points="95.5,-7 95.5,-23 126.5,-23 126.5,-7 95.5,-7"/>
<text text-anchor="start" x="98.5" y="-12.8" font-family="Times,serif" font-size="9.00" fill="#7f7f7f">0.0101</text>
<polygon fill="none" stroke="#7f7f7f" points="8,-4 8,-46 129,-46 129,-4 8,-4"/>
</g>
<!-- mix&#45;&gt;prev_mix -->
<g id="edge1" class="edge">
<title>mix:i01&#45;&gt;prev_mix:o01</title>
<path fill="none" stroke="#000000" d="M78.5,-93C78.5,-74.5972 78.5,-67.6243 78.5,-53.1505"/>
<polygon fill="#000000" stroke="#000000" points="82.0001,-53 78.5,-43 75.0001,-53 82.0001,-53"/>
</g>
</g>
</svg>
