<?xml version="1.0" encoding="UTF-8" standalone="no"?>
<!DOCTYPE svg PUBLIC "-//W3C//DTD SVG 1.1//EN"
 "http://www.w3.org/Graphics/SVG/1.1/DTD/svg11.dtd">
<!-- Generated by graphviz version 2.42.4 (0)
 -->
<!-- Pages: 1 -->
<svg width="695pt" height="146pt"
 viewBox="0.00 0.00 695.00 146.00" xmlns="http://www.w3.org/2000/svg" xmlns:xlink="http://www.w3.org/1999/xlink">
<g id="graph0" class="graph" transform="scale(1 1) rotate(0) translate(4 142)">
<polygon fill="white" stroke="transparent" points="-4,4 -4,-142 691,-142 691,4 -4,4"/>
<!-- mix -->
<g id="node1" class="node">
<title>mix</title>
<text text-anchor="start" x="28" y="-119.8" font-family="Times,serif" font-size="9.00" fill="#7f7f7f">out</text>
<polygon fill="none" stroke="#7f7f7f" points="48,-113 48,-131 70,-131 70,-113 48,-113"/>
<text text-anchor="start" x="51" y="-119.8" font-family="Times,serif" font-size="9.00" fill="#7f7f7f">1.0</text>
<polygon fill="#9acd32" stroke="transparent" points="72,-113 72,-131 108,-131 108,-113 72,-113"/>
<polygon fill="none" stroke="black" stroke-width="2" points="73,-114 73,-130 107,-130 107,-114 73,-114"/>
<text text-anchor="start" x="82" y="-119.8" font-family="Times,serif" font-size="9.00">1.0</text>
<polygon fill="none" stroke="#7f7f7f" points="110,-113 110,-131 132,-131 132,-113 110,-113"/>
<text text-anchor="start" x="113" y="-119.8" font-family="Times,serif" font-size="9.00" fill="#7f7f7f">1.0</text>
<polygon fill="none" stroke="#7f7f7f" points="134,-113 134,-131 170,-131 170,-113 134,-113"/>
<text text-anchor="start" x="141" y="-119.8" font-family="Times,serif" font-size="9.00" fill="#7f7f7f">0.05</text>
<polygon fill="#9acd32" stroke="transparent" points="172,-113 172,-131 212,-131 212,-113 172,-113"/>
<polygon fill="none" stroke="black" stroke-width="2" points="173,-114 173,-130 211,-130 211,-114 173,-114"/>
<text text-anchor="start" x="181" y="-119.8" font-family="Times,serif" font-size="9.00">0.05</text>
<polygon fill="none" stroke="#7f7f7f" points="214,-113 214,-131 242,-131 242,-113 214,-113"/>
<text text-anchor="start" x="217" y="-119.8" font-family="Times,serif" font-size="9.00" fill="#7f7f7f">0.05</text>
<polygon fill="none" stroke="#7f7f7f" points="244,-113 244,-131 272,-131 272,-113 244,-113"/>
<text text-anchor="start" x="247" y="-119.8" font-family="Times,serif" font-size="9.00" fill="#7f7f7f">0.02</text>
<polygon fill="none" stroke="#7f7f7f" points="274,-113 274,-131 302,-131 302,-113 274,-113"/>
<text text-anchor="start" x="277" y="-119.8" font-family="Times,serif" font-size="9.00" fill="#7f7f7f">0.01</text>
<polygon fill="none" stroke="#7f7f7f" points="304,-113 304,-131 344,-131 344,-113 304,-113"/>
<text text-anchor="start" x="310" y="-119.8" font-family="Times,serif" font-size="9.00" fill="#7f7f7f">0.005</text>
<polygon fill="gold" stroke="transparent" points="346,-113 346,-131 386,-131 386,-113 346,-113"/>
<polygon fill="none" stroke="black" stroke-width="2" points="347,-114 347,-130 385,-130 385,-114 347,-114"/>
<text text-anchor="start" x="352" y="-119.8" font-family="Times,serif" font-size="9.00">0.005</text>
<polygon fill="gold" stroke="transparent" stroke-width="2" points="388,-113 388,-131 424,-131 424,-113 388,-113"/>
<polygon fill="none" stroke="black" stroke-width="2" points="389,-114 389,-130 423,-130 423,-114 389,-114"/>
<text text-anchor="start" x="392" y="-119.8" font-family="Times,serif" font-size="9.00">0.001</text>
<polygon fill="none" stroke="#7f7f7f" points="426,-113 426,-131 460,-131 460,-113 426,-113"/>
<text text-anchor="start" x="429" y="-119.8" font-family="Times,serif" font-size="9.00" fill="#7f7f7f">0.001</text>
<polygon fill="none" stroke="#7f7f7f" points="462,-113 462,-131 502,-131 502,-113 462,-113"/>
<text text-anchor="start" x="465" y="-119.8" font-family="Times,serif" font-size="9.00" fill="#7f7f7f">0.0005</text>
<polygon fill="gold" stroke="transparent" points="504,-113 504,-131 546,-131 546,-113 504,-113"/>
<polygon fill="none" stroke="black" stroke-width="2" points="505,-114 505,-130 545,-130 545,-114 505,-114"/>
<text text-anchor="start" x="508" y="-119.8" font-family="Times,serif" font-size="9.00">0.0005</text>
<polygon fill="gold" stroke="transparent" stroke-width="2" points="548,-113 548,-131 590,-131 590,-113 548,-113"/>
<polygon fill="none" stroke="black" stroke-width="2" points="549,-114 549,-130 589,-130 589,-114 549,-114"/>
<text text-anchor="start" x="552" y="-119.8" font-family="Times,serif" font-size="9.00">0.0002</text>
<polygon fill="none" stroke="#7f7f7f" points="592,-113 592,-131 632,-131 632,-113 592,-113"/>
<text text-anchor="start" x="595" y="-119.8" font-family="Times,serif" font-size="9.00" fill="#7f7f7f">0.0002</text>
<polygon fill="gold" stroke="transparent" points="634,-113 634,-131 676,-131 676,-113 634,-113"/>
<polygon fill="none" stroke="black" stroke-width="2" points="635,-114 635,-130 675,-130 675,-114 635,-114"/>
<text text-anchor="start" x="638" y="-119.8" font-family="Times,serif" font-size="9.00">0.0002</text>
<text text-anchor="start" x="31" y="-99.8" font-family="Times,serif" font-size="9.00" fill="#7f7f7f">in</text>
<polygon fill="none" stroke="#7f7f7f" points="48,-93 48,-111 70,-111 70,-93 48,-93"/>
<text text-anchor="start" x="51" y="-99.8" font-family="Times,serif" font-size="9.00" fill="#7f7f7f">1.0</text>
<polygon fill="coral" stroke="transparent" points="72,-93 72,-111 108,-111 108,-93 72,-93"/>
<polygon fill="none" stroke="black" stroke-width="2" points="73,-94 73,-110 107,-110 107,-94 73,-94"/>
<text text-anchor="start" x="76" y="-99.8" font-family="Times,serif" font-size="9.00">0.736</text>
<polygon fill="none" stroke="#7f7f7f" points="110,-93 110,-111 132,-111 132,-93 110,-93"/>
<text text-anchor="start" x="113" y="-99.8" font-family="Times,serif" font-size="9.00" fill="#7f7f7f">0.5</text>
<polygon fill="coral" stroke="transparent" points="134,-93 134,-111 170,-111 170,-93 134,-93"/>
<polygon fill="none" stroke="black" stroke-width="2" points="135,-94 135,-110 169,-110 169,-94 135,-94"/>
<text text-anchor="start" x="138" y="-99.8" font-family="Times,serif" font-size="9.00">0.321</text>
<polygon fill="none" stroke="#7f7f7f" points="172,-93 172,-111 212,-111 212,-93 172,-93"/>
<text text-anchor="start" x="175" y="-99.8" font-family="Times,serif" font-size="9.00" fill="#7f7f7f">0.2001</text>
<polygon fill="none" stroke="#7f7f7f" points="214,-93 214,-111 242,-111 242,-93 214,-93"/>
<text text-anchor="start" x="220" y="-99.8" font-family="Times,serif" font-size="9.00" fill="#7f7f7f">0.2</text>
<polygon fill="none" stroke="#7f7f7f" points="244,-93 244,-111 272,-111 272,-93 244,-93"/>
<text text-anchor="start" x="250" y="-99.8" font-family="Times,serif" font-size="9.00" fill="#7f7f7f">0.1</text>
<polygon fill="none" stroke="#7f7f7f" points="274,-93 274,-111 302,-111 302,-93 274,-93"/>
<text text-anchor="start" x="277" y="-99.8" font-family="Times,serif" font-size="9.00" fill="#7f7f7f">0.05</text>
<polygon fill="none" stroke="#7f7f7f" points="304,-93 304,-111 344,-111 344,-93 304,-93"/>
<text text-anchor="start" x="307" y="-99.8" font-family="Times,serif" font-size="9.00" fill="#7f7f7f">0.0867</text>
<polygon fill="none" stroke="#7f7f7f" points="346,-93 346,-111 386,-111 386,-93 346,-93"/>
<text text-anchor="start" x="349" y="-99.8" font-family="Times,serif" font-size="9.00" fill="#7f7f7f">0.0001</text>
<polygon fill="none" stroke="#7f7f7f" points="23,-90 23,-134 679,-134 679,-90 23,-90"/>
</g>
<!-- receive_1 -->
<g id="node2" class="node">
<title>receive_1</title>
<text text-anchor="start" x="13" y="-31.8" font-family="Times,serif" font-size="9.00" fill="#7f7f7f">out</text>
<polygon fill="coral" stroke="transparent" points="33,-25 33,-43 69,-43 69,-25 33,-25"/>
<polygon fill="none" stroke="black" stroke-width="2" points="34,-26 34,-42 68,-42 68,-26 34,-26"/>
<text text-anchor="start" x="37" y="-31.8" font-family="Times,serif" font-size="9.00">0.736</text>
<polygon fill="none" stroke="#7f7f7f" points="71,-25 71,-43 111,-43 111,-25 71,-25"/>
<text text-anchor="start" x="74" y="-31.8" font-family="Times,serif" font-size="9.00" fill="#7f7f7f">0.0635</text>
<text text-anchor="start" x="16" y="-12.8" font-family="Times,serif" font-size="9.00" fill="#7f7f7f">in</text>
<polygon fill="none" stroke="#7f7f7f" points="33,-7 33,-23 111,-23 111,-7 33,-7"/>
<text text-anchor="start" x="64" y="-12.8" font-family="Times,serif" font-size="9.00" fill="#7f7f7f">0.8</text>
<polygon fill="none" stroke="#7f7f7f" points="8,-4 8,-46 114,-46 114,-4 8,-4"/>
</g>
<!-- mix&#45;&gt;receive_1 -->
<g id="edge1" class="edge">
<title>mix:i01&#45;&gt;receive_1:o01</title>
<path fill="none" stroke="black" d="M90,-92C90,-68.59 61.72,-70.18 53.32,-54.19"/>
<polygon fill="black" stroke="black" points="56.64,-52.97 51,-44 49.81,-54.53 56.64,-52.97"/>
</g>
<!-- receive_2 -->
<g id="node3" class="node">
<title>receive_2</title>
<text text-anchor="start" x="153" y="-31.8" font-family="Times,serif" font-size="9.00" fill="#7f7f7f">out</text>
<polygon fill="coral" stroke="transparent" points="173,-25 173,-43 209,-43 209,-25 173,-25"/>
<polygon fill="none" stroke="black" stroke-width="2" points="174,-26 174,-42 208,-42 208,-26 174,-26"/>
<text text-anchor="start" x="177" y="-31.8" font-family="Times,serif" font-size="9.00">0.321</text>
<polygon fill="none" stroke="#7f7f7f" points="211,-25 211,-43 251,-43 251,-25 211,-25"/>
<text text-anchor="start" x="214" y="-31.8" font-family="Times,serif" font-size="9.00" fill="#7f7f7f">0.1789</text>
<text text-anchor="start" x="156" y="-12.8" font-family="Times,serif" font-size="9.00" fill="#7f7f7f">in</text>
<polygon fill="none" stroke="#7f7f7f" points="173,-7 173,-23 209,-23 209,-7 173,-7"/>
<text text-anchor="start" x="183" y="-12.8" font-family="Times,serif" font-size="9.00" fill="#7f7f7f">0.3</text>
<polygon fill="none" stroke="#7f7f7f" points="211,-7 211,-23 251,-23 251,-7 211,-7"/>
<text text-anchor="start" x="223" y="-12.8" font-family="Times,serif" font-size="9.00" fill="#7f7f7f">0.2</text>
<polygon fill="none" stroke="#7f7f7f" points="148,-4 148,-46 254,-46 254,-4 148,-4"/>
</g>
<!-- mix&#45;&gt;receive_2 -->
<g id="edge2" class="edge">
<title>mix:i02&#45;&gt;receive_2:o01</title>
<path fill="none" stroke="black" d="M152,-92C152,-68.59 180.28,-70.18 188.68,-54.19"/>
<polygon fill="black" stroke="black" points="192.19,-54.53 191,-44 185.36,-52.97 192.19,-54.53"/>
</g>
</g>
</svg>
