<?xml version="1.0" encoding="UTF-8" standalone="no"?>
<!DOCTYPE svg PUBLIC "-//W3C//DTD SVG 1.1//EN"
 "http://www.w3.org/Graphics/SVG/1.1/DTD/svg11.dtd">
<!-- Generated by graphviz version 2.40.1 (20161225.0304)
 -->
<!-- Title: %3 Pages: 1 -->
<svg width="426pt" height="146pt"
 viewBox="0.00 0.00 426.00 146.00" xmlns="http://www.w3.org/2000/svg" xmlns:xlink="http://www.w3.org/1999/xlink">
<g id="graph0" class="graph" transform="scale(1 1) rotate(0) translate(4 142)">
<title>%3</title>
<polygon fill="#ffffff" stroke="transparent" points="-4,4 -4,-142 422,-142 422,4 -4,4"/>
<!-- mix -->
<g id="node1" class="node">
<title>mix</title>
<text text-anchor="start" x="27" y="-119.8" font-family="Times,serif" font-size="9.00" fill="#7f7f7f">out</text>
<polygon fill="none" stroke="#7f7f7f" points="43,-113 43,-131 61,-131 61,-113 43,-113"/>
<text text-anchor="start" x="46" y="-119.8" font-family="Times,serif" font-size="9.00" fill="#7f7f7f">1.0</text>
<polygon fill="#9acd32" stroke="transparent" points="63,-113 63,-131 92,-131 92,-113 63,-113"/>
<polygon fill="none" stroke="#000000" stroke-width="2" points="64,-114 64,-130 91,-130 91,-114 64,-114"/>
<text text-anchor="start" x="71.5" y="-119.8" font-family="Times,serif" font-size="9.00" fill="#000000">1.0</text>
<polygon fill="none" stroke="#7f7f7f" points="94,-113 94,-131 112,-131 112,-113 94,-113"/>
<text text-anchor="start" x="97" y="-119.8" font-family="Times,serif" font-size="9.00" fill="#7f7f7f">1.0</text>
<polygon fill="none" stroke="#7f7f7f" points="114,-113 114,-131 143,-131 143,-113 114,-113"/>
<text text-anchor="start" x="120.5" y="-119.8" font-family="Times,serif" font-size="9.00" fill="#7f7f7f">0.05</text>
<polygon fill="#9acd32" stroke="transparent" points="145,-113 145,-131 176,-131 176,-113 145,-113"/>
<polygon fill="none" stroke="#000000" stroke-width="2" points="146,-114 146,-130 175,-130 175,-114 146,-114"/>
<text text-anchor="start" x="152.5" y="-119.8" font-family="Times,serif" font-size="9.00" fill="#000000">0.05</text>
<polygon fill="none" stroke="#7f7f7f" points="178,-113 178,-131 200,-131 200,-113 178,-113"/>
<text text-anchor="start" x="181" y="-119.8" font-family="Times,serif" font-size="9.00" fill="#7f7f7f">0.05</text>
<polygon fill="none" stroke="#7f7f7f" points="202,-113 202,-131 224,-131 224,-113 202,-113"/>
<text text-anchor="start" x="205" y="-119.8" font-family="Times,serif" font-size="9.00" fill="#7f7f7f">0.02</text>
<polygon fill="none" stroke="#7f7f7f" points="226,-113 226,-131 248,-131 248,-113 226,-113"/>
<text text-anchor="start" x="229" y="-119.8" font-family="Times,serif" font-size="9.00" fill="#7f7f7f">0.01</text>
<polygon fill="none" stroke="#7f7f7f" points="250,-113 250,-131 281,-131 281,-113 250,-113"/>
<text text-anchor="start" x="255" y="-119.8" font-family="Times,serif" font-size="9.00" fill="#7f7f7f">0.005</text>
<polygon fill="#ffd700" stroke="transparent" points="283,-113 283,-131 314,-131 314,-113 283,-113"/>
<polygon fill="none" stroke="#000000" stroke-width="2" points="284,-114 284,-130 313,-130 313,-114 284,-114"/>
<text text-anchor="start" x="288" y="-119.8" font-family="Times,serif" font-size="9.00" fill="#000000">0.005</text>
<polygon fill="#ffd700" stroke="transparent" stroke-width="2" points="316,-113 316,-131 345,-131 345,-113 316,-113"/>
<polygon fill="none" stroke="#000000" stroke-width="2" points="317,-114 317,-130 344,-130 344,-114 317,-114"/>
<text text-anchor="start" x="320" y="-119.8" font-family="Times,serif" font-size="9.00" fill="#000000">0.001</text>
<polygon fill="none" stroke="#7f7f7f" points="347,-113 347,-131 374,-131 374,-113 347,-113"/>
<text text-anchor="start" x="350" y="-119.8" font-family="Times,serif" font-size="9.00" fill="#7f7f7f">0.001</text>
<polygon fill="#000000" stroke="transparent" points="376,-113 376,-131 407,-131 407,-113 376,-113"/>
<polygon fill="none" stroke="#7f7f7f" points="376,-113 376,-131 407,-131 407,-113 376,-113"/>
<text text-anchor="start" x="379" y="-119.8" font-family="Times,serif" font-size="9.00" fill="#7f7f7f">0.0016</text>
<text text-anchor="start" x="29.5" y="-99.8" font-family="Times,serif" font-size="9.00" fill="#7f7f7f">in</text>
<polygon fill="none" stroke="#7f7f7f" points="43,-93 43,-111 61,-111 61,-93 43,-93"/>
<text text-anchor="start" x="46" y="-99.8" font-family="Times,serif" font-size="9.00" fill="#7f7f7f">1.0</text>
<polygon fill="#ff7f50" stroke="transparent" points="63,-93 63,-111 92,-111 92,-93 63,-93"/>
<polygon fill="none" stroke="#000000" stroke-width="2" points="64,-94 64,-110 91,-110 91,-94 64,-94"/>
<text text-anchor="start" x="67" y="-99.8" font-family="Times,serif" font-size="9.00" fill="#000000">0.736</text>
<polygon fill="none" stroke="#7f7f7f" points="94,-93 94,-111 112,-111 112,-93 94,-93"/>
<text text-anchor="start" x="97" y="-99.8" font-family="Times,serif" font-size="9.00" fill="#7f7f7f">0.5</text>
<polygon fill="#ff7f50" stroke="transparent" points="114,-93 114,-111 143,-111 143,-93 114,-93"/>
<polygon fill="none" stroke="#000000" stroke-width="2" points="115,-94 115,-110 142,-110 142,-94 115,-94"/>
<text text-anchor="start" x="118" y="-99.8" font-family="Times,serif" font-size="9.00" fill="#000000">0.321</text>
<polygon fill="none" stroke="#7f7f7f" points="145,-93 145,-111 176,-111 176,-93 145,-93"/>
<text text-anchor="start" x="148" y="-99.8" font-family="Times,serif" font-size="9.00" fill="#7f7f7f">0.2001</text>
<polygon fill="none" stroke="#7f7f7f" points="178,-93 178,-111 200,-111 200,-93 178,-93"/>
<text text-anchor="start" x="183" y="-99.8" font-family="Times,serif" font-size="9.00" fill="#7f7f7f">0.2</text>
<polygon fill="none" stroke="#7f7f7f" points="202,-93 202,-111 224,-111 224,-93 202,-93"/>
<text text-anchor="start" x="207" y="-99.8" font-family="Times,serif" font-size="9.00" fill="#7f7f7f">0.1</text>
<polygon fill="none" stroke="#7f7f7f" points="226,-93 226,-111 248,-111 248,-93 226,-93"/>
<text text-anchor="start" x="229" y="-99.8" font-family="Times,serif" font-size="9.00" fill="#7f7f7f">0.05</text>
<polygon fill="none" stroke="#7f7f7f" points="250,-93 250,-111 281,-111 281,-93 250,-93"/>
<text text-anchor="start" x="253" y="-99.8" font-family="Times,serif" font-size="9.00" fill="#7f7f7f">0.0867</text>
<polygon fill="none" stroke="#7f7f7f" points="283,-93 283,-111 314,-111 314,-93 283,-93"/>
<text text-anchor="start" x="286" y="-99.8" font-family="Times,serif" font-size="9.00" fill="#7f7f7f">0.0001</text>
<polygon fill="none" stroke="#7f7f7f" points="22,-90 22,-134 410,-134 410,-90 22,-90"/>
</g>
<!-- receive_1 -->
<g id="node2" class="node">
<title>receive_1</title>
<text text-anchor="start" x="13" y="-31.8" font-family="Times,serif" font-size="9.00" fill="#7f7f7f">out</text>
<polygon fill="#ff7f50" stroke="transparent" points="29,-25 29,-43 58,-43 58,-25 29,-25"/>
<polygon fill="none" stroke="#000000" stroke-width="2" points="30,-26 30,-42 57,-42 57,-26 30,-26"/>
<text text-anchor="start" x="33" y="-31.8" font-family="Times,serif" font-size="9.00" fill="#000000">0.736</text>
<polygon fill="none" stroke="#7f7f7f" points="60,-25 60,-43 91,-43 91,-25 60,-25"/>
<text text-anchor="start" x="63" y="-31.8" font-family="Times,serif" font-size="9.00" fill="#7f7f7f">0.0635</text>
<text text-anchor="start" x="15.5" y="-12.8" font-family="Times,serif" font-size="9.00" fill="#7f7f7f">in</text>
<polygon fill="none" stroke="#7f7f7f" points="29,-7 29,-23 91,-23 91,-7 29,-7"/>
<text text-anchor="start" x="54" y="-12.8" font-family="Times,serif" font-size="9.00" fill="#7f7f7f">0.8</text>
<polygon fill="none" stroke="#7f7f7f" points="8,-4 8,-46 94,-46 94,-4 8,-4"/>
</g>
<!-- mix&#45;&gt;receive_1 -->
<g id="edge1" class="edge">
<title>mix:i01&#45;&gt;receive_1:o01</title>
<path fill="none" stroke="#000000" d="M77,-93C77,-70.1157 52.3446,-69.4357 45.025,-53.1433"/>
<polygon fill="#000000" stroke="#000000" points="48.3901,-52.1212 43,-43 41.5256,-53.4917 48.3901,-52.1212"/>
</g>
<!-- receive_2 -->
<g id="node3" class="node">
<title>receive_2</title>
<text text-anchor="start" x="133" y="-31.8" font-family="Times,serif" font-size="9.00" fill="#7f7f7f">out</text>
<polygon fill="#ff7f50" stroke="transparent" points="149,-25 149,-43 178,-43 178,-25 149,-25"/>
<polygon fill="none" stroke="#000000" stroke-width="2" points="150,-26 150,-42 177,-42 177,-26 150,-26"/>
<text text-anchor="start" x="153" y="-31.8" font-family="Times,serif" font-size="9.00" fill="#000000">0.321</text>
<polygon fill="none" stroke="#7f7f7f" points="180,-25 180,-43 211,-43 211,-25 180,-25"/>
<text text-anchor="start" x="183" y="-31.8" font-family="Times,serif" font-size="9.00" fill="#7f7f7f">0.1789</text>
<text text-anchor="start" x="135.5" y="-12.8" font-family="Times,serif" font-size="9.00" fill="#7f7f7f">in</text>
<polygon fill="none" stroke="#7f7f7f" points="149,-7 149,-23 178,-23 178,-7 149,-7"/>
<text text-anchor="start" x="157.5" y="-12.8" font-family="Times,serif" font-size="9.00" fill="#7f7f7f">0.3</text>
<polygon fill="none" stroke="#7f7f7f" points="180,-7 180,-23 211,-23 211,-7 180,-7"/>
<text text-anchor="start" x="189.5" y="-12.8" font-family="Times,serif" font-size="9.00" fill="#7f7f7f">0.2</text>
<polygon fill="none" stroke="#7f7f7f" points="128,-4 128,-46 214,-46 214,-4 128,-4"/>
</g>
<!-- mix&#45;&gt;receive_2 -->
<g id="edge2" class="edge">
<title>mix:i02&#45;&gt;receive_2:o01</title>
<path fill="none" stroke="#000000" d="M128,-93C128,-69.9008 153.3806,-69.5549 160.9154,-53.2106"/>
<polygon fill="#000000" stroke="#000000" points="164.4288,-53.498 163,-43 157.5703,-52.0977 164.4288,-53.498"/>
</g>
</g>
</svg>
