<?xml version="1.0" encoding="UTF-8" standalone="no"?>
<!DOCTYPE svg PUBLIC "-//W3C//DTD SVG 1.1//EN"
 "http://www.w3.org/Graphics/SVG/1.1/DTD/svg11.dtd">
<!-- Generated by graphviz version 2.40.1 (20161225.0304)
 -->
<!-- Title: %3 Pages: 1 -->
<svg width="700pt" height="218pt"
 viewBox="0.00 0.00 699.50 218.00" xmlns="http://www.w3.org/2000/svg" xmlns:xlink="http://www.w3.org/1999/xlink">
<g id="graph0" class="graph" transform="scale(1 1) rotate(0) translate(4 214)">
<title>%3</title>
<polygon fill="#ffffff" stroke="transparent" points="-4,4 -4,-214 695.5,-214 695.5,4 -4,4"/>
<!-- mix -->
<g id="node1" class="node">
<title>mix</title>
<text text-anchor="start" x="62" y="-191.8" font-family="Times,serif" font-size="9.00" fill="#7f7f7f">out</text>
<polygon fill="none" stroke="#7f7f7f" points="78,-185 78,-203 96,-203 96,-185 78,-185"/>
<text text-anchor="start" x="81" y="-191.8" font-family="Times,serif" font-size="9.00" fill="#7f7f7f">1.0</text>
<polygon fill="#9acd32" stroke="transparent" points="98,-185 98,-203 127,-203 127,-185 98,-185"/>
<polygon fill="none" stroke="#000000" stroke-width="2" points="99,-186 99,-202 126,-202 126,-186 99,-186"/>
<text text-anchor="start" x="106.5" y="-191.8" font-family="Times,serif" font-size="9.00" fill="#000000">1.0</text>
<polygon fill="none" stroke="#7f7f7f" points="129,-185 129,-203 147,-203 147,-185 129,-185"/>
<text text-anchor="start" x="132" y="-191.8" font-family="Times,serif" font-size="9.00" fill="#7f7f7f">1.0</text>
<polygon fill="none" stroke="#7f7f7f" points="149,-185 149,-203 182,-203 182,-185 149,-185"/>
<text text-anchor="start" x="157.5" y="-191.8" font-family="Times,serif" font-size="9.00" fill="#7f7f7f">0.05</text>
<polygon fill="none" stroke="#7f7f7f" points="184,-185 184,-203 215,-203 215,-185 184,-185"/>
<text text-anchor="start" x="191.5" y="-191.8" font-family="Times,serif" font-size="9.00" fill="#7f7f7f">0.05</text>
<polygon fill="none" stroke="#7f7f7f" points="217,-185 217,-203 239,-203 239,-185 217,-185"/>
<text text-anchor="start" x="220" y="-191.8" font-family="Times,serif" font-size="9.00" fill="#7f7f7f">0.02</text>
<polygon fill="none" stroke="#7f7f7f" points="241,-185 241,-203 263,-203 263,-185 241,-185"/>
<text text-anchor="start" x="244" y="-191.8" font-family="Times,serif" font-size="9.00" fill="#7f7f7f">0.01</text>
<polygon fill="none" stroke="#7f7f7f" points="265,-185 265,-203 296,-203 296,-185 265,-185"/>
<text text-anchor="start" x="270" y="-191.8" font-family="Times,serif" font-size="9.00" fill="#7f7f7f">0.005</text>
<polygon fill="none" stroke="#7f7f7f" points="298,-185 298,-203 325,-203 325,-185 298,-185"/>
<text text-anchor="start" x="301" y="-191.8" font-family="Times,serif" font-size="9.00" fill="#7f7f7f">0.001</text>
<polygon fill="none" stroke="#7f7f7f" points="327,-185 327,-203 358,-203 358,-185 327,-185"/>
<text text-anchor="start" x="330" y="-191.8" font-family="Times,serif" font-size="9.00" fill="#7f7f7f">0.0005</text>
<polygon fill="none" stroke="#7f7f7f" points="360,-185 360,-203 391,-203 391,-185 360,-185"/>
<text text-anchor="start" x="363" y="-191.8" font-family="Times,serif" font-size="9.00" fill="#7f7f7f">0.0002</text>
<text text-anchor="start" x="64.5" y="-171.8" font-family="Times,serif" font-size="9.00" fill="#7f7f7f">in</text>
<polygon fill="none" stroke="#7f7f7f" points="78,-165 78,-183 96,-183 96,-165 78,-165"/>
<text text-anchor="start" x="81" y="-171.8" font-family="Times,serif" font-size="9.00" fill="#7f7f7f">1.0</text>
<polygon fill="#ff7f50" stroke="transparent" points="98,-165 98,-183 127,-183 127,-165 98,-165"/>
<polygon fill="none" stroke="#000000" stroke-width="2" points="99,-166 99,-182 126,-182 126,-166 99,-166"/>
<text text-anchor="start" x="102" y="-171.8" font-family="Times,serif" font-size="9.00" fill="#000000">0.736</text>
<polygon fill="none" stroke="#7f7f7f" points="129,-165 129,-183 147,-183 147,-165 129,-165"/>
<text text-anchor="start" x="132" y="-171.8" font-family="Times,serif" font-size="9.00" fill="#7f7f7f">0.5</text>
<polygon fill="#ff7f50" stroke="transparent" points="149,-165 149,-183 182,-183 182,-165 149,-165"/>
<polygon fill="none" stroke="#000000" stroke-width="2" points="150,-166 150,-182 181,-182 181,-166 150,-166"/>
<text text-anchor="start" x="153" y="-171.8" font-family="Times,serif" font-size="9.00" fill="#000000">0.2471</text>
<polygon fill="none" stroke="#7f7f7f" points="184,-165 184,-183 215,-183 215,-165 184,-165"/>
<text text-anchor="start" x="187" y="-171.8" font-family="Times,serif" font-size="9.00" fill="#7f7f7f">0.2001</text>
<polygon fill="none" stroke="#7f7f7f" points="217,-165 217,-183 239,-183 239,-165 217,-165"/>
<text text-anchor="start" x="222" y="-171.8" font-family="Times,serif" font-size="9.00" fill="#7f7f7f">0.2</text>
<polygon fill="none" stroke="#7f7f7f" points="241,-165 241,-183 263,-183 263,-165 241,-165"/>
<text text-anchor="start" x="246" y="-171.8" font-family="Times,serif" font-size="9.00" fill="#7f7f7f">0.1</text>
<polygon fill="none" stroke="#7f7f7f" points="265,-165 265,-183 296,-183 296,-165 265,-165"/>
<text text-anchor="start" x="268" y="-171.8" font-family="Times,serif" font-size="9.00" fill="#7f7f7f">0.0867</text>
<polygon fill="none" stroke="#7f7f7f" points="298,-165 298,-183 325,-183 325,-165 298,-165"/>
<text text-anchor="start" x="303.5" y="-171.8" font-family="Times,serif" font-size="9.00" fill="#7f7f7f">0.05</text>
<polygon fill="#ff7f50" stroke="transparent" points="327,-165 327,-183 358,-183 358,-165 327,-165"/>
<polygon fill="none" stroke="#000000" stroke-width="2" points="328,-166 328,-182 357,-182 357,-166 328,-166"/>
<text text-anchor="start" x="334.5" y="-171.8" font-family="Times,serif" font-size="9.00" fill="#000000">0.01</text>
<polygon fill="#ff7f50" stroke="transparent" stroke-width="2" points="360,-165 360,-183 391,-183 391,-165 360,-165"/>
<polygon fill="none" stroke="#000000" stroke-width="2" points="361,-166 361,-182 390,-182 390,-166 361,-166"/>
<text text-anchor="start" x="365" y="-171.8" font-family="Times,serif" font-size="9.00" fill="#000000">0.005</text>
<polygon fill="#ff7f50" stroke="transparent" stroke-width="2" points="393,-165 393,-183 422,-183 422,-165 393,-165"/>
<polygon fill="none" stroke="#000000" stroke-width="2" points="394,-166 394,-182 421,-182 421,-166 394,-166"/>
<text text-anchor="start" x="397" y="-171.8" font-family="Times,serif" font-size="9.00" fill="#000000">0.002</text>
<polygon fill="none" stroke="#7f7f7f" points="424,-165 424,-183 455,-183 455,-165 424,-165"/>
<text text-anchor="start" x="427" y="-171.8" font-family="Times,serif" font-size="9.00" fill="#7f7f7f">0.0001</text>
<polygon fill="none" stroke="#7f7f7f" points="56.5,-162 56.5,-206 457.5,-206 457.5,-162 56.5,-162"/>
</g>
<!-- receive_1 -->
<g id="node2" class="node">
<title>receive_1</title>
<text text-anchor="start" x="13" y="-31.8" font-family="Times,serif" font-size="9.00" fill="#7f7f7f">out</text>
<polygon fill="#ff7f50" stroke="transparent" points="29,-25 29,-43 58,-43 58,-25 29,-25"/>
<polygon fill="none" stroke="#000000" stroke-width="2" points="30,-26 30,-42 57,-42 57,-26 30,-26"/>
<text text-anchor="start" x="33" y="-31.8" font-family="Times,serif" font-size="9.00" fill="#000000">0.736</text>
<polygon fill="none" stroke="#7f7f7f" points="60,-25 60,-43 91,-43 91,-25 60,-25"/>
<text text-anchor="start" x="63" y="-31.8" font-family="Times,serif" font-size="9.00" fill="#7f7f7f">0.0635</text>
<text text-anchor="start" x="15.5" y="-12.8" font-family="Times,serif" font-size="9.00" fill="#7f7f7f">in</text>
<polygon fill="none" stroke="#7f7f7f" points="29,-7 29,-23 91,-23 91,-7 29,-7"/>
<text text-anchor="start" x="54" y="-12.8" font-family="Times,serif" font-size="9.00" fill="#7f7f7f">0.8</text>
<polygon fill="none" stroke="#7f7f7f" points="8,-4 8,-46 94,-46 94,-4 8,-4"/>
</g>
<!-- mix&#45;&gt;receive_1 -->
<g id="edge1" class="edge">
<title>mix:i01&#45;&gt;receive_1:o01</title>
<path fill="none" stroke="#000000" d="M112,-165C112,-106.2347 50.595,-105.2087 43.639,-52.9842"/>
<polygon fill="#000000" stroke="#000000" points="47.1317,-52.756 43,-43 40.146,-53.2032 47.1317,-52.756"/>
</g>
<!-- receive_2 -->
<g id="node3" class="node">
<title>receive_2</title>
<text text-anchor="start" x="133" y="-31.8" font-family="Times,serif" font-size="9.00" fill="#7f7f7f">out</text>
<polygon fill="#ff7f50" stroke="transparent" points="149,-25 149,-43 182,-43 182,-25 149,-25"/>
<polygon fill="none" stroke="#000000" stroke-width="2" points="150,-26 150,-42 181,-42 181,-26 150,-26"/>
<text text-anchor="start" x="153" y="-31.8" font-family="Times,serif" font-size="9.00" fill="#000000">0.2471</text>
<polygon fill="none" stroke="#7f7f7f" points="184,-25 184,-43 215,-43 215,-25 184,-25"/>
<text text-anchor="start" x="187" y="-31.8" font-family="Times,serif" font-size="9.00" fill="#7f7f7f">0.0512</text>
<text text-anchor="start" x="135.5" y="-12.8" font-family="Times,serif" font-size="9.00" fill="#7f7f7f">in</text>
<polygon fill="none" stroke="#7f7f7f" points="149,-7 149,-23 182,-23 182,-7 149,-7"/>
<text text-anchor="start" x="159.5" y="-12.8" font-family="Times,serif" font-size="9.00" fill="#7f7f7f">0.3</text>
<polygon fill="none" stroke="#7f7f7f" points="128,-4 128,-46 218,-46 218,-4 128,-4"/>
</g>
<!-- mix&#45;&gt;receive_2 -->
<g id="edge2" class="edge">
<title>mix:i02&#45;&gt;receive_2:o01</title>
<path fill="none" stroke="#000000" d="M165,-165C165,-114.3785 165,-99.2019 165,-53.2879"/>
<polygon fill="#000000" stroke="#000000" points="168.5001,-53 165,-43 161.5001,-53 168.5001,-53"/>
</g>
<!-- prev_mix_3 -->
<g id="node4" class="node">
<title>prev_mix_3</title>
<text text-anchor="start" x="258" y="-31.8" font-family="Times,serif" font-size="9.00" fill="#7f7f7f">out</text>
<polygon fill="none" stroke="#7f7f7f" points="274,-25 274,-43 305,-43 305,-25 274,-25"/>
<text text-anchor="start" x="281.5" y="-31.8" font-family="Times,serif" font-size="9.00" fill="#7f7f7f">0.01</text>
<polygon fill="#9acd32" stroke="transparent" points="307,-25 307,-43 338,-43 338,-25 307,-25"/>
<polygon fill="none" stroke="#000000" stroke-width="2" points="308,-26 308,-42 337,-42 337,-26 308,-26"/>
<text text-anchor="start" x="314.5" y="-31.8" font-family="Times,serif" font-size="9.00" fill="#000000">0.01</text>
<polygon fill="none" stroke="#7f7f7f" points="340,-25 340,-43 371,-43 371,-25 340,-25"/>
<text text-anchor="start" x="347.5" y="-31.8" font-family="Times,serif" font-size="9.00" fill="#7f7f7f">0.01</text>
<text text-anchor="start" x="260.5" y="-12.8" font-family="Times,serif" font-size="9.00" fill="#7f7f7f">in</text>
<polygon fill="none" stroke="#7f7f7f" points="274,-7 274,-23 305,-23 305,-7 274,-7"/>
<text text-anchor="start" x="277" y="-12.8" font-family="Times,serif" font-size="9.00" fill="#7f7f7f">0.0101</text>
<polygon fill="none" stroke="#7f7f7f" points="307,-7 307,-23 338,-23 338,-7 307,-7"/>
<text text-anchor="start" x="310" y="-12.8" font-family="Times,serif" font-size="9.00" fill="#7f7f7f">0.0101</text>
<polygon fill="none" stroke="#7f7f7f" points="340,-7 340,-23 371,-23 371,-7 340,-7"/>
<text text-anchor="start" x="343" y="-12.8" font-family="Times,serif" font-size="9.00" fill="#7f7f7f">0.0101</text>
<polygon fill="none" stroke="#7f7f7f" points="252.5,-4 252.5,-46 373.5,-46 373.5,-4 252.5,-4"/>
</g>
<!-- mix&#45;&gt;prev_mix_3 -->
<g id="edge3" class="edge">
<title>mix:i03&#45;&gt;prev_mix_3:o01</title>
<path fill="none" stroke="#000000" d="M343,-165C343,-113.5955 325.495,-99.6847 323.2385,-53.1134"/>
<polygon fill="#000000" stroke="#000000" points="326.7349,-52.9147 323,-43 319.7369,-53.0798 326.7349,-52.9147"/>
</g>
<!-- prev_mix_4 -->
<g id="node5" class="node">
<title>prev_mix_4</title>
<text text-anchor="start" x="413" y="-31.8" font-family="Times,serif" font-size="9.00" fill="#7f7f7f">out</text>
<polygon fill="none" stroke="#7f7f7f" points="429,-25 429,-43 460,-43 460,-25 429,-25"/>
<text text-anchor="start" x="434" y="-31.8" font-family="Times,serif" font-size="9.00" fill="#7f7f7f">0.005</text>
<polygon fill="none" stroke="#7f7f7f" points="462,-25 462,-43 493,-43 493,-25 462,-25"/>
<text text-anchor="start" x="467" y="-31.8" font-family="Times,serif" font-size="9.00" fill="#7f7f7f">0.005</text>
<polygon fill="#9acd32" stroke="transparent" points="495,-25 495,-43 526,-43 526,-25 495,-25"/>
<polygon fill="none" stroke="#000000" stroke-width="2" points="496,-26 496,-42 525,-42 525,-26 496,-26"/>
<text text-anchor="start" x="500" y="-31.8" font-family="Times,serif" font-size="9.00" fill="#000000">0.005</text>
<text text-anchor="start" x="415.5" y="-12.8" font-family="Times,serif" font-size="9.00" fill="#7f7f7f">in</text>
<polygon fill="none" stroke="#7f7f7f" points="429,-7 429,-23 460,-23 460,-7 429,-7"/>
<text text-anchor="start" x="432" y="-12.8" font-family="Times,serif" font-size="9.00" fill="#7f7f7f">0.0051</text>
<polygon fill="none" stroke="#7f7f7f" points="462,-7 462,-23 493,-23 493,-7 462,-7"/>
<text text-anchor="start" x="465" y="-12.8" font-family="Times,serif" font-size="9.00" fill="#7f7f7f">0.0051</text>
<polygon fill="none" stroke="#7f7f7f" points="495,-7 495,-23 526,-23 526,-7 495,-7"/>
<text text-anchor="start" x="498" y="-12.8" font-family="Times,serif" font-size="9.00" fill="#7f7f7f">0.0051</text>
<polygon fill="none" stroke="#7f7f7f" points="407.5,-4 407.5,-46 528.5,-46 528.5,-4 407.5,-4"/>
</g>
<!-- mix&#45;&gt;prev_mix_4 -->
<g id="edge4" class="edge">
<title>mix:i04&#45;&gt;prev_mix_4:o01</title>
<path fill="none" stroke="#000000" d="M376,-165C376,-87.7623 499.1435,-120.5435 510.2072,-53.1903"/>
<polygon fill="#000000" stroke="#000000" points="513.7137,-53.2414 511,-43 506.7348,-52.6984 513.7137,-53.2414"/>
</g>
<!-- prev_mix_5 -->
<g id="node6" class="node">
<title>prev_mix_5</title>
<text text-anchor="start" x="568" y="-31.8" font-family="Times,serif" font-size="9.00" fill="#7f7f7f">out</text>
<polygon fill="#9acd32" stroke="transparent" points="584,-25 584,-43 615,-43 615,-25 584,-25"/>
<polygon fill="none" stroke="#000000" stroke-width="2" points="585,-26 585,-42 614,-42 614,-26 585,-26"/>
<text text-anchor="start" x="589" y="-31.8" font-family="Times,serif" font-size="9.00" fill="#000000">0.002</text>
<polygon fill="none" stroke="#7f7f7f" points="617,-25 617,-43 648,-43 648,-25 617,-25"/>
<text text-anchor="start" x="624.5" y="-31.8" font-family="Times,serif" font-size="9.00" fill="#7f7f7f">0.02</text>
<polygon fill="none" stroke="#7f7f7f" points="650,-25 650,-43 681,-43 681,-25 650,-25"/>
<text text-anchor="start" x="657.5" y="-31.8" font-family="Times,serif" font-size="9.00" fill="#7f7f7f">0.02</text>
<text text-anchor="start" x="570.5" y="-12.8" font-family="Times,serif" font-size="9.00" fill="#7f7f7f">in</text>
<polygon fill="none" stroke="#7f7f7f" points="584,-7 584,-23 615,-23 615,-7 584,-7"/>
<text text-anchor="start" x="587" y="-12.8" font-family="Times,serif" font-size="9.00" fill="#7f7f7f">0.0201</text>
<polygon fill="none" stroke="#7f7f7f" points="617,-7 617,-23 648,-23 648,-7 617,-7"/>
<text text-anchor="start" x="620" y="-12.8" font-family="Times,serif" font-size="9.00" fill="#7f7f7f">0.0201</text>
<polygon fill="none" stroke="#7f7f7f" points="650,-7 650,-23 681,-23 681,-7 650,-7"/>
<text text-anchor="start" x="653" y="-12.8" font-family="Times,serif" font-size="9.00" fill="#7f7f7f">0.0201</text>
<polygon fill="none" stroke="#7f7f7f" points="562.5,-4 562.5,-46 683.5,-46 683.5,-4 562.5,-4"/>
</g>
<!-- mix&#45;&gt;prev_mix_5 -->
<g id="edge5" class="edge">
<title>mix:i05&#45;&gt;prev_mix_5:o01</title>
<path fill="none" stroke="#000000" d="M408,-165C408,-67.9114 585.4466,-138.2215 598.2699,-53.23"/>
<polygon fill="#000000" stroke="#000000" points="601.7792,-53.2238 599,-43 594.7969,-52.7255 601.7792,-53.2238"/>
</g>
</g>
</svg>
