<?xml version="1.0" encoding="UTF-8" standalone="no"?>
<!DOCTYPE svg PUBLIC "-//W3C//DTD SVG 1.1//EN"
 "http://www.w3.org/Graphics/SVG/1.1/DTD/svg11.dtd">
<!-- Generated by graphviz version 2.40.1 (20161225.0304)
 -->
<!-- Title: %3 Pages: 1 -->
<svg width="755pt" height="146pt"
 viewBox="0.00 0.00 754.50 146.00" xmlns="http://www.w3.org/2000/svg" xmlns:xlink="http://www.w3.org/1999/xlink">
<g id="graph0" class="graph" transform="scale(1 1) rotate(0) translate(4 142)">
<title>%3</title>
<polygon fill="#ffffff" stroke="transparent" points="-4,4 -4,-142 750.5,-142 750.5,4 -4,4"/>
<!-- mix -->
<g id="node1" class="node">
<title>mix</title>
<text text-anchor="start" x="27" y="-119.8" font-family="Times,serif" font-size="9.00" fill="#7f7f7f">out</text>
<polygon fill="none" stroke="#7f7f7f" points="43,-113 43,-131 61,-131 61,-113 43,-113"/>
<text text-anchor="start" x="46" y="-119.8" font-family="Times,serif" font-size="9.00" fill="#7f7f7f">1.0</text>
<polygon fill="#9acd32" stroke="transparent" points="63,-113 63,-131 92,-131 92,-113 63,-113"/>
<polygon fill="none" stroke="#000000" stroke-width="2" points="64,-114 64,-130 91,-130 91,-114 64,-114"/>
<text text-anchor="start" x="71.5" y="-119.8" font-family="Times,serif" font-size="9.00" fill="#000000">1.0</text>
<polygon fill="none" stroke="#7f7f7f" points="94,-113 94,-131 112,-131 112,-113 94,-113"/>
<text text-anchor="start" x="97" y="-119.8" font-family="Times,serif" font-size="9.00" fill="#7f7f7f">1.0</text>
<polygon fill="none" stroke="#7f7f7f" points="114,-113 114,-131 147,-131 147,-113 114,-113"/>
<text text-anchor="start" x="124.5" y="-119.8" font-family="Times,serif" font-size="9.00" fill="#7f7f7f">0.5</text>
<polygon fill="none" stroke="#7f7f7f" points="149,-113 149,-131 180,-131 180,-113 149,-113"/>
<text text-anchor="start" x="156.5" y="-119.8" font-family="Times,serif" font-size="9.00" fill="#7f7f7f">0.05</text>
<polygon fill="none" stroke="#7f7f7f" points="182,-113 182,-131 213,-131 213,-113 182,-113"/>
<text text-anchor="start" x="189.5" y="-119.8" font-family="Times,serif" font-size="9.00" fill="#7f7f7f">0.05</text>
<polygon fill="none" stroke="#7f7f7f" points="215,-113 215,-131 237,-131 237,-113 215,-113"/>
<text text-anchor="start" x="218" y="-119.8" font-family="Times,serif" font-size="9.00" fill="#7f7f7f">0.02</text>
<polygon fill="none" stroke="#7f7f7f" points="239,-113 239,-131 261,-131 261,-113 239,-113"/>
<text text-anchor="start" x="242" y="-119.8" font-family="Times,serif" font-size="9.00" fill="#7f7f7f">0.01</text>
<polygon fill="none" stroke="#7f7f7f" points="263,-113 263,-131 290,-131 290,-113 263,-113"/>
<text text-anchor="start" x="266" y="-119.8" font-family="Times,serif" font-size="9.00" fill="#7f7f7f">0.005</text>
<polygon fill="none" stroke="#7f7f7f" points="292,-113 292,-131 319,-131 319,-113 292,-113"/>
<text text-anchor="start" x="295" y="-119.8" font-family="Times,serif" font-size="9.00" fill="#7f7f7f">0.001</text>
<polygon fill="none" stroke="#7f7f7f" points="321,-113 321,-131 352,-131 352,-113 321,-113"/>
<text text-anchor="start" x="324" y="-119.8" font-family="Times,serif" font-size="9.00" fill="#7f7f7f">0.0005</text>
<polygon fill="none" stroke="#7f7f7f" points="354,-113 354,-131 385,-131 385,-113 354,-113"/>
<text text-anchor="start" x="357" y="-119.8" font-family="Times,serif" font-size="9.00" fill="#7f7f7f">0.0002</text>
<polygon fill="none" stroke="#7f7f7f" points="387,-113 387,-131 418,-131 418,-113 387,-113"/>
<text text-anchor="start" x="390" y="-119.8" font-family="Times,serif" font-size="9.00" fill="#7f7f7f">0.0001</text>
<polygon fill="none" stroke="#7f7f7f" points="420,-113 420,-131 451,-131 451,-113 420,-113"/>
<text text-anchor="start" x="423" y="-119.8" font-family="Times,serif" font-size="9.00" fill="#7f7f7f">0.0001</text>
<text text-anchor="start" x="29.5" y="-99.8" font-family="Times,serif" font-size="9.00" fill="#7f7f7f">in</text>
<polygon fill="none" stroke="#7f7f7f" points="43,-93 43,-111 61,-111 61,-93 43,-93"/>
<text text-anchor="start" x="46" y="-99.8" font-family="Times,serif" font-size="9.00" fill="#7f7f7f">1.0</text>
<polygon fill="#ffd700" stroke="transparent" points="63,-93 63,-111 92,-111 92,-93 63,-93"/>
<polygon fill="none" stroke="#000000" stroke-width="2" points="64,-94 64,-110 91,-110 91,-94 64,-94"/>
<text text-anchor="start" x="67" y="-99.8" font-family="Times,serif" font-size="9.00" fill="#000000">0.736</text>
<polygon fill="none" stroke="#7f7f7f" points="94,-93 94,-111 112,-111 112,-93 94,-93"/>
<text text-anchor="start" x="97" y="-99.8" font-family="Times,serif" font-size="9.00" fill="#7f7f7f">0.5</text>
<polygon fill="#ffd700" stroke="transparent" points="114,-93 114,-111 147,-111 147,-93 114,-93"/>
<polygon fill="none" stroke="#000000" stroke-width="2" points="115,-94 115,-110 146,-110 146,-94 115,-94"/>
<text text-anchor="start" x="118" y="-99.8" font-family="Times,serif" font-size="9.00" fill="#000000">0.2471</text>
<polygon fill="none" stroke="#7f7f7f" points="149,-93 149,-111 180,-111 180,-93 149,-93"/>
<text text-anchor="start" x="152" y="-99.8" font-family="Times,serif" font-size="9.00" fill="#7f7f7f">0.2211</text>
<polygon fill="none" stroke="#7f7f7f" points="182,-93 182,-111 213,-111 213,-93 182,-93"/>
<text text-anchor="start" x="185" y="-99.8" font-family="Times,serif" font-size="9.00" fill="#7f7f7f">0.2001</text>
<polygon fill="none" stroke="#7f7f7f" points="215,-93 215,-111 237,-111 237,-93 215,-93"/>
<text text-anchor="start" x="220" y="-99.8" font-family="Times,serif" font-size="9.00" fill="#7f7f7f">0.2</text>
<polygon fill="none" stroke="#7f7f7f" points="239,-93 239,-111 261,-111 261,-93 239,-93"/>
<text text-anchor="start" x="244" y="-99.8" font-family="Times,serif" font-size="9.00" fill="#7f7f7f">0.1</text>
<polygon fill="none" stroke="#7f7f7f" points="263,-93 263,-111 290,-111 290,-93 263,-93"/>
<text text-anchor="start" x="270.5" y="-99.8" font-family="Times,serif" font-size="9.00" fill="#7f7f7f">0.1</text>
<polygon fill="none" stroke="#7f7f7f" points="292,-93 292,-111 319,-111 319,-93 292,-93"/>
<text text-anchor="start" x="297.5" y="-99.8" font-family="Times,serif" font-size="9.00" fill="#7f7f7f">0.05</text>
<polygon fill="none" stroke="#7f7f7f" points="321,-93 321,-111 352,-111 352,-93 321,-93"/>
<text text-anchor="start" x="328.5" y="-99.8" font-family="Times,serif" font-size="9.00" fill="#7f7f7f">0.05</text>
<polygon fill="none" stroke="#7f7f7f" points="354,-93 354,-111 385,-111 385,-93 354,-93"/>
<text text-anchor="start" x="357" y="-99.8" font-family="Times,serif" font-size="9.00" fill="#7f7f7f">0.0867</text>
<polygon fill="none" stroke="#7f7f7f" points="387,-93 387,-111 418,-111 418,-93 387,-93"/>
<text text-anchor="start" x="390" y="-99.8" font-family="Times,serif" font-size="9.00" fill="#7f7f7f">0.0451</text>
<polygon fill="none" stroke="#7f7f7f" points="420,-93 420,-111 451,-111 451,-93 420,-93"/>
<text text-anchor="start" x="423" y="-99.8" font-family="Times,serif" font-size="9.00" fill="#7f7f7f">0.0332</text>
<polygon fill="none" stroke="#7f7f7f" points="453,-93 453,-111 475,-111 475,-93 453,-93"/>
<text text-anchor="start" x="456" y="-99.8" font-family="Times,serif" font-size="9.00" fill="#7f7f7f">0.02</text>
<polygon fill="none" stroke="#7f7f7f" points="477,-93 477,-111 499,-111 499,-93 477,-93"/>
<text text-anchor="start" x="480" y="-99.8" font-family="Times,serif" font-size="9.00" fill="#7f7f7f">0.02</text>
<polygon fill="none" stroke="#7f7f7f" points="501,-93 501,-111 523,-111 523,-93 501,-93"/>
<text text-anchor="start" x="504" y="-99.8" font-family="Times,serif" font-size="9.00" fill="#7f7f7f">0.01</text>
<polygon fill="#ffd700" stroke="transparent" points="525,-93 525,-111 549,-111 549,-93 525,-93"/>
<polygon fill="none" stroke="#000000" stroke-width="2" points="526,-94 526,-110 548,-110 548,-94 526,-94"/>
<text text-anchor="start" x="529" y="-99.8" font-family="Times,serif" font-size="9.00" fill="#000000">0.01</text>
<polygon fill="#ffd700" stroke="transparent" stroke-width="2" points="551,-93 551,-111 580,-111 580,-93 551,-93"/>
<polygon fill="none" stroke="#000000" stroke-width="2" points="552,-94 552,-110 579,-110 579,-94 552,-94"/>
<text text-anchor="start" x="555" y="-99.8" font-family="Times,serif" font-size="9.00" fill="#000000">0.005</text>
<polygon fill="#ffd700" stroke="transparent" stroke-width="2" points="582,-93 582,-111 611,-111 611,-93 582,-93"/>
<polygon fill="none" stroke="#000000" stroke-width="2" points="583,-94 583,-110 610,-110 610,-94 583,-94"/>
<text text-anchor="start" x="586" y="-99.8" font-family="Times,serif" font-size="9.00" fill="#000000">0.002</text>
<polygon fill="none" stroke="#7f7f7f" points="613,-93 613,-111 640,-111 640,-93 613,-93"/>
<text text-anchor="start" x="616" y="-99.8" font-family="Times,serif" font-size="9.00" fill="#7f7f7f">0.001</text>
<polygon fill="none" stroke="#7f7f7f" points="642,-93 642,-111 673,-111 673,-93 642,-93"/>
<text text-anchor="start" x="645" y="-99.8" font-family="Times,serif" font-size="9.00" fill="#7f7f7f">0.0001</text>
<polygon fill="none" stroke="#7f7f7f" points="22,-90 22,-134 676,-134 676,-90 22,-90"/>
</g>
<!-- receive_1 -->
<g id="node2" class="node">
<title>receive_1</title>
<text text-anchor="start" x="13" y="-31.8" font-family="Times,serif" font-size="9.00" fill="#7f7f7f">out</text>
<polygon fill="#ff7f50" stroke="transparent" points="29,-25 29,-43 58,-43 58,-25 29,-25"/>
<polygon fill="none" stroke="#000000" stroke-width="2" points="30,-26 30,-42 57,-42 57,-26 30,-26"/>
<text text-anchor="start" x="33" y="-31.8" font-family="Times,serif" font-size="9.00" fill="#000000">0.736</text>
<polygon fill="none" stroke="#7f7f7f" points="60,-25 60,-43 91,-43 91,-25 60,-25"/>
<text text-anchor="start" x="63" y="-31.8" font-family="Times,serif" font-size="9.00" fill="#7f7f7f">0.0635</text>
<text text-anchor="start" x="15.5" y="-12.8" font-family="Times,serif" font-size="9.00" fill="#7f7f7f">in</text>
<polygon fill="none" stroke="#7f7f7f" points="29,-7 29,-23 91,-23 91,-7 29,-7"/>
<text text-anchor="start" x="54" y="-12.8" font-family="Times,serif" font-size="9.00" fill="#7f7f7f">0.8</text>
<polygon fill="none" stroke="#7f7f7f" points="8,-4 8,-46 94,-46 94,-4 8,-4"/>
</g>
<!-- mix&#45;&gt;receive_1 -->
<g id="edge1" class="edge">
<title>mix:i01&#45;&gt;receive_1:o01</title>
<path fill="none" stroke="#000000" d="M77,-93C77,-70.1157 52.3446,-69.4357 45.025,-53.1433"/>
<polygon fill="#000000" stroke="#000000" points="48.3901,-52.1212 43,-43 41.5256,-53.4917 48.3901,-52.1212"/>
</g>
<!-- receive_2 -->
<g id="node3" class="node">
<title>receive_2</title>
<text text-anchor="start" x="133" y="-31.8" font-family="Times,serif" font-size="9.00" fill="#7f7f7f">out</text>
<polygon fill="#ff7f50" stroke="transparent" points="149,-25 149,-43 182,-43 182,-25 149,-25"/>
<polygon fill="none" stroke="#000000" stroke-width="2" points="150,-26 150,-42 181,-42 181,-26 150,-26"/>
<text text-anchor="start" x="153" y="-31.8" font-family="Times,serif" font-size="9.00" fill="#000000">0.2471</text>
<polygon fill="none" stroke="#7f7f7f" points="184,-25 184,-43 215,-43 215,-25 184,-25"/>
<text text-anchor="start" x="187" y="-31.8" font-family="Times,serif" font-size="9.00" fill="#7f7f7f">0.0512</text>
<text text-anchor="start" x="135.5" y="-12.8" font-family="Times,serif" font-size="9.00" fill="#7f7f7f">in</text>
<polygon fill="none" stroke="#7f7f7f" points="149,-7 149,-23 182,-23 182,-7 149,-7"/>
<text text-anchor="start" x="159.5" y="-12.8" font-family="Times,serif" font-size="9.00" fill="#7f7f7f">0.3</text>
<polygon fill="none" stroke="#7f7f7f" points="128,-4 128,-46 218,-46 218,-4 128,-4"/>
</g>
<!-- mix&#45;&gt;receive_2 -->
<g id="edge2" class="edge">
<title>mix:i02&#45;&gt;receive_2:o01</title>
<path fill="none" stroke="#000000" d="M130,-93C130,-69.9008 155.3806,-69.5549 162.9154,-53.2106"/>
<polygon fill="#000000" stroke="#000000" points="166.4288,-53.498 165,-43 159.5703,-52.0977 166.4288,-53.498"/>
</g>
<!-- prev_mix_3 -->
<g id="node4" class="node">
<title>prev_mix_3</title>
<text text-anchor="start" x="313" y="-31.8" font-family="Times,serif" font-size="9.00" fill="#7f7f7f">out</text>
<polygon fill="none" stroke="#7f7f7f" points="329,-25 329,-43 360,-43 360,-25 329,-25"/>
<text text-anchor="start" x="336.5" y="-31.8" font-family="Times,serif" font-size="9.00" fill="#7f7f7f">0.01</text>
<polygon fill="#9acd32" stroke="transparent" points="362,-25 362,-43 393,-43 393,-25 362,-25"/>
<polygon fill="none" stroke="#000000" stroke-width="2" points="363,-26 363,-42 392,-42 392,-26 363,-26"/>
<text text-anchor="start" x="369.5" y="-31.8" font-family="Times,serif" font-size="9.00" fill="#000000">0.01</text>
<polygon fill="none" stroke="#7f7f7f" points="395,-25 395,-43 426,-43 426,-25 395,-25"/>
<text text-anchor="start" x="402.5" y="-31.8" font-family="Times,serif" font-size="9.00" fill="#7f7f7f">0.01</text>
<text text-anchor="start" x="315.5" y="-12.8" font-family="Times,serif" font-size="9.00" fill="#7f7f7f">in</text>
<polygon fill="none" stroke="#7f7f7f" points="329,-7 329,-23 360,-23 360,-7 329,-7"/>
<text text-anchor="start" x="332" y="-12.8" font-family="Times,serif" font-size="9.00" fill="#7f7f7f">0.0101</text>
<polygon fill="none" stroke="#7f7f7f" points="362,-7 362,-23 393,-23 393,-7 362,-7"/>
<text text-anchor="start" x="365" y="-12.8" font-family="Times,serif" font-size="9.00" fill="#7f7f7f">0.0101</text>
<polygon fill="none" stroke="#7f7f7f" points="395,-7 395,-23 426,-23 426,-7 395,-7"/>
<text text-anchor="start" x="398" y="-12.8" font-family="Times,serif" font-size="9.00" fill="#7f7f7f">0.0101</text>
<polygon fill="none" stroke="#7f7f7f" points="307.5,-4 307.5,-46 428.5,-46 428.5,-4 307.5,-4"/>
</g>
<!-- mix&#45;&gt;prev_mix_3 -->
<g id="edge3" class="edge">
<title>mix:i03&#45;&gt;prev_mix_3:o01</title>
<path fill="none" stroke="#000000" d="M537,-93C537,-22.6834 393.7384,-107.5535 379.1884,-52.998"/>
<polygon fill="#000000" stroke="#000000" points="382.656,-52.5169 378,-43 375.7049,-53.3432 382.656,-52.5169"/>
</g>
<!-- prev_mix_4 -->
<g id="node5" class="node">
<title>prev_mix_4</title>
<text text-anchor="start" x="468" y="-31.8" font-family="Times,serif" font-size="9.00" fill="#7f7f7f">out</text>
<polygon fill="none" stroke="#7f7f7f" points="484,-25 484,-43 515,-43 515,-25 484,-25"/>
<text text-anchor="start" x="489" y="-31.8" font-family="Times,serif" font-size="9.00" fill="#7f7f7f">0.005</text>
<polygon fill="none" stroke="#7f7f7f" points="517,-25 517,-43 548,-43 548,-25 517,-25"/>
<text text-anchor="start" x="522" y="-31.8" font-family="Times,serif" font-size="9.00" fill="#7f7f7f">0.005</text>
<polygon fill="#9acd32" stroke="transparent" points="550,-25 550,-43 581,-43 581,-25 550,-25"/>
<polygon fill="none" stroke="#000000" stroke-width="2" points="551,-26 551,-42 580,-42 580,-26 551,-26"/>
<text text-anchor="start" x="555" y="-31.8" font-family="Times,serif" font-size="9.00" fill="#000000">0.005</text>
<text text-anchor="start" x="470.5" y="-12.8" font-family="Times,serif" font-size="9.00" fill="#7f7f7f">in</text>
<polygon fill="none" stroke="#7f7f7f" points="484,-7 484,-23 515,-23 515,-7 484,-7"/>
<text text-anchor="start" x="487" y="-12.8" font-family="Times,serif" font-size="9.00" fill="#7f7f7f">0.0051</text>
<polygon fill="none" stroke="#7f7f7f" points="517,-7 517,-23 548,-23 548,-7 517,-7"/>
<text text-anchor="start" x="520" y="-12.8" font-family="Times,serif" font-size="9.00" fill="#7f7f7f">0.0051</text>
<polygon fill="none" stroke="#7f7f7f" points="550,-7 550,-23 581,-23 581,-7 550,-7"/>
<text text-anchor="start" x="553" y="-12.8" font-family="Times,serif" font-size="9.00" fill="#7f7f7f">0.0051</text>
<polygon fill="none" stroke="#7f7f7f" points="462.5,-4 462.5,-46 583.5,-46 583.5,-4 462.5,-4"/>
</g>
<!-- mix&#45;&gt;prev_mix_4 -->
<g id="edge4" class="edge">
<title>mix:i04&#45;&gt;prev_mix_4:o01</title>
<path fill="none" stroke="#000000" d="M566,-93C566,-74.5972 566,-67.6243 566,-53.1505"/>
<polygon fill="#000000" stroke="#000000" points="569.5001,-53 566,-43 562.5001,-53 569.5001,-53"/>
</g>
<!-- prev_mix_5 -->
<g id="node6" class="node">
<title>prev_mix_5</title>
<text text-anchor="start" x="623" y="-31.8" font-family="Times,serif" font-size="9.00" fill="#7f7f7f">out</text>
<polygon fill="#9acd32" stroke="transparent" points="639,-25 639,-43 670,-43 670,-25 639,-25"/>
<polygon fill="none" stroke="#000000" stroke-width="2" points="640,-26 640,-42 669,-42 669,-26 640,-26"/>
<text text-anchor="start" x="644" y="-31.8" font-family="Times,serif" font-size="9.00" fill="#000000">0.002</text>
<polygon fill="none" stroke="#7f7f7f" points="672,-25 672,-43 703,-43 703,-25 672,-25"/>
<text text-anchor="start" x="679.5" y="-31.8" font-family="Times,serif" font-size="9.00" fill="#7f7f7f">0.02</text>
<polygon fill="none" stroke="#7f7f7f" points="705,-25 705,-43 736,-43 736,-25 705,-25"/>
<text text-anchor="start" x="712.5" y="-31.8" font-family="Times,serif" font-size="9.00" fill="#7f7f7f">0.02</text>
<text text-anchor="start" x="625.5" y="-12.8" font-family="Times,serif" font-size="9.00" fill="#7f7f7f">in</text>
<polygon fill="none" stroke="#7f7f7f" points="639,-7 639,-23 670,-23 670,-7 639,-7"/>
<text text-anchor="start" x="642" y="-12.8" font-family="Times,serif" font-size="9.00" fill="#7f7f7f">0.0201</text>
<polygon fill="none" stroke="#7f7f7f" points="672,-7 672,-23 703,-23 703,-7 672,-7"/>
<text text-anchor="start" x="675" y="-12.8" font-family="Times,serif" font-size="9.00" fill="#7f7f7f">0.0201</text>
<polygon fill="none" stroke="#7f7f7f" points="705,-7 705,-23 736,-23 736,-7 705,-7"/>
<text text-anchor="start" x="708" y="-12.8" font-family="Times,serif" font-size="9.00" fill="#7f7f7f">0.0201</text>
<polygon fill="none" stroke="#7f7f7f" points="617.5,-4 617.5,-46 738.5,-46 738.5,-4 617.5,-4"/>
</g>
<!-- mix&#45;&gt;prev_mix_5 -->
<g id="edge5" class="edge">
<title>mix:i05&#45;&gt;prev_mix_5:o01</title>
<path fill="none" stroke="#000000" d="M597,-93C597,-63.2503 641.4234,-73.3229 651.8351,-52.9066"/>
<polygon fill="#000000" stroke="#000000" points="655.2843,-53.5167 654,-43 648.4457,-52.0222 655.2843,-53.5167"/>
</g>
</g>
</svg>
