<?xml version="1.0" encoding="UTF-8" standalone="no"?>
<!DOCTYPE svg PUBLIC "-//W3C//DTD SVG 1.1//EN"
 "http://www.w3.org/Graphics/SVG/1.1/DTD/svg11.dtd">
<!-- Generated by graphviz version 2.40.1 (20161225.0304)
 -->
<!-- Title: %3 Pages: 1 -->
<svg width="476pt" height="146pt"
 viewBox="0.00 0.00 475.50 146.00" xmlns="http://www.w3.org/2000/svg" xmlns:xlink="http://www.w3.org/1999/xlink">
<g id="graph0" class="graph" transform="scale(1 1) rotate(0) translate(4 142)">
<title>%3</title>
<polygon fill="#ffffff" stroke="transparent" points="-4,4 -4,-142 471.5,-142 471.5,4 -4,4"/>
<!-- mix -->
<g id="node1" class="node">
<title>mix</title>
<text text-anchor="start" x="18.5" y="-119.8" font-family="Times,serif" font-size="9.00" fill="#7f7f7f">out</text>
<polygon fill="none" stroke="#7f7f7f" points="34.5,-113 34.5,-131 52.5,-131 52.5,-113 34.5,-113"/>
<text text-anchor="start" x="37.5" y="-119.8" font-family="Times,serif" font-size="9.00" fill="#7f7f7f">0.1</text>
<polygon fill="none" stroke="#7f7f7f" points="54.5,-113 54.5,-131 103.5,-131 103.5,-113 54.5,-113"/>
<text text-anchor="start" x="57.5" y="-119.8" font-family="Times,serif" font-size="9.00" fill="#7f7f7f">0.08813814</text>
<polygon fill="#ff7f50" stroke="transparent" points="105.5,-113 105.5,-131 156.5,-131 156.5,-113 105.5,-113"/>
<polygon fill="none" stroke="#000000" stroke-width="2" points="106.5,-114 106.5,-130 155.5,-130 155.5,-114 106.5,-114"/>
<text text-anchor="start" x="109.5" y="-119.8" font-family="Times,serif" font-size="9.00" fill="#000000">0.03916501</text>
<polygon fill="#ff7f50" stroke="transparent" stroke-width="2" points="158.5,-113 158.5,-131 209.5,-131 209.5,-113 158.5,-113"/>
<polygon fill="none" stroke="#000000" stroke-width="2" points="159.5,-114 159.5,-130 208.5,-130 208.5,-114 159.5,-114"/>
<text text-anchor="start" x="162.5" y="-119.8" font-family="Times,serif" font-size="9.00" fill="#000000">0.02638449</text>
<polygon fill="#ffd700" stroke="transparent" stroke-width="2" points="211.5,-113 211.5,-131 235.5,-131 235.5,-113 211.5,-113"/>
<polygon fill="none" stroke="#000000" stroke-width="2" points="212.5,-114 212.5,-130 234.5,-130 234.5,-114 212.5,-114"/>
<text text-anchor="start" x="215.5" y="-119.8" font-family="Times,serif" font-size="9.00" fill="#000000">0.02</text>
<polygon fill="#ff7f50" stroke="transparent" stroke-width="2" points="237.5,-113 237.5,-131 288.5,-131 288.5,-113 237.5,-113"/>
<polygon fill="none" stroke="#000000" stroke-width="2" points="238.5,-114 238.5,-130 287.5,-130 287.5,-114 238.5,-114"/>
<text text-anchor="start" x="241.5" y="-119.8" font-family="Times,serif" font-size="9.00" fill="#000000">0.00934178</text>
<polygon fill="none" stroke="#7f7f7f" points="290.5,-113 290.5,-131 312.5,-131 312.5,-113 290.5,-113"/>
<text text-anchor="start" x="293.5" y="-119.8" font-family="Times,serif" font-size="9.00" fill="#7f7f7f">0.01</text>
<polygon fill="#ffd700" stroke="transparent" points="314.5,-113 314.5,-131 343.5,-131 343.5,-113 314.5,-113"/>
<polygon fill="none" stroke="#000000" stroke-width="2" points="315.5,-114 315.5,-130 342.5,-130 342.5,-114 315.5,-114"/>
<text text-anchor="start" x="318.5" y="-119.8" font-family="Times,serif" font-size="9.00" fill="#000000">0.005</text>
<polygon fill="none" stroke="#7f7f7f" points="345.5,-113 345.5,-131 372.5,-131 372.5,-113 345.5,-113"/>
<text text-anchor="start" x="348.5" y="-119.8" font-family="Times,serif" font-size="9.00" fill="#7f7f7f">0.001</text>
<polygon fill="none" stroke="#7f7f7f" points="374.5,-113 374.5,-131 405.5,-131 405.5,-113 374.5,-113"/>
<text text-anchor="start" x="377.5" y="-119.8" font-family="Times,serif" font-size="9.00" fill="#7f7f7f">0.0005</text>
<polygon fill="#000000" stroke="transparent" points="407.5,-113 407.5,-131 456.5,-131 456.5,-113 407.5,-113"/>
<polygon fill="none" stroke="#7f7f7f" points="407.5,-113 407.5,-131 456.5,-131 456.5,-113 407.5,-113"/>
<text text-anchor="start" x="410.5" y="-119.8" font-family="Times,serif" font-size="9.00" fill="#7f7f7f">0.00027058</text>
<text text-anchor="start" x="21" y="-99.8" font-family="Times,serif" font-size="9.00" fill="#7f7f7f">in</text>
<polygon fill="none" stroke="#7f7f7f" points="34.5,-93 34.5,-111 52.5,-111 52.5,-93 34.5,-93"/>
<text text-anchor="start" x="37.5" y="-99.8" font-family="Times,serif" font-size="9.00" fill="#7f7f7f">0.1</text>
<polygon fill="#9acd32" stroke="transparent" points="54.5,-93 54.5,-111 103.5,-111 103.5,-93 54.5,-93"/>
<polygon fill="none" stroke="#000000" stroke-width="2" points="55.5,-94 55.5,-110 102.5,-110 102.5,-94 55.5,-94"/>
<text text-anchor="start" x="73" y="-99.8" font-family="Times,serif" font-size="9.00" fill="#000000">0.1</text>
<polygon fill="none" stroke="#7f7f7f" points="105.5,-93 105.5,-111 156.5,-111 156.5,-93 105.5,-93"/>
<text text-anchor="start" x="125" y="-99.8" font-family="Times,serif" font-size="9.00" fill="#7f7f7f">0.1</text>
<polygon fill="none" stroke="#7f7f7f" points="158.5,-93 158.5,-111 209.5,-111 209.5,-93 158.5,-93"/>
<text text-anchor="start" x="171.5" y="-99.8" font-family="Times,serif" font-size="9.00" fill="#7f7f7f">0.0001</text>
<polygon fill="none" stroke="#7f7f7f" points="13.5,-90 13.5,-134 459.5,-134 459.5,-90 13.5,-90"/>
</g>
<!-- prev_mix -->
<g id="node2" class="node">
<title>prev_mix</title>
<text text-anchor="start" x="13.5" y="-31.8" font-family="Times,serif" font-size="9.00" fill="#7f7f7f">out</text>
<polygon fill="none" stroke="#7f7f7f" points="29.5,-25 29.5,-43 60.5,-43 60.5,-25 29.5,-25"/>
<text text-anchor="start" x="39" y="-31.8" font-family="Times,serif" font-size="9.00" fill="#7f7f7f">0.1</text>
<polygon fill="#9acd32" stroke="transparent" points="62.5,-25 62.5,-43 93.5,-43 93.5,-25 62.5,-25"/>
<polygon fill="none" stroke="#000000" stroke-width="2" points="63.5,-26 63.5,-42 92.5,-42 92.5,-26 63.5,-26"/>
<text text-anchor="start" x="72" y="-31.8" font-family="Times,serif" font-size="9.00" fill="#000000">0.1</text>
<polygon fill="none" stroke="#7f7f7f" points="95.5,-25 95.5,-43 126.5,-43 126.5,-25 95.5,-25"/>
<text text-anchor="start" x="105" y="-31.8" font-family="Times,serif" font-size="9.00" fill="#7f7f7f">0.1</text>
<text text-anchor="start" x="16" y="-12.8" font-family="Times,serif" font-size="9.00" fill="#7f7f7f">in</text>
<polygon fill="none" stroke="#7f7f7f" points="29.5,-7 29.5,-23 60.5,-23 60.5,-7 29.5,-7"/>
<text text-anchor="start" x="32.5" y="-12.8" font-family="Times,serif" font-size="9.00" fill="#7f7f7f">0.1001</text>
<polygon fill="none" stroke="#7f7f7f" points="62.5,-7 62.5,-23 93.5,-23 93.5,-7 62.5,-7"/>
<text text-anchor="start" x="65.5" y="-12.8" font-family="Times,serif" font-size="9.00" fill="#7f7f7f">0.1001</text>
<polygon fill="none" stroke="#7f7f7f" points="95.5,-7 95.5,-23 126.5,-23 126.5,-7 95.5,-7"/>
<text text-anchor="start" x="98.5" y="-12.8" font-family="Times,serif" font-size="9.00" fill="#7f7f7f">0.1001</text>
<polygon fill="none" stroke="#7f7f7f" points="8,-4 8,-46 129,-46 129,-4 8,-4"/>
</g>
<!-- mix&#45;&gt;prev_mix -->
<g id="edge1" class="edge">
<title>mix:i01&#45;&gt;prev_mix:o01</title>
<path fill="none" stroke="#000000" d="M78.5,-93C78.5,-74.5972 78.5,-67.6243 78.5,-53.1505"/>
<polygon fill="#000000" stroke="#000000" points="82.0001,-53 78.5,-43 75.0001,-53 82.0001,-53"/>
</g>
</g>
</svg>
