<?xml version="1.0" encoding="UTF-8" standalone="no"?>
<!DOCTYPE svg PUBLIC "-//W3C//DTD SVG 1.1//EN"
 "http://www.w3.org/Graphics/SVG/1.1/DTD/svg11.dtd">
<!-- Generated by graphviz version 2.40.1 (20161225.0304)
 -->
<!-- Title: %3 Pages: 1 -->
<svg width="852pt" height="146pt"
 viewBox="0.00 0.00 851.50 146.00" xmlns="http://www.w3.org/2000/svg" xmlns:xlink="http://www.w3.org/1999/xlink">
<g id="graph0" class="graph" transform="scale(1 1) rotate(0) translate(4 142)">
<title>%3</title>
<polygon fill="#ffffff" stroke="transparent" points="-4,4 -4,-142 847.5,-142 847.5,4 -4,4"/>
<!-- mix -->
<g id="node1" class="node">
<title>mix</title>
<text text-anchor="start" x="40" y="-119.8" font-family="Times,serif" font-size="9.00" fill="#7f7f7f">out</text>
<polygon fill="#9acd32" stroke="transparent" points="56,-113 56,-131 76,-131 76,-113 56,-113"/>
<polygon fill="none" stroke="#000000" stroke-width="2" points="57,-114 57,-130 75,-130 75,-114 57,-114"/>
<text text-anchor="start" x="60" y="-119.8" font-family="Times,serif" font-size="9.00" fill="#000000">1.0</text>
<polygon fill="none" stroke="#7f7f7f" points="78,-113 78,-131 107,-131 107,-113 78,-113"/>
<text text-anchor="start" x="86.5" y="-119.8" font-family="Times,serif" font-size="9.00" fill="#7f7f7f">1.0</text>
<polygon fill="none" stroke="#7f7f7f" points="109,-113 109,-131 127,-131 127,-113 109,-113"/>
<text text-anchor="start" x="112" y="-119.8" font-family="Times,serif" font-size="9.00" fill="#7f7f7f">1.0</text>
<polygon fill="none" stroke="#7f7f7f" points="129,-113 129,-131 147,-131 147,-113 129,-113"/>
<text text-anchor="start" x="132" y="-119.8" font-family="Times,serif" font-size="9.00" fill="#7f7f7f">0.5</text>
<polygon fill="#ffd700" stroke="transparent" points="149,-113 149,-131 178,-131 178,-113 149,-113"/>
<polygon fill="none" stroke="#000000" stroke-width="2" points="150,-114 150,-130 177,-130 177,-114 150,-114"/>
<text text-anchor="start" x="157.5" y="-119.8" font-family="Times,serif" font-size="9.00" fill="#000000">0.2</text>
<polygon fill="none" stroke="#7f7f7f" points="180,-113 180,-131 213,-131 213,-113 180,-113"/>
<text text-anchor="start" x="190.5" y="-119.8" font-family="Times,serif" font-size="9.00" fill="#7f7f7f">0.2</text>
<polygon fill="none" stroke="#7f7f7f" points="215,-113 215,-131 246,-131 246,-113 215,-113"/>
<text text-anchor="start" x="224.5" y="-119.8" font-family="Times,serif" font-size="9.00" fill="#7f7f7f">0.1</text>
<polygon fill="none" stroke="#7f7f7f" points="248,-113 248,-131 279,-131 279,-113 248,-113"/>
<text text-anchor="start" x="257.5" y="-119.8" font-family="Times,serif" font-size="9.00" fill="#7f7f7f">0.1</text>
<polygon fill="none" stroke="#7f7f7f" points="281,-113 281,-131 330,-131 330,-113 281,-113"/>
<text text-anchor="start" x="284" y="-119.8" font-family="Times,serif" font-size="9.00" fill="#7f7f7f">0.08813814</text>
<polygon fill="#ffd700" stroke="transparent" points="332,-113 332,-131 356,-131 356,-113 332,-113"/>
<polygon fill="none" stroke="#000000" stroke-width="2" points="333,-114 333,-130 355,-130 355,-114 333,-114"/>
<text text-anchor="start" x="336" y="-119.8" font-family="Times,serif" font-size="9.00" fill="#000000">0.05</text>
<polygon fill="#ff7f50" stroke="transparent" stroke-width="2" points="358,-113 358,-131 409,-131 409,-113 358,-113"/>
<polygon fill="none" stroke="#000000" stroke-width="2" points="359,-114 359,-130 408,-130 408,-114 359,-114"/>
<text text-anchor="start" x="362" y="-119.8" font-family="Times,serif" font-size="9.00" fill="#000000">0.03916501</text>
<polygon fill="#ff7f50" stroke="transparent" stroke-width="2" points="411,-113 411,-131 462,-131 462,-113 411,-113"/>
<polygon fill="none" stroke="#000000" stroke-width="2" points="412,-114 412,-130 461,-130 461,-114 412,-114"/>
<text text-anchor="start" x="415" y="-119.8" font-family="Times,serif" font-size="9.00" fill="#000000">0.02638449</text>
<polygon fill="none" stroke="#7f7f7f" points="464,-113 464,-131 495,-131 495,-113 464,-113"/>
<text text-anchor="start" x="471.5" y="-119.8" font-family="Times,serif" font-size="9.00" fill="#7f7f7f">0.02</text>
<polygon fill="#ff7f50" stroke="transparent" points="497,-113 497,-131 548,-131 548,-113 497,-113"/>
<polygon fill="none" stroke="#000000" stroke-width="2" points="498,-114 498,-130 547,-130 547,-114 498,-114"/>
<text text-anchor="start" x="501" y="-119.8" font-family="Times,serif" font-size="9.00" fill="#000000">0.00934178</text>
<polygon fill="#000000" stroke="transparent" stroke-width="2" points="550,-113 550,-131 599,-131 599,-113 550,-113"/>
<polygon fill="none" stroke="#7f7f7f" points="550,-113 550,-131 599,-131 599,-113 550,-113"/>
<text text-anchor="start" x="553" y="-119.8" font-family="Times,serif" font-size="9.00" fill="#7f7f7f">0.00017058</text>
<text text-anchor="start" x="42.5" y="-99.8" font-family="Times,serif" font-size="9.00" fill="#7f7f7f">in</text>
<polygon fill="none" stroke="#7f7f7f" points="56,-93 56,-111 76,-111 76,-93 56,-93"/>
<text text-anchor="start" x="60" y="-99.8" font-family="Times,serif" font-size="9.00" fill="#7f7f7f">1.0</text>
<polygon fill="#ffd700" stroke="transparent" points="78,-93 78,-111 107,-111 107,-93 78,-93"/>
<polygon fill="none" stroke="#000000" stroke-width="2" points="79,-94 79,-110 106,-110 106,-94 79,-94"/>
<text text-anchor="start" x="82" y="-99.8" font-family="Times,serif" font-size="9.00" fill="#000000">0.736</text>
<polygon fill="none" stroke="#7f7f7f" points="109,-93 109,-111 127,-111 127,-93 109,-93"/>
<text text-anchor="start" x="112" y="-99.8" font-family="Times,serif" font-size="9.00" fill="#7f7f7f">0.5</text>
<polygon fill="none" stroke="#7f7f7f" points="129,-93 129,-111 147,-111 147,-93 129,-93"/>
<text text-anchor="start" x="132" y="-99.8" font-family="Times,serif" font-size="9.00" fill="#7f7f7f">0.5</text>
<polygon fill="#ffd700" stroke="transparent" points="149,-93 149,-111 178,-111 178,-93 149,-93"/>
<polygon fill="none" stroke="#000000" stroke-width="2" points="150,-94 150,-110 177,-110 177,-94 150,-94"/>
<text text-anchor="start" x="153" y="-99.8" font-family="Times,serif" font-size="9.00" fill="#000000">0.321</text>
<polygon fill="#ffd700" stroke="transparent" stroke-width="2" points="180,-93 180,-111 213,-111 213,-93 180,-93"/>
<polygon fill="none" stroke="#000000" stroke-width="2" points="181,-94 181,-110 212,-110 212,-94 181,-94"/>
<text text-anchor="start" x="184" y="-99.8" font-family="Times,serif" font-size="9.00" fill="#000000">0.2471</text>
<polygon fill="none" stroke="#7f7f7f" points="215,-93 215,-111 246,-111 246,-93 215,-93"/>
<text text-anchor="start" x="218" y="-99.8" font-family="Times,serif" font-size="9.00" fill="#7f7f7f">0.2211</text>
<polygon fill="none" stroke="#7f7f7f" points="248,-93 248,-111 279,-111 279,-93 248,-93"/>
<text text-anchor="start" x="251" y="-99.8" font-family="Times,serif" font-size="9.00" fill="#7f7f7f">0.2001</text>
<polygon fill="none" stroke="#7f7f7f" points="281,-93 281,-111 330,-111 330,-93 281,-93"/>
<text text-anchor="start" x="299.5" y="-99.8" font-family="Times,serif" font-size="9.00" fill="#7f7f7f">0.2</text>
<polygon fill="none" stroke="#7f7f7f" points="332,-93 332,-111 356,-111 356,-93 332,-93"/>
<text text-anchor="start" x="338" y="-99.8" font-family="Times,serif" font-size="9.00" fill="#7f7f7f">0.1</text>
<polygon fill="none" stroke="#7f7f7f" points="358,-93 358,-111 409,-111 409,-93 358,-93"/>
<text text-anchor="start" x="375.5" y="-99.8" font-family="Times,serif" font-size="9.00" fill="#7f7f7f">0.05</text>
<polygon fill="none" stroke="#7f7f7f" points="411,-93 411,-111 462,-111 462,-93 411,-93"/>
<text text-anchor="start" x="428.5" y="-99.8" font-family="Times,serif" font-size="9.00" fill="#7f7f7f">0.05</text>
<polygon fill="none" stroke="#7f7f7f" points="464,-93 464,-111 495,-111 495,-93 464,-93"/>
<text text-anchor="start" x="467" y="-99.8" font-family="Times,serif" font-size="9.00" fill="#7f7f7f">0.0867</text>
<polygon fill="none" stroke="#7f7f7f" points="497,-93 497,-111 548,-111 548,-93 497,-93"/>
<text text-anchor="start" x="510" y="-99.8" font-family="Times,serif" font-size="9.00" fill="#7f7f7f">0.0451</text>
<polygon fill="none" stroke="#7f7f7f" points="550,-93 550,-111 599,-111 599,-93 550,-93"/>
<text text-anchor="start" x="562" y="-99.8" font-family="Times,serif" font-size="9.00" fill="#7f7f7f">0.0332</text>
<polygon fill="none" stroke="#7f7f7f" points="601,-93 601,-111 623,-111 623,-93 601,-93"/>
<text text-anchor="start" x="604" y="-99.8" font-family="Times,serif" font-size="9.00" fill="#7f7f7f">0.02</text>
<polygon fill="#ffd700" stroke="transparent" points="625,-93 625,-111 649,-111 649,-93 625,-93"/>
<polygon fill="none" stroke="#000000" stroke-width="2" points="626,-94 626,-110 648,-110 648,-94 626,-94"/>
<text text-anchor="start" x="629" y="-99.8" font-family="Times,serif" font-size="9.00" fill="#000000">0.01</text>
<polygon fill="#ffd700" stroke="transparent" stroke-width="2" points="651,-93 651,-111 680,-111 680,-93 651,-93"/>
<polygon fill="none" stroke="#000000" stroke-width="2" points="652,-94 652,-110 679,-110 679,-94 652,-94"/>
<text text-anchor="start" x="655" y="-99.8" font-family="Times,serif" font-size="9.00" fill="#000000">0.005</text>
<polygon fill="none" stroke="#7f7f7f" points="682,-93 682,-111 709,-111 709,-93 682,-93"/>
<text text-anchor="start" x="685" y="-99.8" font-family="Times,serif" font-size="9.00" fill="#7f7f7f">0.005</text>
<polygon fill="none" stroke="#7f7f7f" points="711,-93 711,-111 738,-111 738,-93 711,-93"/>
<text text-anchor="start" x="714" y="-99.8" font-family="Times,serif" font-size="9.00" fill="#7f7f7f">0.002</text>
<polygon fill="none" stroke="#7f7f7f" points="740,-93 740,-111 767,-111 767,-93 740,-93"/>
<text text-anchor="start" x="743" y="-99.8" font-family="Times,serif" font-size="9.00" fill="#7f7f7f">0.001</text>
<polygon fill="none" stroke="#7f7f7f" points="769,-93 769,-111 800,-111 800,-93 769,-93"/>
<text text-anchor="start" x="772" y="-99.8" font-family="Times,serif" font-size="9.00" fill="#7f7f7f">0.0002</text>
<polygon fill="none" stroke="#7f7f7f" points="802,-93 802,-111 833,-111 833,-93 802,-93"/>
<text text-anchor="start" x="805" y="-99.8" font-family="Times,serif" font-size="9.00" fill="#7f7f7f">0.0001</text>
<polygon fill="none" stroke="#7f7f7f" points="34.5,-90 34.5,-134 835.5,-134 835.5,-90 34.5,-90"/>
</g>
<!-- receive_1 -->
<g id="node2" class="node">
<title>receive_1</title>
<text text-anchor="start" x="13" y="-31.8" font-family="Times,serif" font-size="9.00" fill="#7f7f7f">out</text>
<polygon fill="#ff7f50" stroke="transparent" points="29,-25 29,-43 58,-43 58,-25 29,-25"/>
<polygon fill="none" stroke="#000000" stroke-width="2" points="30,-26 30,-42 57,-42 57,-26 30,-26"/>
<text text-anchor="start" x="33" y="-31.8" font-family="Times,serif" font-size="9.00" fill="#000000">0.736</text>
<polygon fill="none" stroke="#7f7f7f" points="60,-25 60,-43 91,-43 91,-25 60,-25"/>
<text text-anchor="start" x="63" y="-31.8" font-family="Times,serif" font-size="9.00" fill="#7f7f7f">0.0635</text>
<text text-anchor="start" x="15.5" y="-12.8" font-family="Times,serif" font-size="9.00" fill="#7f7f7f">in</text>
<polygon fill="none" stroke="#7f7f7f" points="29,-7 29,-23 91,-23 91,-7 29,-7"/>
<text text-anchor="start" x="54" y="-12.8" font-family="Times,serif" font-size="9.00" fill="#7f7f7f">0.8</text>
<polygon fill="none" stroke="#7f7f7f" points="8,-4 8,-46 94,-46 94,-4 8,-4"/>
</g>
<!-- mix&#45;&gt;receive_1 -->
<g id="edge1" class="edge">
<title>mix:i01&#45;&gt;receive_1:o01</title>
<path fill="none" stroke="#000000" d="M92,-93C92,-65.775 54.4844,-71.7344 45.1055,-52.8055"/>
<polygon fill="#000000" stroke="#000000" points="48.5215,-52.0423 43,-43 41.6775,-53.512 48.5215,-52.0423"/>
</g>
<!-- receive_2 -->
<g id="node3" class="node">
<title>receive_2</title>
<text text-anchor="start" x="133" y="-31.8" font-family="Times,serif" font-size="9.00" fill="#7f7f7f">out</text>
<polygon fill="#ff7f50" stroke="transparent" points="149,-25 149,-43 178,-43 178,-25 149,-25"/>
<polygon fill="none" stroke="#000000" stroke-width="2" points="150,-26 150,-42 177,-42 177,-26 150,-26"/>
<text text-anchor="start" x="153" y="-31.8" font-family="Times,serif" font-size="9.00" fill="#000000">0.321</text>
<polygon fill="none" stroke="#7f7f7f" points="180,-25 180,-43 211,-43 211,-25 180,-25"/>
<text text-anchor="start" x="183" y="-31.8" font-family="Times,serif" font-size="9.00" fill="#7f7f7f">0.1789</text>
<text text-anchor="start" x="135.5" y="-12.8" font-family="Times,serif" font-size="9.00" fill="#7f7f7f">in</text>
<polygon fill="none" stroke="#7f7f7f" points="149,-7 149,-23 178,-23 178,-7 149,-7"/>
<text text-anchor="start" x="157.5" y="-12.8" font-family="Times,serif" font-size="9.00" fill="#7f7f7f">0.3</text>
<polygon fill="none" stroke="#7f7f7f" points="180,-7 180,-23 211,-23 211,-7 180,-7"/>
<text text-anchor="start" x="189.5" y="-12.8" font-family="Times,serif" font-size="9.00" fill="#7f7f7f">0.2</text>
<polygon fill="none" stroke="#7f7f7f" points="128,-4 128,-46 214,-46 214,-4 128,-4"/>
</g>
<!-- mix&#45;&gt;receive_2 -->
<g id="edge2" class="edge">
<title>mix:i02&#45;&gt;receive_2:o01</title>
<path fill="none" stroke="#000000" d="M163,-93C163,-74.5972 163,-67.6243 163,-53.1505"/>
<polygon fill="#000000" stroke="#000000" points="166.5001,-53 163,-43 159.5001,-53 166.5001,-53"/>
</g>
<!-- receive_3 -->
<g id="node4" class="node">
<title>receive_3</title>
<text text-anchor="start" x="253" y="-31.8" font-family="Times,serif" font-size="9.00" fill="#7f7f7f">out</text>
<polygon fill="#ff7f50" stroke="transparent" points="269,-25 269,-43 302,-43 302,-25 269,-25"/>
<polygon fill="none" stroke="#000000" stroke-width="2" points="270,-26 270,-42 301,-42 301,-26 270,-26"/>
<text text-anchor="start" x="273" y="-31.8" font-family="Times,serif" font-size="9.00" fill="#000000">0.2471</text>
<polygon fill="none" stroke="#7f7f7f" points="304,-25 304,-43 335,-43 335,-25 304,-25"/>
<text text-anchor="start" x="307" y="-31.8" font-family="Times,serif" font-size="9.00" fill="#7f7f7f">0.0512</text>
<text text-anchor="start" x="255.5" y="-12.8" font-family="Times,serif" font-size="9.00" fill="#7f7f7f">in</text>
<polygon fill="none" stroke="#7f7f7f" points="269,-7 269,-23 302,-23 302,-7 269,-7"/>
<text text-anchor="start" x="279.5" y="-12.8" font-family="Times,serif" font-size="9.00" fill="#7f7f7f">0.3</text>
<polygon fill="none" stroke="#7f7f7f" points="248,-4 248,-46 338,-46 338,-4 248,-4"/>
</g>
<!-- mix&#45;&gt;receive_3 -->
<g id="edge3" class="edge">
<title>mix:i03&#45;&gt;receive_3:o01</title>
<path fill="none" stroke="#000000" d="M196,-93C196,-51.5287 270.3604,-82.004 283.1411,-52.8985"/>
<polygon fill="#000000" stroke="#000000" points="286.5941,-53.4742 285,-43 279.7144,-52.1822 286.5941,-53.4742"/>
</g>
<!-- prev_mix_4 -->
<g id="node5" class="node">
<title>prev_mix_4</title>
<text text-anchor="start" x="492" y="-31.8" font-family="Times,serif" font-size="9.00" fill="#7f7f7f">out</text>
<polygon fill="none" stroke="#7f7f7f" points="508,-25 508,-43 539,-43 539,-25 508,-25"/>
<text text-anchor="start" x="515.5" y="-31.8" font-family="Times,serif" font-size="9.00" fill="#7f7f7f">0.01</text>
<polygon fill="#9acd32" stroke="transparent" points="541,-25 541,-43 572,-43 572,-25 541,-25"/>
<polygon fill="none" stroke="#000000" stroke-width="2" points="542,-26 542,-42 571,-42 571,-26 542,-26"/>
<text text-anchor="start" x="548.5" y="-31.8" font-family="Times,serif" font-size="9.00" fill="#000000">0.01</text>
<polygon fill="none" stroke="#7f7f7f" points="574,-25 574,-43 605,-43 605,-25 574,-25"/>
<text text-anchor="start" x="581.5" y="-31.8" font-family="Times,serif" font-size="9.00" fill="#7f7f7f">0.01</text>
<text text-anchor="start" x="494.5" y="-12.8" font-family="Times,serif" font-size="9.00" fill="#7f7f7f">in</text>
<polygon fill="none" stroke="#7f7f7f" points="508,-7 508,-23 539,-23 539,-7 508,-7"/>
<text text-anchor="start" x="511" y="-12.8" font-family="Times,serif" font-size="9.00" fill="#7f7f7f">0.0101</text>
<polygon fill="none" stroke="#7f7f7f" points="541,-7 541,-23 572,-23 572,-7 541,-7"/>
<text text-anchor="start" x="544" y="-12.8" font-family="Times,serif" font-size="9.00" fill="#7f7f7f">0.0101</text>
<polygon fill="none" stroke="#7f7f7f" points="574,-7 574,-23 605,-23 605,-7 574,-7"/>
<text text-anchor="start" x="577" y="-12.8" font-family="Times,serif" font-size="9.00" fill="#7f7f7f">0.0101</text>
<polygon fill="none" stroke="#7f7f7f" points="486.5,-4 486.5,-46 607.5,-46 607.5,-4 486.5,-4"/>
</g>
<!-- mix&#45;&gt;prev_mix_4 -->
<g id="edge4" class="edge">
<title>mix:i04&#45;&gt;prev_mix_4:o01</title>
<path fill="none" stroke="#000000" d="M637,-93C637,-55.002 571.2969,-79.2466 558.9775,-52.9191"/>
<polygon fill="#000000" stroke="#000000" points="562.3877,-52.1227 557,-43 555.5228,-53.4913 562.3877,-52.1227"/>
</g>
<!-- prev_mix_5 -->
<g id="node6" class="node">
<title>prev_mix_5</title>
<text text-anchor="start" x="647" y="-31.8" font-family="Times,serif" font-size="9.00" fill="#7f7f7f">out</text>
<polygon fill="none" stroke="#7f7f7f" points="663,-25 663,-43 694,-43 694,-25 663,-25"/>
<text text-anchor="start" x="668" y="-31.8" font-family="Times,serif" font-size="9.00" fill="#7f7f7f">0.005</text>
<polygon fill="none" stroke="#7f7f7f" points="696,-25 696,-43 727,-43 727,-25 696,-25"/>
<text text-anchor="start" x="701" y="-31.8" font-family="Times,serif" font-size="9.00" fill="#7f7f7f">0.005</text>
<polygon fill="#9acd32" stroke="transparent" points="729,-25 729,-43 760,-43 760,-25 729,-25"/>
<polygon fill="none" stroke="#000000" stroke-width="2" points="730,-26 730,-42 759,-42 759,-26 730,-26"/>
<text text-anchor="start" x="734" y="-31.8" font-family="Times,serif" font-size="9.00" fill="#000000">0.005</text>
<text text-anchor="start" x="649.5" y="-12.8" font-family="Times,serif" font-size="9.00" fill="#7f7f7f">in</text>
<polygon fill="none" stroke="#7f7f7f" points="663,-7 663,-23 694,-23 694,-7 663,-7"/>
<text text-anchor="start" x="666" y="-12.8" font-family="Times,serif" font-size="9.00" fill="#7f7f7f">0.0051</text>
<polygon fill="none" stroke="#7f7f7f" points="696,-7 696,-23 727,-23 727,-7 696,-7"/>
<text text-anchor="start" x="699" y="-12.8" font-family="Times,serif" font-size="9.00" fill="#7f7f7f">0.0051</text>
<polygon fill="none" stroke="#7f7f7f" points="729,-7 729,-23 760,-23 760,-7 729,-7"/>
<text text-anchor="start" x="732" y="-12.8" font-family="Times,serif" font-size="9.00" fill="#7f7f7f">0.0051</text>
<polygon fill="none" stroke="#7f7f7f" points="641.5,-4 641.5,-46 762.5,-46 762.5,-4 641.5,-4"/>
</g>
<!-- mix&#45;&gt;prev_mix_5 -->
<g id="edge5" class="edge">
<title>mix:i05&#45;&gt;prev_mix_5:o01</title>
<path fill="none" stroke="#000000" d="M666,-93C666,-55.343 730.8818,-79.0015 743.0472,-52.8412"/>
<polygon fill="#000000" stroke="#000000" points="746.4866,-53.49 745,-43 739.6205,-52.1275 746.4866,-53.49"/>
</g>
</g>
</svg>
