<?xml version="1.0" encoding="UTF-8" standalone="no"?>
<!DOCTYPE svg PUBLIC "-//W3C//DTD SVG 1.1//EN"
 "http://www.w3.org/Graphics/SVG/1.1/DTD/svg11.dtd">
<!-- Generated by graphviz version 2.40.1 (20161225.0304)
 -->
<!-- Title: %3 Pages: 1 -->
<svg width="1139pt" height="146pt"
 viewBox="0.00 0.00 1139.00 146.00" xmlns="http://www.w3.org/2000/svg" xmlns:xlink="http://www.w3.org/1999/xlink">
<g id="graph0" class="graph" transform="scale(1 1) rotate(0) translate(4 142)">
<title>%3</title>
<polygon fill="#ffffff" stroke="transparent" points="-4,4 -4,-142 1135,-142 1135,4 -4,4"/>
<!-- mix -->
<g id="node1" class="node">
<title>mix</title>
<text text-anchor="start" x="13.5" y="-119.8" font-family="Times,serif" font-size="9.00" fill="#7f7f7f">out</text>
<polygon fill="none" stroke="#7f7f7f" points="29.5,-113 29.5,-131 78.5,-131 78.5,-113 29.5,-113"/>
<text text-anchor="start" x="32.5" y="-119.8" font-family="Times,serif" font-size="9.00" fill="#7f7f7f">1.74169032</text>
<polygon fill="none" stroke="#7f7f7f" points="80.5,-113 80.5,-131 107.5,-131 107.5,-113 80.5,-113"/>
<text text-anchor="start" x="83.5" y="-119.8" font-family="Times,serif" font-size="9.00" fill="#7f7f7f">1.094</text>
<polygon fill="none" stroke="#7f7f7f" points="109.5,-113 109.5,-131 158.5,-131 158.5,-113 109.5,-113"/>
<text text-anchor="start" x="128" y="-119.8" font-family="Times,serif" font-size="9.00" fill="#7f7f7f">1.0</text>
<polygon fill="#9acd32" stroke="transparent" points="160.5,-113 160.5,-131 187.5,-131 187.5,-113 160.5,-113"/>
<polygon fill="none" stroke="#000000" stroke-width="2" points="161.5,-114 161.5,-130 186.5,-130 186.5,-114 161.5,-114"/>
<text text-anchor="start" x="168" y="-119.8" font-family="Times,serif" font-size="9.00" fill="#000000">1.0</text>
<polygon fill="none" stroke="#7f7f7f" points="189.5,-113 189.5,-131 218.5,-131 218.5,-113 189.5,-113"/>
<text text-anchor="start" x="193.5" y="-119.8" font-family="Times,serif" font-size="9.00" fill="#7f7f7f">0.717</text>
<polygon fill="none" stroke="#7f7f7f" points="220.5,-113 220.5,-131 265.5,-131 265.5,-113 220.5,-113"/>
<text text-anchor="start" x="223.5" y="-119.8" font-family="Times,serif" font-size="9.00" fill="#7f7f7f">0.6210371</text>
<polygon fill="none" stroke="#7f7f7f" points="267.5,-113 267.5,-131 285.5,-131 285.5,-113 267.5,-113"/>
<text text-anchor="start" x="270.5" y="-119.8" font-family="Times,serif" font-size="9.00" fill="#7f7f7f">0.5</text>
<polygon fill="none" stroke="#7f7f7f" points="287.5,-113 287.5,-131 305.5,-131 305.5,-113 287.5,-113"/>
<text text-anchor="start" x="290.5" y="-119.8" font-family="Times,serif" font-size="9.00" fill="#7f7f7f">0.5</text>
<polygon fill="none" stroke="#7f7f7f" points="307.5,-113 307.5,-131 338.5,-131 338.5,-113 307.5,-113"/>
<text text-anchor="start" x="310.5" y="-119.8" font-family="Times,serif" font-size="9.00" fill="#7f7f7f">0.4116</text>
<polygon fill="none" stroke="#7f7f7f" points="340.5,-113 340.5,-131 389.5,-131 389.5,-113 340.5,-113"/>
<text text-anchor="start" x="343.5" y="-119.8" font-family="Times,serif" font-size="9.00" fill="#7f7f7f">0.37010148</text>
<polygon fill="#9acd32" stroke="transparent" points="391.5,-113 391.5,-131 431.5,-131 431.5,-113 391.5,-113"/>
<polygon fill="none" stroke="#000000" stroke-width="2" points="392.5,-114 392.5,-130 430.5,-130 430.5,-114 392.5,-114"/>
<text text-anchor="start" x="405.5" y="-119.8" font-family="Times,serif" font-size="9.00" fill="#000000">0.2</text>
<polygon fill="none" stroke="#7f7f7f" points="433.5,-113 433.5,-131 464.5,-131 464.5,-113 433.5,-113"/>
<text text-anchor="start" x="443" y="-119.8" font-family="Times,serif" font-size="9.00" fill="#7f7f7f">0.2</text>
<polygon fill="none" stroke="#7f7f7f" points="466.5,-113 466.5,-131 506.5,-131 506.5,-113 466.5,-113"/>
<text text-anchor="start" x="469.5" y="-119.8" font-family="Times,serif" font-size="9.00" fill="#7f7f7f">0.130004</text>
<polygon fill="none" stroke="#7f7f7f" points="508.5,-113 508.5,-131 526.5,-131 526.5,-113 508.5,-113"/>
<text text-anchor="start" x="511.5" y="-119.8" font-family="Times,serif" font-size="9.00" fill="#7f7f7f">0.1</text>
<polygon fill="none" stroke="#7f7f7f" points="528.5,-113 528.5,-131 546.5,-131 546.5,-113 528.5,-113"/>
<text text-anchor="start" x="531.5" y="-119.8" font-family="Times,serif" font-size="9.00" fill="#7f7f7f">0.1</text>
<polygon fill="none" stroke="#7f7f7f" points="548.5,-113 548.5,-131 597.5,-131 597.5,-113 548.5,-113"/>
<text text-anchor="start" x="551.5" y="-119.8" font-family="Times,serif" font-size="9.00" fill="#7f7f7f">0.08813814</text>
<polygon fill="none" stroke="#7f7f7f" points="599.5,-113 599.5,-131 648.5,-131 648.5,-113 599.5,-113"/>
<text text-anchor="start" x="616" y="-119.8" font-family="Times,serif" font-size="9.00" fill="#7f7f7f">0.05</text>
<polygon fill="none" stroke="#7f7f7f" points="650.5,-113 650.5,-131 677.5,-131 677.5,-113 650.5,-113"/>
<text text-anchor="start" x="656" y="-119.8" font-family="Times,serif" font-size="9.00" fill="#7f7f7f">0.05</text>
<polygon fill="#9acd32" stroke="transparent" points="679.5,-113 679.5,-131 703.5,-131 703.5,-113 679.5,-113"/>
<polygon fill="none" stroke="#000000" stroke-width="2" points="680.5,-114 680.5,-130 702.5,-130 702.5,-114 680.5,-114"/>
<text text-anchor="start" x="683.5" y="-119.8" font-family="Times,serif" font-size="9.00" fill="#000000">0.05</text>
<polygon fill="#ffd700" stroke="transparent" stroke-width="2" points="705.5,-113 705.5,-131 756.5,-131 756.5,-113 705.5,-113"/>
<polygon fill="none" stroke="#000000" stroke-width="2" points="706.5,-114 706.5,-130 755.5,-130 755.5,-114 706.5,-114"/>
<text text-anchor="start" x="709.5" y="-119.8" font-family="Times,serif" font-size="9.00" fill="#000000">0.03916501</text>
<polygon fill="#ffd700" stroke="transparent" stroke-width="2" points="758.5,-113 758.5,-131 809.5,-131 809.5,-113 758.5,-113"/>
<polygon fill="none" stroke="#000000" stroke-width="2" points="759.5,-114 759.5,-130 808.5,-130 808.5,-114 759.5,-114"/>
<text text-anchor="start" x="762.5" y="-119.8" font-family="Times,serif" font-size="9.00" fill="#000000">0.02638449</text>
<polygon fill="none" stroke="#7f7f7f" points="811.5,-113 811.5,-131 842.5,-131 842.5,-113 811.5,-113"/>
<text text-anchor="start" x="819" y="-119.8" font-family="Times,serif" font-size="9.00" fill="#7f7f7f">0.02</text>
<polygon fill="#ffd700" stroke="transparent" points="844.5,-113 844.5,-131 895.5,-131 895.5,-113 844.5,-113"/>
<polygon fill="none" stroke="#000000" stroke-width="2" points="845.5,-114 845.5,-130 894.5,-130 894.5,-114 845.5,-114"/>
<text text-anchor="start" x="848.5" y="-119.8" font-family="Times,serif" font-size="9.00" fill="#000000">0.00934178</text>
<polygon fill="none" stroke="#7f7f7f" points="897.5,-113 897.5,-131 933.5,-131 933.5,-113 897.5,-113"/>
<text text-anchor="start" x="900.5" y="-119.8" font-family="Times,serif" font-size="9.00" fill="#7f7f7f">0.00741</text>
<polygon fill="none" stroke="#7f7f7f" points="935.5,-113 935.5,-131 962.5,-131 962.5,-113 935.5,-113"/>
<text text-anchor="start" x="938.5" y="-119.8" font-family="Times,serif" font-size="9.00" fill="#7f7f7f">0.005</text>
<polygon fill="none" stroke="#7f7f7f" points="964.5,-113 964.5,-131 1009.5,-131 1009.5,-113 964.5,-113"/>
<text text-anchor="start" x="967.5" y="-119.8" font-family="Times,serif" font-size="9.00" fill="#7f7f7f">0.0031748</text>
<polygon fill="none" stroke="#7f7f7f" points="1011.5,-113 1011.5,-131 1040.5,-131 1040.5,-113 1011.5,-113"/>
<text text-anchor="start" x="1015.5" y="-119.8" font-family="Times,serif" font-size="9.00" fill="#7f7f7f">0.002</text>
<polygon fill="none" stroke="#7f7f7f" points="1042.5,-113 1042.5,-131 1069.5,-131 1069.5,-113 1042.5,-113"/>
<text text-anchor="start" x="1045.5" y="-119.8" font-family="Times,serif" font-size="9.00" fill="#7f7f7f">0.001</text>
<polygon fill="#000000" stroke="transparent" points="1071.5,-113 1071.5,-131 1120.5,-131 1120.5,-113 1071.5,-113"/>
<polygon fill="none" stroke="#7f7f7f" points="1071.5,-113 1071.5,-131 1120.5,-131 1120.5,-113 1071.5,-113"/>
<text text-anchor="start" x="1074.5" y="-119.8" font-family="Times,serif" font-size="9.00" fill="#7f7f7f">0.00102438</text>
<text text-anchor="start" x="16" y="-99.8" font-family="Times,serif" font-size="9.00" fill="#7f7f7f">in</text>
<polygon fill="none" stroke="#7f7f7f" points="29.5,-93 29.5,-111 78.5,-111 78.5,-93 29.5,-93"/>
<text text-anchor="start" x="41.5" y="-99.8" font-family="Times,serif" font-size="9.00" fill="#7f7f7f">1.1227</text>
<polygon fill="none" stroke="#7f7f7f" points="80.5,-93 80.5,-111 107.5,-111 107.5,-93 80.5,-93"/>
<text text-anchor="start" x="88" y="-99.8" font-family="Times,serif" font-size="9.00" fill="#7f7f7f">1.0</text>
<polygon fill="none" stroke="#7f7f7f" points="109.5,-93 109.5,-111 158.5,-111 158.5,-93 109.5,-93"/>
<text text-anchor="start" x="112.5" y="-99.8" font-family="Times,serif" font-size="9.00" fill="#7f7f7f">0.99741318</text>
<polygon fill="none" stroke="#7f7f7f" points="160.5,-93 160.5,-111 187.5,-111 187.5,-93 160.5,-93"/>
<text text-anchor="start" x="163.5" y="-99.8" font-family="Times,serif" font-size="9.00" fill="#7f7f7f">0.981</text>
<polygon fill="#ffd700" stroke="transparent" points="189.5,-93 189.5,-111 218.5,-111 218.5,-93 189.5,-93"/>
<polygon fill="none" stroke="#000000" stroke-width="2" points="190.5,-94 190.5,-110 217.5,-110 217.5,-94 190.5,-94"/>
<text text-anchor="start" x="193.5" y="-99.8" font-family="Times,serif" font-size="9.00" fill="#000000">0.736</text>
<polygon fill="none" stroke="#7f7f7f" points="220.5,-93 220.5,-111 265.5,-111 265.5,-93 220.5,-93"/>
<text text-anchor="start" x="235" y="-99.8" font-family="Times,serif" font-size="9.00" fill="#7f7f7f">0.72</text>
<polygon fill="none" stroke="#7f7f7f" points="267.5,-93 267.5,-111 285.5,-111 285.5,-93 267.5,-93"/>
<text text-anchor="start" x="270.5" y="-99.8" font-family="Times,serif" font-size="9.00" fill="#7f7f7f">0.5</text>
<polygon fill="none" stroke="#7f7f7f" points="287.5,-93 287.5,-111 305.5,-111 305.5,-93 287.5,-93"/>
<text text-anchor="start" x="290.5" y="-99.8" font-family="Times,serif" font-size="9.00" fill="#7f7f7f">0.5</text>
<polygon fill="#ffd700" stroke="transparent" points="307.5,-93 307.5,-111 338.5,-111 338.5,-93 307.5,-93"/>
<polygon fill="none" stroke="#000000" stroke-width="2" points="308.5,-94 308.5,-110 337.5,-110 337.5,-94 308.5,-94"/>
<text text-anchor="start" x="312.5" y="-99.8" font-family="Times,serif" font-size="9.00" fill="#000000">0.321</text>
<polygon fill="#ffd700" stroke="transparent" stroke-width="2" points="340.5,-93 340.5,-111 389.5,-111 389.5,-93 340.5,-93"/>
<polygon fill="none" stroke="#000000" stroke-width="2" points="341.5,-94 341.5,-110 388.5,-110 388.5,-94 341.5,-94"/>
<text text-anchor="start" x="352.5" y="-99.8" font-family="Times,serif" font-size="9.00" fill="#000000">0.2471</text>
<polygon fill="none" stroke="#7f7f7f" points="391.5,-93 391.5,-111 431.5,-111 431.5,-93 391.5,-93"/>
<text text-anchor="start" x="394.5" y="-99.8" font-family="Times,serif" font-size="9.00" fill="#7f7f7f">0.240039</text>
<polygon fill="none" stroke="#7f7f7f" points="433.5,-93 433.5,-111 464.5,-111 464.5,-93 433.5,-93"/>
<text text-anchor="start" x="436.5" y="-99.8" font-family="Times,serif" font-size="9.00" fill="#7f7f7f">0.2211</text>
<polygon fill="none" stroke="#7f7f7f" points="466.5,-93 466.5,-111 506.5,-111 506.5,-93 466.5,-93"/>
<text text-anchor="start" x="474" y="-99.8" font-family="Times,serif" font-size="9.00" fill="#7f7f7f">0.2001</text>
<polygon fill="none" stroke="#7f7f7f" points="508.5,-93 508.5,-111 526.5,-111 526.5,-93 508.5,-93"/>
<text text-anchor="start" x="511.5" y="-99.8" font-family="Times,serif" font-size="9.00" fill="#7f7f7f">0.2</text>
<polygon fill="none" stroke="#7f7f7f" points="528.5,-93 528.5,-111 546.5,-111 546.5,-93 528.5,-93"/>
<text text-anchor="start" x="531.5" y="-99.8" font-family="Times,serif" font-size="9.00" fill="#7f7f7f">0.2</text>
<polygon fill="none" stroke="#7f7f7f" points="548.5,-93 548.5,-111 597.5,-111 597.5,-93 548.5,-93"/>
<text text-anchor="start" x="567" y="-99.8" font-family="Times,serif" font-size="9.00" fill="#7f7f7f">0.1</text>
<polygon fill="none" stroke="#7f7f7f" points="599.5,-93 599.5,-111 648.5,-111 648.5,-93 599.5,-93"/>
<text text-anchor="start" x="602.5" y="-99.8" font-family="Times,serif" font-size="9.00" fill="#7f7f7f">0.09730844</text>
<polygon fill="none" stroke="#7f7f7f" points="650.5,-93 650.5,-111 677.5,-111 677.5,-93 650.5,-93"/>
<text text-anchor="start" x="653.5" y="-99.8" font-family="Times,serif" font-size="9.00" fill="#7f7f7f">0.083</text>
<polygon fill="none" stroke="#7f7f7f" points="679.5,-93 679.5,-111 703.5,-111 703.5,-93 679.5,-93"/>
<text text-anchor="start" x="683.5" y="-99.8" font-family="Times,serif" font-size="9.00" fill="#7f7f7f">0.05</text>
<polygon fill="none" stroke="#7f7f7f" points="705.5,-93 705.5,-111 756.5,-111 756.5,-93 705.5,-93"/>
<text text-anchor="start" x="723" y="-99.8" font-family="Times,serif" font-size="9.00" fill="#7f7f7f">0.05</text>
<polygon fill="none" stroke="#7f7f7f" points="758.5,-93 758.5,-111 809.5,-111 809.5,-93 758.5,-93"/>
<text text-anchor="start" x="771.5" y="-99.8" font-family="Times,serif" font-size="9.00" fill="#7f7f7f">0.0867</text>
<polygon fill="none" stroke="#7f7f7f" points="811.5,-93 811.5,-111 842.5,-111 842.5,-93 811.5,-93"/>
<text text-anchor="start" x="814.5" y="-99.8" font-family="Times,serif" font-size="9.00" fill="#7f7f7f">0.0451</text>
<polygon fill="none" stroke="#7f7f7f" points="844.5,-93 844.5,-111 895.5,-111 895.5,-93 844.5,-93"/>
<text text-anchor="start" x="848.5" y="-99.8" font-family="Times,serif" font-size="9.00" fill="#7f7f7f">0.03901088</text>
<polygon fill="none" stroke="#7f7f7f" points="897.5,-93 897.5,-111 933.5,-111 933.5,-93 897.5,-93"/>
<text text-anchor="start" x="903" y="-99.8" font-family="Times,serif" font-size="9.00" fill="#7f7f7f">0.0332</text>
<polygon fill="none" stroke="#7f7f7f" points="935.5,-93 935.5,-111 962.5,-111 962.5,-93 935.5,-93"/>
<text text-anchor="start" x="941" y="-99.8" font-family="Times,serif" font-size="9.00" fill="#7f7f7f">0.02</text>
<polygon fill="#9acd32" stroke="transparent" points="964.5,-93 964.5,-111 1009.5,-111 1009.5,-93 964.5,-93"/>
<polygon fill="none" stroke="#000000" stroke-width="2" points="965.5,-94 965.5,-110 1008.5,-110 1008.5,-94 965.5,-94"/>
<text text-anchor="start" x="979" y="-99.8" font-family="Times,serif" font-size="9.00" fill="#000000">0.01</text>
<polygon fill="#9acd32" stroke="transparent" stroke-width="2" points="1011.5,-93 1011.5,-111 1040.5,-111 1040.5,-93 1011.5,-93"/>
<polygon fill="none" stroke="#000000" stroke-width="2" points="1012.5,-94 1012.5,-110 1039.5,-110 1039.5,-94 1012.5,-94"/>
<text text-anchor="start" x="1015.5" y="-99.8" font-family="Times,serif" font-size="9.00" fill="#000000">0.005</text>
<polygon fill="none" stroke="#7f7f7f" points="1042.5,-93 1042.5,-111 1069.5,-111 1069.5,-93 1042.5,-93"/>
<text text-anchor="start" x="1045.5" y="-99.8" font-family="Times,serif" font-size="9.00" fill="#7f7f7f">0.005</text>
<polygon fill="none" stroke="#7f7f7f" points="1071.5,-93 1071.5,-111 1120.5,-111 1120.5,-93 1071.5,-93"/>
<text text-anchor="start" x="1085.5" y="-99.8" font-family="Times,serif" font-size="9.00" fill="#7f7f7f">0.002</text>
<polygon fill="none" stroke="#7f7f7f" points="8,-90 8,-134 1123,-134 1123,-90 8,-90"/>
</g>
<!-- receive_1 -->
<g id="node2" class="node">
<title>receive_1</title>
<text text-anchor="start" x="172.5" y="-31.8" font-family="Times,serif" font-size="9.00" fill="#7f7f7f">out</text>
<polygon fill="#ff7f50" stroke="transparent" points="188.5,-25 188.5,-43 217.5,-43 217.5,-25 188.5,-25"/>
<polygon fill="none" stroke="#000000" stroke-width="2" points="189.5,-26 189.5,-42 216.5,-42 216.5,-26 189.5,-26"/>
<text text-anchor="start" x="192.5" y="-31.8" font-family="Times,serif" font-size="9.00" fill="#000000">0.736</text>
<polygon fill="none" stroke="#7f7f7f" points="219.5,-25 219.5,-43 250.5,-43 250.5,-25 219.5,-25"/>
<text text-anchor="start" x="222.5" y="-31.8" font-family="Times,serif" font-size="9.00" fill="#7f7f7f">0.0635</text>
<text text-anchor="start" x="175" y="-12.8" font-family="Times,serif" font-size="9.00" fill="#7f7f7f">in</text>
<polygon fill="none" stroke="#7f7f7f" points="188.5,-7 188.5,-23 250.5,-23 250.5,-7 188.5,-7"/>
<text text-anchor="start" x="213.5" y="-12.8" font-family="Times,serif" font-size="9.00" fill="#7f7f7f">0.8</text>
<polygon fill="none" stroke="#7f7f7f" points="167.5,-4 167.5,-46 253.5,-46 253.5,-4 167.5,-4"/>
</g>
<!-- mix&#45;&gt;receive_1 -->
<g id="edge1" class="edge">
<title>mix:i01&#45;&gt;receive_1:o01</title>
<path fill="none" stroke="#000000" d="M203.5,-93C203.5,-74.5935 202.8142,-67.6261 202.5785,-53.1518"/>
<polygon fill="#000000" stroke="#000000" points="206.0773,-52.9726 202.5,-43 199.0775,-53.0268 206.0773,-52.9726"/>
</g>
<!-- receive_2 -->
<g id="node3" class="node">
<title>receive_2</title>
<text text-anchor="start" x="292.5" y="-31.8" font-family="Times,serif" font-size="9.00" fill="#7f7f7f">out</text>
<polygon fill="#ff7f50" stroke="transparent" points="308.5,-25 308.5,-43 337.5,-43 337.5,-25 308.5,-25"/>
<polygon fill="none" stroke="#000000" stroke-width="2" points="309.5,-26 309.5,-42 336.5,-42 336.5,-26 309.5,-26"/>
<text text-anchor="start" x="312.5" y="-31.8" font-family="Times,serif" font-size="9.00" fill="#000000">0.321</text>
<polygon fill="none" stroke="#7f7f7f" points="339.5,-25 339.5,-43 370.5,-43 370.5,-25 339.5,-25"/>
<text text-anchor="start" x="342.5" y="-31.8" font-family="Times,serif" font-size="9.00" fill="#7f7f7f">0.1789</text>
<text text-anchor="start" x="295" y="-12.8" font-family="Times,serif" font-size="9.00" fill="#7f7f7f">in</text>
<polygon fill="none" stroke="#7f7f7f" points="308.5,-7 308.5,-23 337.5,-23 337.5,-7 308.5,-7"/>
<text text-anchor="start" x="317" y="-12.8" font-family="Times,serif" font-size="9.00" fill="#7f7f7f">0.3</text>
<polygon fill="none" stroke="#7f7f7f" points="339.5,-7 339.5,-23 370.5,-23 370.5,-7 339.5,-7"/>
<text text-anchor="start" x="349" y="-12.8" font-family="Times,serif" font-size="9.00" fill="#7f7f7f">0.2</text>
<polygon fill="none" stroke="#7f7f7f" points="287.5,-4 287.5,-46 373.5,-46 373.5,-4 287.5,-4"/>
</g>
<!-- mix&#45;&gt;receive_2 -->
<g id="edge2" class="edge">
<title>mix:i02&#45;&gt;receive_2:o01</title>
<path fill="none" stroke="#000000" d="M322.5,-93C322.5,-74.5972 322.5,-67.6243 322.5,-53.1505"/>
<polygon fill="#000000" stroke="#000000" points="326.0001,-53 322.5,-43 319.0001,-53 326.0001,-53"/>
</g>
<!-- receive_3 -->
<g id="node4" class="node">
<title>receive_3</title>
<text text-anchor="start" x="412.5" y="-31.8" font-family="Times,serif" font-size="9.00" fill="#7f7f7f">out</text>
<polygon fill="#ff7f50" stroke="transparent" points="428.5,-25 428.5,-43 461.5,-43 461.5,-25 428.5,-25"/>
<polygon fill="none" stroke="#000000" stroke-width="2" points="429.5,-26 429.5,-42 460.5,-42 460.5,-26 429.5,-26"/>
<text text-anchor="start" x="432.5" y="-31.8" font-family="Times,serif" font-size="9.00" fill="#000000">0.2471</text>
<polygon fill="none" stroke="#7f7f7f" points="463.5,-25 463.5,-43 494.5,-43 494.5,-25 463.5,-25"/>
<text text-anchor="start" x="466.5" y="-31.8" font-family="Times,serif" font-size="9.00" fill="#7f7f7f">0.0512</text>
<text text-anchor="start" x="415" y="-12.8" font-family="Times,serif" font-size="9.00" fill="#7f7f7f">in</text>
<polygon fill="none" stroke="#7f7f7f" points="428.5,-7 428.5,-23 461.5,-23 461.5,-7 428.5,-7"/>
<text text-anchor="start" x="439" y="-12.8" font-family="Times,serif" font-size="9.00" fill="#7f7f7f">0.3</text>
<polygon fill="none" stroke="#7f7f7f" points="407.5,-4 407.5,-46 497.5,-46 497.5,-4 407.5,-4"/>
</g>
<!-- mix&#45;&gt;receive_3 -->
<g id="edge3" class="edge">
<title>mix:i03&#45;&gt;receive_3:o01</title>
<path fill="none" stroke="#000000" d="M364.5,-93C364.5,-55.002 430.2031,-79.2466 442.5225,-52.9191"/>
<polygon fill="#000000" stroke="#000000" points="445.9772,-53.4913 444.5,-43 439.1123,-52.1227 445.9772,-53.4913"/>
</g>
<!-- prev_mix_4 -->
<g id="node5" class="node">
<title>prev_mix_4</title>
<text text-anchor="start" x="847.5" y="-31.8" font-family="Times,serif" font-size="9.00" fill="#7f7f7f">out</text>
<polygon fill="none" stroke="#7f7f7f" points="863.5,-25 863.5,-43 894.5,-43 894.5,-25 863.5,-25"/>
<text text-anchor="start" x="871" y="-31.8" font-family="Times,serif" font-size="9.00" fill="#7f7f7f">0.01</text>
<polygon fill="#9acd32" stroke="transparent" points="896.5,-25 896.5,-43 927.5,-43 927.5,-25 896.5,-25"/>
<polygon fill="none" stroke="#000000" stroke-width="2" points="897.5,-26 897.5,-42 926.5,-42 926.5,-26 897.5,-26"/>
<text text-anchor="start" x="904" y="-31.8" font-family="Times,serif" font-size="9.00" fill="#000000">0.01</text>
<polygon fill="none" stroke="#7f7f7f" points="929.5,-25 929.5,-43 960.5,-43 960.5,-25 929.5,-25"/>
<text text-anchor="start" x="937" y="-31.8" font-family="Times,serif" font-size="9.00" fill="#7f7f7f">0.01</text>
<text text-anchor="start" x="850" y="-12.8" font-family="Times,serif" font-size="9.00" fill="#7f7f7f">in</text>
<polygon fill="none" stroke="#7f7f7f" points="863.5,-7 863.5,-23 894.5,-23 894.5,-7 863.5,-7"/>
<text text-anchor="start" x="866.5" y="-12.8" font-family="Times,serif" font-size="9.00" fill="#7f7f7f">0.0101</text>
<polygon fill="none" stroke="#7f7f7f" points="896.5,-7 896.5,-23 927.5,-23 927.5,-7 896.5,-7"/>
<text text-anchor="start" x="899.5" y="-12.8" font-family="Times,serif" font-size="9.00" fill="#7f7f7f">0.0101</text>
<polygon fill="none" stroke="#7f7f7f" points="929.5,-7 929.5,-23 960.5,-23 960.5,-7 929.5,-7"/>
<text text-anchor="start" x="932.5" y="-12.8" font-family="Times,serif" font-size="9.00" fill="#7f7f7f">0.0101</text>
<polygon fill="none" stroke="#7f7f7f" points="842,-4 842,-46 963,-46 963,-4 842,-4"/>
</g>
<!-- mix&#45;&gt;prev_mix_4 -->
<g id="edge4" class="edge">
<title>mix:i04&#45;&gt;prev_mix_4:o01</title>
<path fill="none" stroke="#000000" d="M987.5,-93C987.5,-56.8506 926.4332,-77.8475 914.5061,-52.8595"/>
<polygon fill="#000000" stroke="#000000" points="917.9236,-52.1014 912.5,-43 911.0641,-53.4971 917.9236,-52.1014"/>
</g>
<!-- prev_mix_5 -->
<g id="node6" class="node">
<title>prev_mix_5</title>
<text text-anchor="start" x="1002.5" y="-31.8" font-family="Times,serif" font-size="9.00" fill="#7f7f7f">out</text>
<polygon fill="none" stroke="#7f7f7f" points="1018.5,-25 1018.5,-43 1049.5,-43 1049.5,-25 1018.5,-25"/>
<text text-anchor="start" x="1023.5" y="-31.8" font-family="Times,serif" font-size="9.00" fill="#7f7f7f">0.005</text>
<polygon fill="none" stroke="#7f7f7f" points="1051.5,-25 1051.5,-43 1082.5,-43 1082.5,-25 1051.5,-25"/>
<text text-anchor="start" x="1056.5" y="-31.8" font-family="Times,serif" font-size="9.00" fill="#7f7f7f">0.005</text>
<polygon fill="#9acd32" stroke="transparent" points="1084.5,-25 1084.5,-43 1115.5,-43 1115.5,-25 1084.5,-25"/>
<polygon fill="none" stroke="#000000" stroke-width="2" points="1085.5,-26 1085.5,-42 1114.5,-42 1114.5,-26 1085.5,-26"/>
<text text-anchor="start" x="1089.5" y="-31.8" font-family="Times,serif" font-size="9.00" fill="#000000">0.005</text>
<text text-anchor="start" x="1005" y="-12.8" font-family="Times,serif" font-size="9.00" fill="#7f7f7f">in</text>
<polygon fill="none" stroke="#7f7f7f" points="1018.5,-7 1018.5,-23 1049.5,-23 1049.5,-7 1018.5,-7"/>
<text text-anchor="start" x="1021.5" y="-12.8" font-family="Times,serif" font-size="9.00" fill="#7f7f7f">0.0051</text>
<polygon fill="none" stroke="#7f7f7f" points="1051.5,-7 1051.5,-23 1082.5,-23 1082.5,-7 1051.5,-7"/>
<text text-anchor="start" x="1054.5" y="-12.8" font-family="Times,serif" font-size="9.00" fill="#7f7f7f">0.0051</text>
<polygon fill="none" stroke="#7f7f7f" points="1084.5,-7 1084.5,-23 1115.5,-23 1115.5,-7 1084.5,-7"/>
<text text-anchor="start" x="1087.5" y="-12.8" font-family="Times,serif" font-size="9.00" fill="#7f7f7f">0.0051</text>
<polygon fill="none" stroke="#7f7f7f" points="997,-4 997,-46 1118,-46 1118,-4 997,-4"/>
</g>
<!-- mix&#45;&gt;prev_mix_5 -->
<g id="edge5" class="edge">
<title>mix:i05&#45;&gt;prev_mix_5:o01</title>
<path fill="none" stroke="#000000" d="M1026.5,-93C1026.5,-57.3386 1086.2321,-77.4363 1098.3651,-53.101"/>
<polygon fill="#000000" stroke="#000000" points="1101.8564,-53.5076 1100.5,-43 1095.0077,-52.0601 1101.8564,-53.5076"/>
</g>
</g>
</svg>
