<?xml version="1.0" encoding="UTF-8" standalone="no"?>
<!DOCTYPE svg PUBLIC "-//W3C//DTD SVG 1.1//EN"
 "http://www.w3.org/Graphics/SVG/1.1/DTD/svg11.dtd">
<!-- Generated by graphviz version 2.40.1 (20161225.0304)
 -->
<!-- Title: %3 Pages: 1 -->
<svg width="918pt" height="432pt"
 viewBox="0.00 0.00 918.00 432.00" xmlns="http://www.w3.org/2000/svg" xmlns:xlink="http://www.w3.org/1999/xlink">
<g id="graph0" class="graph" transform="scale(1 1) rotate(0) translate(4 428)">
<title>%3</title>
<polygon fill="#ffffff" stroke="transparent" points="-4,4 -4,-428 914,-428 914,4 -4,4"/>
<!-- spend_1 -->
<g id="node1" class="node">
<title>spend_1</title>
<text text-anchor="start" x="360.5" y="-405.8" font-family="Times,serif" font-size="9.00" fill="#7f7f7f">out</text>
<polygon fill="#ff7f50" stroke="transparent" points="376.5,-399 376.5,-417 427.5,-417 427.5,-399 376.5,-399"/>
<polygon fill="none" stroke="#000000" stroke-width="2" points="377.5,-400 377.5,-416 426.5,-416 426.5,-400 377.5,-400"/>
<text text-anchor="start" x="380.5" y="-405.8" font-family="Times,serif" font-size="9.00" fill="#000000">0.00934178</text>
<polygon fill="#ff7f50" stroke="transparent" stroke-width="2" points="429.5,-399 429.5,-417 480.5,-417 480.5,-399 429.5,-399"/>
<polygon fill="none" stroke="#000000" stroke-width="2" points="430.5,-400 430.5,-416 479.5,-416 479.5,-400 430.5,-400"/>
<text text-anchor="start" x="433.5" y="-405.8" font-family="Times,serif" font-size="9.00" fill="#000000">0.00055822</text>
<text text-anchor="start" x="363" y="-385.8" font-family="Times,serif" font-size="9.00" fill="#7f7f7f">in</text>
<polygon fill="#ffd700" stroke="transparent" stroke-width="2" points="376.5,-379 376.5,-397 427.5,-397 427.5,-379 376.5,-379"/>
<polygon fill="none" stroke="#000000" stroke-width="2" points="377.5,-380 377.5,-396 426.5,-396 426.5,-380 377.5,-380"/>
<text text-anchor="start" x="391.5" y="-385.8" font-family="Times,serif" font-size="9.00" fill="#000000">0.005</text>
<polygon fill="#ffd700" stroke="transparent" stroke-width="2" points="429.5,-379 429.5,-397 480.5,-397 480.5,-379 429.5,-379"/>
<polygon fill="none" stroke="#000000" stroke-width="2" points="430.5,-380 430.5,-396 479.5,-396 479.5,-380 430.5,-380"/>
<text text-anchor="start" x="444.5" y="-385.8" font-family="Times,serif" font-size="9.00" fill="#000000">0.005</text>
<polygon fill="none" stroke="#7f7f7f" points="355.5,-376 355.5,-420 483.5,-420 483.5,-376 355.5,-376"/>
</g>
<!-- mix_5 -->
<g id="node8" class="node">
<title>mix_5</title>
<text text-anchor="start" x="235.5" y="-281.8" font-family="Times,serif" font-size="9.00" fill="#7f7f7f">out</text>
<polygon fill="none" stroke="#7f7f7f" points="251.5,-275 251.5,-293 282.5,-293 282.5,-275 251.5,-275"/>
<text text-anchor="start" x="256.5" y="-281.8" font-family="Times,serif" font-size="9.00" fill="#7f7f7f">0.005</text>
<polygon fill="#9acd32" stroke="transparent" points="284.5,-275 284.5,-293 315.5,-293 315.5,-275 284.5,-275"/>
<polygon fill="none" stroke="#000000" stroke-width="2" points="285.5,-276 285.5,-292 314.5,-292 314.5,-276 285.5,-276"/>
<text text-anchor="start" x="289.5" y="-281.8" font-family="Times,serif" font-size="9.00" fill="#000000">0.005</text>
<polygon fill="none" stroke="#7f7f7f" points="317.5,-275 317.5,-293 346.5,-293 346.5,-275 317.5,-275"/>
<text text-anchor="start" x="321.5" y="-281.8" font-family="Times,serif" font-size="9.00" fill="#7f7f7f">0.005</text>
<polygon fill="#ff7f50" stroke="transparent" points="348.5,-275 348.5,-293 381.5,-293 381.5,-275 348.5,-275"/>
<polygon fill="none" stroke="#000000" stroke-width="2" points="349.5,-276 349.5,-292 380.5,-292 380.5,-276 349.5,-276"/>
<text text-anchor="start" x="352.5" y="-281.8" font-family="Times,serif" font-size="9.00" fill="#000000">0.0001</text>
<text text-anchor="start" x="238" y="-261.8" font-family="Times,serif" font-size="9.00" fill="#7f7f7f">in</text>
<polygon fill="none" stroke="#7f7f7f" points="251.5,-255 251.5,-273 282.5,-273 282.5,-255 251.5,-255"/>
<text text-anchor="start" x="254.5" y="-261.8" font-family="Times,serif" font-size="9.00" fill="#7f7f7f">0.0051</text>
<polygon fill="none" stroke="#7f7f7f" points="284.5,-255 284.5,-273 315.5,-273 315.5,-255 284.5,-255"/>
<text text-anchor="start" x="287.5" y="-261.8" font-family="Times,serif" font-size="9.00" fill="#7f7f7f">0.0051</text>
<polygon fill="#ff7f50" stroke="transparent" points="317.5,-255 317.5,-273 346.5,-273 346.5,-255 317.5,-255"/>
<polygon fill="none" stroke="#000000" stroke-width="2" points="318.5,-256 318.5,-272 345.5,-272 345.5,-256 318.5,-256"/>
<text text-anchor="start" x="321.5" y="-261.8" font-family="Times,serif" font-size="9.00" fill="#000000">0.005</text>
<polygon fill="#ff7f50" stroke="transparent" stroke-width="2" points="348.5,-255 348.5,-273 381.5,-273 381.5,-255 348.5,-255"/>
<polygon fill="none" stroke="#000000" stroke-width="2" points="349.5,-256 349.5,-272 380.5,-272 380.5,-256 349.5,-256"/>
<text text-anchor="start" x="352.5" y="-261.8" font-family="Times,serif" font-size="9.00" fill="#000000">0.0002</text>
<polygon fill="none" stroke="#7f7f7f" points="230.5,-252 230.5,-296 384.5,-296 384.5,-252 230.5,-252"/>
</g>
<!-- spend_1&#45;&gt;mix_5 -->
<g id="edge1" class="edge">
<title>spend_1:s&#45;&gt;mix_5:o01</title>
<path fill="none" stroke="#000000" d="M401.5,-379C401.5,-323.4097 311.8516,-348.5812 300.6455,-303.0861"/>
<polygon fill="#000000" stroke="#000000" points="304.1062,-302.5411 299.5,-293 297.1509,-303.3311 304.1062,-302.5411"/>
</g>
<!-- mix_6 -->
<g id="node9" class="node">
<title>mix_6</title>
<text text-anchor="start" x="461.5" y="-281.8" font-family="Times,serif" font-size="9.00" fill="#7f7f7f">out</text>
<polygon fill="none" stroke="#7f7f7f" points="477.5,-275 477.5,-293 508.5,-293 508.5,-275 477.5,-275"/>
<text text-anchor="start" x="482.5" y="-281.8" font-family="Times,serif" font-size="9.00" fill="#7f7f7f">0.005</text>
<polygon fill="none" stroke="#7f7f7f" points="510.5,-275 510.5,-293 541.5,-293 541.5,-275 510.5,-275"/>
<text text-anchor="start" x="515.5" y="-281.8" font-family="Times,serif" font-size="9.00" fill="#7f7f7f">0.005</text>
<polygon fill="#9acd32" stroke="transparent" points="543.5,-275 543.5,-293 572.5,-293 572.5,-275 543.5,-275"/>
<polygon fill="none" stroke="#000000" stroke-width="2" points="544.5,-276 544.5,-292 571.5,-292 571.5,-276 544.5,-276"/>
<text text-anchor="start" x="547.5" y="-281.8" font-family="Times,serif" font-size="9.00" fill="#000000">0.005</text>
<polygon fill="#ff7f50" stroke="transparent" stroke-width="2" points="574.5,-275 574.5,-293 607.5,-293 607.5,-275 574.5,-275"/>
<polygon fill="none" stroke="#000000" stroke-width="2" points="575.5,-276 575.5,-292 606.5,-292 606.5,-276 575.5,-276"/>
<text text-anchor="start" x="578.5" y="-281.8" font-family="Times,serif" font-size="9.00" fill="#000000">0.0001</text>
<text text-anchor="start" x="464" y="-261.8" font-family="Times,serif" font-size="9.00" fill="#7f7f7f">in</text>
<polygon fill="none" stroke="#7f7f7f" points="477.5,-255 477.5,-273 508.5,-273 508.5,-255 477.5,-255"/>
<text text-anchor="start" x="480.5" y="-261.8" font-family="Times,serif" font-size="9.00" fill="#7f7f7f">0.0051</text>
<polygon fill="none" stroke="#7f7f7f" points="510.5,-255 510.5,-273 541.5,-273 541.5,-255 510.5,-255"/>
<text text-anchor="start" x="513.5" y="-261.8" font-family="Times,serif" font-size="9.00" fill="#7f7f7f">0.0051</text>
<polygon fill="#ff7f50" stroke="transparent" points="543.5,-255 543.5,-273 572.5,-273 572.5,-255 543.5,-255"/>
<polygon fill="none" stroke="#000000" stroke-width="2" points="544.5,-256 544.5,-272 571.5,-272 571.5,-256 544.5,-256"/>
<text text-anchor="start" x="547.5" y="-261.8" font-family="Times,serif" font-size="9.00" fill="#000000">0.005</text>
<polygon fill="#ff7f50" stroke="transparent" stroke-width="2" points="574.5,-255 574.5,-273 607.5,-273 607.5,-255 574.5,-255"/>
<polygon fill="none" stroke="#000000" stroke-width="2" points="575.5,-256 575.5,-272 606.5,-272 606.5,-256 575.5,-256"/>
<text text-anchor="start" x="578.5" y="-261.8" font-family="Times,serif" font-size="9.00" fill="#000000">0.0002</text>
<polygon fill="none" stroke="#7f7f7f" points="456.5,-252 456.5,-296 610.5,-296 610.5,-252 456.5,-252"/>
</g>
<!-- spend_1&#45;&gt;mix_6 -->
<g id="edge2" class="edge">
<title>spend_1:s&#45;&gt;mix_6:o01</title>
<path fill="none" stroke="#000000" d="M455.5,-379C455.5,-323.0905 546.0273,-348.8405 557.3433,-303.1385"/>
<polygon fill="#000000" stroke="#000000" points="560.8438,-303.3323 558.5,-293 553.8889,-302.5388 560.8438,-303.3323"/>
</g>
<!-- spend_2 -->
<g id="node2" class="node">
<title>spend_2</title>
<text text-anchor="start" x="169.5" y="-405.8" font-family="Times,serif" font-size="9.00" fill="#7f7f7f">out</text>
<polygon fill="#ff7f50" stroke="transparent" points="185.5,-399 185.5,-417 236.5,-417 236.5,-399 185.5,-399"/>
<polygon fill="none" stroke="#000000" stroke-width="2" points="186.5,-400 186.5,-416 235.5,-416 235.5,-400 186.5,-400"/>
<text text-anchor="start" x="189.5" y="-405.8" font-family="Times,serif" font-size="9.00" fill="#000000">0.03916501</text>
<polygon fill="#ff7f50" stroke="transparent" stroke-width="2" points="238.5,-399 238.5,-417 289.5,-417 289.5,-399 238.5,-399"/>
<polygon fill="none" stroke="#000000" stroke-width="2" points="239.5,-400 239.5,-416 288.5,-416 288.5,-400 239.5,-400"/>
<text text-anchor="start" x="242.5" y="-405.8" font-family="Times,serif" font-size="9.00" fill="#000000">0.00073499</text>
<text text-anchor="start" x="172" y="-385.8" font-family="Times,serif" font-size="9.00" fill="#7f7f7f">in</text>
<polygon fill="#ffd700" stroke="transparent" stroke-width="2" points="185.5,-379 185.5,-397 236.5,-397 236.5,-379 185.5,-379"/>
<polygon fill="none" stroke="#000000" stroke-width="2" points="186.5,-380 186.5,-396 235.5,-396 235.5,-380 186.5,-380"/>
<text text-anchor="start" x="203" y="-385.8" font-family="Times,serif" font-size="9.00" fill="#000000">0.02</text>
<polygon fill="#ffd700" stroke="transparent" stroke-width="2" points="238.5,-379 238.5,-397 289.5,-397 289.5,-379 238.5,-379"/>
<polygon fill="none" stroke="#000000" stroke-width="2" points="239.5,-380 239.5,-396 288.5,-396 288.5,-380 239.5,-380"/>
<text text-anchor="start" x="256" y="-385.8" font-family="Times,serif" font-size="9.00" fill="#000000">0.02</text>
<polygon fill="none" stroke="#7f7f7f" points="164.5,-376 164.5,-420 292.5,-420 292.5,-376 164.5,-376"/>
</g>
<!-- mix_2 -->
<g id="node5" class="node">
<title>mix_2</title>
<text text-anchor="start" x="17.5" y="-281.8" font-family="Times,serif" font-size="9.00" fill="#7f7f7f">out</text>
<polygon fill="none" stroke="#7f7f7f" points="33.5,-275 33.5,-293 64.5,-293 64.5,-275 33.5,-275"/>
<text text-anchor="start" x="41" y="-281.8" font-family="Times,serif" font-size="9.00" fill="#7f7f7f">0.02</text>
<polygon fill="#9acd32" stroke="transparent" points="66.5,-275 66.5,-293 90.5,-293 90.5,-275 66.5,-275"/>
<polygon fill="none" stroke="#000000" stroke-width="2" points="67.5,-276 67.5,-292 89.5,-292 89.5,-276 67.5,-276"/>
<text text-anchor="start" x="70.5" y="-281.8" font-family="Times,serif" font-size="9.00" fill="#000000">0.02</text>
<polygon fill="none" stroke="#7f7f7f" points="92.5,-275 92.5,-293 125.5,-293 125.5,-275 92.5,-275"/>
<text text-anchor="start" x="101" y="-281.8" font-family="Times,serif" font-size="9.00" fill="#7f7f7f">0.02</text>
<polygon fill="#ff7f50" stroke="transparent" points="127.5,-275 127.5,-293 160.5,-293 160.5,-275 127.5,-275"/>
<polygon fill="none" stroke="#000000" stroke-width="2" points="128.5,-276 128.5,-292 159.5,-292 159.5,-276 128.5,-276"/>
<text text-anchor="start" x="131.5" y="-281.8" font-family="Times,serif" font-size="9.00" fill="#000000">0.0001</text>
<text text-anchor="start" x="20" y="-261.8" font-family="Times,serif" font-size="9.00" fill="#7f7f7f">in</text>
<polygon fill="none" stroke="#7f7f7f" points="33.5,-255 33.5,-273 64.5,-273 64.5,-255 33.5,-255"/>
<text text-anchor="start" x="36.5" y="-261.8" font-family="Times,serif" font-size="9.00" fill="#7f7f7f">0.0201</text>
<polygon fill="#ff7f50" stroke="transparent" points="66.5,-255 66.5,-273 90.5,-273 90.5,-255 66.5,-255"/>
<polygon fill="none" stroke="#000000" stroke-width="2" points="67.5,-256 67.5,-272 89.5,-272 89.5,-256 67.5,-256"/>
<text text-anchor="start" x="70.5" y="-261.8" font-family="Times,serif" font-size="9.00" fill="#000000">0.02</text>
<polygon fill="#ff7f50" stroke="transparent" stroke-width="2" points="92.5,-255 92.5,-273 125.5,-273 125.5,-255 92.5,-255"/>
<polygon fill="none" stroke="#000000" stroke-width="2" points="93.5,-256 93.5,-272 124.5,-272 124.5,-256 93.5,-256"/>
<text text-anchor="start" x="96.5" y="-261.8" font-family="Times,serif" font-size="9.00" fill="#000000">0.0002</text>
<polygon fill="none" stroke="#7f7f7f" points="127.5,-255 127.5,-273 160.5,-273 160.5,-255 127.5,-255"/>
<text text-anchor="start" x="136" y="-261.8" font-family="Times,serif" font-size="9.00" fill="#7f7f7f">0.02</text>
<polygon fill="none" stroke="#7f7f7f" points="162.5,-255 162.5,-273 193.5,-273 193.5,-255 162.5,-255"/>
<text text-anchor="start" x="165.5" y="-261.8" font-family="Times,serif" font-size="9.00" fill="#7f7f7f">0.0001</text>
<polygon fill="none" stroke="#7f7f7f" points="12.5,-252 12.5,-296 196.5,-296 196.5,-252 12.5,-252"/>
</g>
<!-- spend_2&#45;&gt;mix_2 -->
<g id="edge3" class="edge">
<title>spend_2:s&#45;&gt;mix_2:o01</title>
<path fill="none" stroke="#000000" d="M210.5,-379C210.5,-312.673 92.0548,-357.665 79.5625,-303.0787"/>
<polygon fill="#000000" stroke="#000000" points="83.0292,-302.5779 78.5,-293 76.0678,-303.3119 83.0292,-302.5779"/>
</g>
<!-- mix_3 -->
<g id="node6" class="node">
<title>mix_3</title>
<text text-anchor="start" x="400.5" y="-157.8" font-family="Times,serif" font-size="9.00" fill="#7f7f7f">out</text>
<polygon fill="none" stroke="#7f7f7f" points="416.5,-151 416.5,-169 447.5,-169 447.5,-151 416.5,-151"/>
<text text-anchor="start" x="424" y="-157.8" font-family="Times,serif" font-size="9.00" fill="#7f7f7f">0.02</text>
<polygon fill="none" stroke="#7f7f7f" points="449.5,-151 449.5,-169 480.5,-169 480.5,-151 449.5,-151"/>
<text text-anchor="start" x="457" y="-157.8" font-family="Times,serif" font-size="9.00" fill="#7f7f7f">0.02</text>
<polygon fill="#9acd32" stroke="transparent" points="482.5,-151 482.5,-169 506.5,-169 506.5,-151 482.5,-151"/>
<polygon fill="none" stroke="#000000" stroke-width="2" points="483.5,-152 483.5,-168 505.5,-168 505.5,-152 483.5,-152"/>
<text text-anchor="start" x="486.5" y="-157.8" font-family="Times,serif" font-size="9.00" fill="#000000">0.02</text>
<polygon fill="#ff7f50" stroke="transparent" stroke-width="2" points="508.5,-151 508.5,-169 537.5,-169 537.5,-151 508.5,-151"/>
<polygon fill="none" stroke="#000000" stroke-width="2" points="509.5,-152 509.5,-168 536.5,-168 536.5,-152 509.5,-152"/>
<text text-anchor="start" x="512.5" y="-157.8" font-family="Times,serif" font-size="9.00" fill="#000000">0.001</text>
<polygon fill="#ff7f50" stroke="transparent" stroke-width="2" points="539.5,-151 539.5,-169 572.5,-169 572.5,-151 539.5,-151"/>
<polygon fill="none" stroke="#000000" stroke-width="2" points="540.5,-152 540.5,-168 571.5,-168 571.5,-152 540.5,-152"/>
<text text-anchor="start" x="543.5" y="-157.8" font-family="Times,serif" font-size="9.00" fill="#000000">0.0005</text>
<polygon fill="#ff7f50" stroke="transparent" stroke-width="2" points="574.5,-151 574.5,-169 607.5,-169 607.5,-151 574.5,-151"/>
<polygon fill="none" stroke="#000000" stroke-width="2" points="575.5,-152 575.5,-168 606.5,-168 606.5,-152 575.5,-152"/>
<text text-anchor="start" x="578.5" y="-157.8" font-family="Times,serif" font-size="9.00" fill="#000000">0.0002</text>
<polygon fill="#ff7f50" stroke="transparent" stroke-width="2" points="609.5,-151 609.5,-169 642.5,-169 642.5,-151 609.5,-151"/>
<polygon fill="none" stroke="#000000" stroke-width="2" points="610.5,-152 610.5,-168 641.5,-168 641.5,-152 610.5,-152"/>
<text text-anchor="start" x="613.5" y="-157.8" font-family="Times,serif" font-size="9.00" fill="#000000">0.0002</text>
<text text-anchor="start" x="403" y="-137.8" font-family="Times,serif" font-size="9.00" fill="#7f7f7f">in</text>
<polygon fill="none" stroke="#7f7f7f" points="416.5,-131 416.5,-149 447.5,-149 447.5,-131 416.5,-131"/>
<text text-anchor="start" x="419.5" y="-137.8" font-family="Times,serif" font-size="9.00" fill="#7f7f7f">0.0201</text>
<polygon fill="none" stroke="#7f7f7f" points="449.5,-131 449.5,-149 480.5,-149 480.5,-131 449.5,-131"/>
<text text-anchor="start" x="452.5" y="-137.8" font-family="Times,serif" font-size="9.00" fill="#7f7f7f">0.0201</text>
<polygon fill="#ff7f50" stroke="transparent" points="482.5,-131 482.5,-149 506.5,-149 506.5,-131 482.5,-131"/>
<polygon fill="none" stroke="#000000" stroke-width="2" points="483.5,-132 483.5,-148 505.5,-148 505.5,-132 483.5,-132"/>
<text text-anchor="start" x="486.5" y="-137.8" font-family="Times,serif" font-size="9.00" fill="#000000">0.02</text>
<polygon fill="#ff7f50" stroke="transparent" stroke-width="2" points="508.5,-131 508.5,-149 537.5,-149 537.5,-131 508.5,-131"/>
<polygon fill="none" stroke="#000000" stroke-width="2" points="509.5,-132 509.5,-148 536.5,-148 536.5,-132 509.5,-132"/>
<text text-anchor="start" x="512.5" y="-137.8" font-family="Times,serif" font-size="9.00" fill="#000000">0.002</text>
<polygon fill="none" stroke="#7f7f7f" points="395.5,-128 395.5,-172 645.5,-172 645.5,-128 395.5,-128"/>
</g>
<!-- spend_2&#45;&gt;mix_3 -->
<g id="edge4" class="edge">
<title>spend_2:s&#45;&gt;mix_3:o01</title>
<path fill="none" stroke="#000000" d="M264.5,-379C264.5,-308.7131 349.5127,-347.3029 401.5,-300 402.9054,-298.7212 469.357,-206.2426 489.0538,-177.4384"/>
<polygon fill="#000000" stroke="#000000" points="492.0179,-179.3 494.5,-169 486.1365,-175.5041 492.0179,-179.3"/>
</g>
<!-- spend_3 -->
<g id="node3" class="node">
<title>spend_3</title>
<text text-anchor="start" x="666.5" y="-405.8" font-family="Times,serif" font-size="9.00" fill="#7f7f7f">out</text>
<polygon fill="#ff7f50" stroke="transparent" points="682.5,-399 682.5,-417 733.5,-417 733.5,-399 682.5,-399"/>
<polygon fill="none" stroke="#000000" stroke-width="2" points="683.5,-400 683.5,-416 732.5,-416 732.5,-400 683.5,-400"/>
<text text-anchor="start" x="686.5" y="-405.8" font-family="Times,serif" font-size="9.00" fill="#000000">0.02638449</text>
<polygon fill="#ff7f50" stroke="transparent" stroke-width="2" points="735.5,-399 735.5,-417 786.5,-417 786.5,-399 735.5,-399"/>
<polygon fill="none" stroke="#000000" stroke-width="2" points="736.5,-400 736.5,-416 785.5,-416 785.5,-400 736.5,-400"/>
<text text-anchor="start" x="739.5" y="-405.8" font-family="Times,serif" font-size="9.00" fill="#000000">0.00351551</text>
<text text-anchor="start" x="669" y="-385.8" font-family="Times,serif" font-size="9.00" fill="#7f7f7f">in</text>
<polygon fill="#ffd700" stroke="transparent" stroke-width="2" points="682.5,-379 682.5,-397 733.5,-397 733.5,-379 682.5,-379"/>
<polygon fill="none" stroke="#000000" stroke-width="2" points="683.5,-380 683.5,-396 732.5,-396 732.5,-380 683.5,-380"/>
<text text-anchor="start" x="700" y="-385.8" font-family="Times,serif" font-size="9.00" fill="#000000">0.02</text>
<polygon fill="#ffd700" stroke="transparent" stroke-width="2" points="735.5,-379 735.5,-397 786.5,-397 786.5,-379 735.5,-379"/>
<polygon fill="none" stroke="#000000" stroke-width="2" points="736.5,-380 736.5,-396 785.5,-396 785.5,-380 736.5,-380"/>
<text text-anchor="start" x="753" y="-385.8" font-family="Times,serif" font-size="9.00" fill="#000000">0.01</text>
<polygon fill="none" stroke="#7f7f7f" points="661.5,-376 661.5,-420 789.5,-420 789.5,-376 661.5,-376"/>
</g>
<!-- mix_1 -->
<g id="node4" class="node">
<title>mix_1</title>
<text text-anchor="start" x="723.5" y="-157.8" font-family="Times,serif" font-size="9.00" fill="#7f7f7f">out</text>
<polygon fill="none" stroke="#7f7f7f" points="739.5,-151 739.5,-169 770.5,-169 770.5,-151 739.5,-151"/>
<text text-anchor="start" x="747" y="-157.8" font-family="Times,serif" font-size="9.00" fill="#7f7f7f">0.02</text>
<polygon fill="none" stroke="#7f7f7f" points="772.5,-151 772.5,-169 803.5,-169 803.5,-151 772.5,-151"/>
<text text-anchor="start" x="780" y="-157.8" font-family="Times,serif" font-size="9.00" fill="#7f7f7f">0.02</text>
<polygon fill="#9acd32" stroke="transparent" points="805.5,-151 805.5,-169 829.5,-169 829.5,-151 805.5,-151"/>
<polygon fill="none" stroke="#000000" stroke-width="2" points="806.5,-152 806.5,-168 828.5,-168 828.5,-152 806.5,-152"/>
<text text-anchor="start" x="809.5" y="-157.8" font-family="Times,serif" font-size="9.00" fill="#000000">0.02</text>
<polygon fill="#ff7f50" stroke="transparent" stroke-width="2" points="831.5,-151 831.5,-169 864.5,-169 864.5,-151 831.5,-151"/>
<polygon fill="none" stroke="#000000" stroke-width="2" points="832.5,-152 832.5,-168 863.5,-168 863.5,-152 832.5,-152"/>
<text text-anchor="start" x="835.5" y="-157.8" font-family="Times,serif" font-size="9.00" fill="#000000">0.0001</text>
<text text-anchor="start" x="726" y="-137.8" font-family="Times,serif" font-size="9.00" fill="#7f7f7f">in</text>
<polygon fill="none" stroke="#7f7f7f" points="739.5,-131 739.5,-149 770.5,-149 770.5,-131 739.5,-131"/>
<text text-anchor="start" x="742.5" y="-137.8" font-family="Times,serif" font-size="9.00" fill="#7f7f7f">0.0201</text>
<polygon fill="none" stroke="#7f7f7f" points="772.5,-131 772.5,-149 803.5,-149 803.5,-131 772.5,-131"/>
<text text-anchor="start" x="775.5" y="-137.8" font-family="Times,serif" font-size="9.00" fill="#7f7f7f">0.0201</text>
<polygon fill="#ff7f50" stroke="transparent" points="805.5,-131 805.5,-149 829.5,-149 829.5,-131 805.5,-131"/>
<polygon fill="none" stroke="#000000" stroke-width="2" points="806.5,-132 806.5,-148 828.5,-148 828.5,-132 806.5,-132"/>
<text text-anchor="start" x="809.5" y="-137.8" font-family="Times,serif" font-size="9.00" fill="#000000">0.02</text>
<polygon fill="#ff7f50" stroke="transparent" stroke-width="2" points="831.5,-131 831.5,-149 864.5,-149 864.5,-131 831.5,-131"/>
<polygon fill="none" stroke="#000000" stroke-width="2" points="832.5,-132 832.5,-148 863.5,-148 863.5,-132 832.5,-132"/>
<text text-anchor="start" x="835.5" y="-137.8" font-family="Times,serif" font-size="9.00" fill="#000000">0.0002</text>
<polygon fill="none" stroke="#7f7f7f" points="718,-128 718,-172 867,-172 867,-128 718,-128"/>
</g>
<!-- spend_3&#45;&gt;mix_1 -->
<g id="edge5" class="edge">
<title>spend_3:s&#45;&gt;mix_1:o01</title>
<path fill="none" stroke="#000000" d="M707.5,-379C707.5,-320.6947 673.1398,-299.4871 700.5,-248 728.2179,-195.8398 807.4389,-227.4805 816.6275,-179.0192"/>
<polygon fill="#000000" stroke="#000000" points="820.1192,-179.266 817.5,-169 813.1456,-178.6586 820.1192,-179.266"/>
</g>
<!-- mix_4 -->
<g id="node7" class="node">
<title>mix_4</title>
<text text-anchor="start" x="723.5" y="-281.8" font-family="Times,serif" font-size="9.00" fill="#7f7f7f">out</text>
<polygon fill="none" stroke="#7f7f7f" points="739.5,-275 739.5,-293 770.5,-293 770.5,-275 739.5,-275"/>
<text text-anchor="start" x="747" y="-281.8" font-family="Times,serif" font-size="9.00" fill="#7f7f7f">0.01</text>
<polygon fill="#9acd32" stroke="transparent" points="772.5,-275 772.5,-293 803.5,-293 803.5,-275 772.5,-275"/>
<polygon fill="none" stroke="#000000" stroke-width="2" points="773.5,-276 773.5,-292 802.5,-292 802.5,-276 773.5,-276"/>
<text text-anchor="start" x="780" y="-281.8" font-family="Times,serif" font-size="9.00" fill="#000000">0.01</text>
<polygon fill="none" stroke="#7f7f7f" points="805.5,-275 805.5,-293 829.5,-293 829.5,-275 805.5,-275"/>
<text text-anchor="start" x="809.5" y="-281.8" font-family="Times,serif" font-size="9.00" fill="#7f7f7f">0.01</text>
<text text-anchor="start" x="726" y="-261.8" font-family="Times,serif" font-size="9.00" fill="#7f7f7f">in</text>
<polygon fill="none" stroke="#7f7f7f" points="739.5,-255 739.5,-273 770.5,-273 770.5,-255 739.5,-255"/>
<text text-anchor="start" x="742.5" y="-261.8" font-family="Times,serif" font-size="9.00" fill="#7f7f7f">0.0101</text>
<polygon fill="none" stroke="#7f7f7f" points="772.5,-255 772.5,-273 803.5,-273 803.5,-255 772.5,-255"/>
<text text-anchor="start" x="775.5" y="-261.8" font-family="Times,serif" font-size="9.00" fill="#7f7f7f">0.0101</text>
<polygon fill="#ff7f50" stroke="transparent" points="805.5,-255 805.5,-273 829.5,-273 829.5,-255 805.5,-255"/>
<polygon fill="none" stroke="#000000" stroke-width="2" points="806.5,-256 806.5,-272 828.5,-272 828.5,-256 806.5,-256"/>
<text text-anchor="start" x="809.5" y="-261.8" font-family="Times,serif" font-size="9.00" fill="#000000">0.01</text>
<polygon fill="#ff7f50" stroke="transparent" stroke-width="2" points="831.5,-255 831.5,-273 864.5,-273 864.5,-255 831.5,-255"/>
<polygon fill="none" stroke="#000000" stroke-width="2" points="832.5,-256 832.5,-272 863.5,-272 863.5,-256 832.5,-256"/>
<text text-anchor="start" x="835.5" y="-261.8" font-family="Times,serif" font-size="9.00" fill="#000000">0.0001</text>
<polygon fill="none" stroke="#7f7f7f" points="718,-252 718,-296 867,-296 867,-252 718,-252"/>
</g>
<!-- spend_3&#45;&gt;mix_4 -->
<g id="edge6" class="edge">
<title>spend_3:s&#45;&gt;mix_4:o01</title>
<path fill="none" stroke="#000000" d="M761.5,-379C761.5,-342.6567 783.038,-334.3066 786.9081,-302.9933"/>
<polygon fill="#000000" stroke="#000000" points="790.4025,-303.1895 787.5,-293 783.4148,-302.7755 790.4025,-303.1895"/>
</g>
<!-- sweep_1 -->
<g id="node10" class="node">
<title>sweep_1</title>
<text text-anchor="start" x="644.5" y="-33.8" font-family="Times,serif" font-size="9.00" fill="#7f7f7f">out</text>
<polygon fill="#ff7f50" stroke="transparent" points="660.5,-27 660.5,-45 689.5,-45 689.5,-27 660.5,-27"/>
<polygon fill="none" stroke="#000000" stroke-width="2" points="661.5,-28 661.5,-44 688.5,-44 688.5,-28 661.5,-28"/>
<text text-anchor="start" x="669" y="-33.8" font-family="Times,serif" font-size="9.00" fill="#000000">0.5</text>
<polygon fill="#ff7f50" stroke="transparent" stroke-width="2" points="691.5,-27 691.5,-45 711.5,-45 711.5,-27 691.5,-27"/>
<polygon fill="none" stroke="#000000" stroke-width="2" points="692.5,-28 692.5,-44 710.5,-44 710.5,-28 692.5,-28"/>
<text text-anchor="start" x="695.5" y="-33.8" font-family="Times,serif" font-size="9.00" fill="#000000">0.2</text>
<polygon fill="#ff7f50" stroke="transparent" stroke-width="2" points="713.5,-27 713.5,-45 737.5,-45 737.5,-27 713.5,-27"/>
<polygon fill="none" stroke="#000000" stroke-width="2" points="714.5,-28 714.5,-44 736.5,-44 736.5,-28 714.5,-28"/>
<text text-anchor="start" x="717.5" y="-33.8" font-family="Times,serif" font-size="9.00" fill="#000000">0.02</text>
<polygon fill="#ff7f50" stroke="transparent" stroke-width="2" points="739.5,-27 739.5,-45 763.5,-45 763.5,-27 739.5,-27"/>
<polygon fill="none" stroke="#000000" stroke-width="2" points="740.5,-28 740.5,-44 762.5,-44 762.5,-28 740.5,-28"/>
<text text-anchor="start" x="743.5" y="-33.8" font-family="Times,serif" font-size="9.00" fill="#000000">0.01</text>
<polygon fill="#ff7f50" stroke="transparent" stroke-width="2" points="765.5,-27 765.5,-45 794.5,-45 794.5,-27 765.5,-27"/>
<polygon fill="none" stroke="#000000" stroke-width="2" points="766.5,-28 766.5,-44 793.5,-44 793.5,-28 766.5,-28"/>
<text text-anchor="start" x="769.5" y="-33.8" font-family="Times,serif" font-size="9.00" fill="#000000">0.005</text>
<polygon fill="#ff7f50" stroke="transparent" stroke-width="2" points="796.5,-27 796.5,-45 829.5,-45 829.5,-27 796.5,-27"/>
<polygon fill="none" stroke="#000000" stroke-width="2" points="797.5,-28 797.5,-44 828.5,-44 828.5,-28 797.5,-28"/>
<text text-anchor="start" x="800.5" y="-33.8" font-family="Times,serif" font-size="9.00" fill="#000000">0.0005</text>
<polygon fill="#ff7f50" stroke="transparent" stroke-width="2" points="831.5,-27 831.5,-45 864.5,-45 864.5,-27 831.5,-27"/>
<polygon fill="none" stroke="#000000" stroke-width="2" points="832.5,-28 832.5,-44 863.5,-44 863.5,-28 832.5,-28"/>
<text text-anchor="start" x="835.5" y="-33.8" font-family="Times,serif" font-size="9.00" fill="#000000">0.0002</text>
<polygon fill="#ff7f50" stroke="transparent" stroke-width="2" points="866.5,-27 866.5,-45 899.5,-45 899.5,-27 866.5,-27"/>
<polygon fill="none" stroke="#000000" stroke-width="2" points="867.5,-28 867.5,-44 898.5,-44 898.5,-28 867.5,-28"/>
<text text-anchor="start" x="870.5" y="-33.8" font-family="Times,serif" font-size="9.00" fill="#000000">0.0002</text>
<text text-anchor="start" x="647" y="-13.8" font-family="Times,serif" font-size="9.00" fill="#7f7f7f">in</text>
<polygon fill="#ff7f50" stroke="transparent" stroke-width="2" points="660.5,-7 660.5,-25 689.5,-25 689.5,-7 660.5,-7"/>
<polygon fill="none" stroke="#000000" stroke-width="2" points="661.5,-8 661.5,-24 688.5,-24 688.5,-8 661.5,-8"/>
<text text-anchor="start" x="664.5" y="-13.8" font-family="Times,serif" font-size="9.00" fill="#000000">0.736</text>
<polygon fill="none" stroke="#7f7f7f" points="639,-4 639,-48 902,-48 902,-4 639,-4"/>
</g>
<!-- mix_1&#45;&gt;sweep_1 -->
<g id="edge7" class="edge">
<title>mix_1:s&#45;&gt;sweep_1:o01</title>
<path fill="none" stroke="#000000" d="M817.5,-131C817.5,-78.7451 737.313,-97.8874 726.6632,-55.1149"/>
<polygon fill="#000000" stroke="#000000" points="730.1196,-54.5346 725.5,-45 723.1655,-55.3344 730.1196,-54.5346"/>
</g>
<!-- mix_1&#45;&gt;sweep_1 -->
<g id="edge8" class="edge">
<title>mix_1:s&#45;&gt;sweep_1:o04</title>
<path fill="none" stroke="#000000" d="M848.5,-131C848.5,-96.3611 848.5,-85.2658 848.5,-55.0414"/>
<polygon fill="#000000" stroke="#000000" points="852.0001,-55 848.5,-45 845.0001,-55 852.0001,-55"/>
</g>
<!-- sweep_2 -->
<g id="node11" class="node">
<title>sweep_2</title>
<text text-anchor="start" x="13.5" y="-157.8" font-family="Times,serif" font-size="9.00" fill="#7f7f7f">out</text>
<polygon fill="#ff7f50" stroke="transparent" points="29.5,-151 29.5,-169 58.5,-169 58.5,-151 29.5,-151"/>
<polygon fill="none" stroke="#000000" stroke-width="2" points="30.5,-152 30.5,-168 57.5,-168 57.5,-152 30.5,-152"/>
<text text-anchor="start" x="38" y="-157.8" font-family="Times,serif" font-size="9.00" fill="#000000">0.2</text>
<polygon fill="#ff7f50" stroke="transparent" stroke-width="2" points="60.5,-151 60.5,-169 80.5,-169 80.5,-151 60.5,-151"/>
<polygon fill="none" stroke="#000000" stroke-width="2" points="61.5,-152 61.5,-168 79.5,-168 79.5,-152 61.5,-152"/>
<text text-anchor="start" x="64.5" y="-157.8" font-family="Times,serif" font-size="9.00" fill="#000000">0.1</text>
<polygon fill="#ff7f50" stroke="transparent" stroke-width="2" points="82.5,-151 82.5,-169 106.5,-169 106.5,-151 82.5,-151"/>
<polygon fill="none" stroke="#000000" stroke-width="2" points="83.5,-152 83.5,-168 105.5,-168 105.5,-152 83.5,-152"/>
<text text-anchor="start" x="86.5" y="-157.8" font-family="Times,serif" font-size="9.00" fill="#000000">0.02</text>
<polygon fill="#ff7f50" stroke="transparent" stroke-width="2" points="108.5,-151 108.5,-169 137.5,-169 137.5,-151 108.5,-151"/>
<polygon fill="none" stroke="#000000" stroke-width="2" points="109.5,-152 109.5,-168 136.5,-168 136.5,-152 109.5,-152"/>
<text text-anchor="start" x="112.5" y="-157.8" font-family="Times,serif" font-size="9.00" fill="#000000">0.005</text>
<polygon fill="#ff7f50" stroke="transparent" stroke-width="2" points="139.5,-151 139.5,-169 168.5,-169 168.5,-151 139.5,-151"/>
<polygon fill="none" stroke="#000000" stroke-width="2" points="140.5,-152 140.5,-168 167.5,-168 167.5,-152 140.5,-152"/>
<text text-anchor="start" x="143.5" y="-157.8" font-family="Times,serif" font-size="9.00" fill="#000000">0.002</text>
<polygon fill="#ff7f50" stroke="transparent" stroke-width="2" points="170.5,-151 170.5,-169 199.5,-169 199.5,-151 170.5,-151"/>
<polygon fill="none" stroke="#000000" stroke-width="2" points="171.5,-152 171.5,-168 198.5,-168 198.5,-152 171.5,-152"/>
<text text-anchor="start" x="174.5" y="-157.8" font-family="Times,serif" font-size="9.00" fill="#000000">0.002</text>
<polygon fill="#ff7f50" stroke="transparent" stroke-width="2" points="201.5,-151 201.5,-169 234.5,-169 234.5,-151 201.5,-151"/>
<polygon fill="none" stroke="#000000" stroke-width="2" points="202.5,-152 202.5,-168 233.5,-168 233.5,-152 202.5,-152"/>
<text text-anchor="start" x="205.5" y="-157.8" font-family="Times,serif" font-size="9.00" fill="#000000">0.0005</text>
<polygon fill="#ff7f50" stroke="transparent" stroke-width="2" points="236.5,-151 236.5,-169 269.5,-169 269.5,-151 236.5,-151"/>
<polygon fill="none" stroke="#000000" stroke-width="2" points="237.5,-152 237.5,-168 268.5,-168 268.5,-152 237.5,-152"/>
<text text-anchor="start" x="240.5" y="-157.8" font-family="Times,serif" font-size="9.00" fill="#000000">0.0002</text>
<polygon fill="#ff7f50" stroke="transparent" stroke-width="2" points="271.5,-151 271.5,-169 304.5,-169 304.5,-151 271.5,-151"/>
<polygon fill="none" stroke="#000000" stroke-width="2" points="272.5,-152 272.5,-168 303.5,-168 303.5,-152 272.5,-152"/>
<text text-anchor="start" x="275.5" y="-157.8" font-family="Times,serif" font-size="9.00" fill="#000000">0.0002</text>
<text text-anchor="start" x="16" y="-137.8" font-family="Times,serif" font-size="9.00" fill="#7f7f7f">in</text>
<polygon fill="#ff7f50" stroke="transparent" stroke-width="2" points="29.5,-131 29.5,-149 58.5,-149 58.5,-131 29.5,-131"/>
<polygon fill="none" stroke="#000000" stroke-width="2" points="30.5,-132 30.5,-148 57.5,-148 57.5,-132 30.5,-132"/>
<text text-anchor="start" x="33.5" y="-137.8" font-family="Times,serif" font-size="9.00" fill="#000000">0.321</text>
<polygon fill="none" stroke="#7f7f7f" points="8,-128 8,-172 307,-172 307,-128 8,-128"/>
</g>
<!-- mix_2&#45;&gt;sweep_2 -->
<g id="edge9" class="edge">
<title>mix_2:s&#45;&gt;sweep_2:o01</title>
<path fill="none" stroke="#000000" d="M78.5,-255C78.5,-219.7667 91.6406,-209.6931 94.1045,-179.1772"/>
<polygon fill="#000000" stroke="#000000" points="97.6089,-179.1284 94.5,-169 90.6142,-178.8565 97.6089,-179.1284"/>
</g>
<!-- mix_2&#45;&gt;sweep_2 -->
<g id="edge10" class="edge">
<title>mix_2:s&#45;&gt;sweep_2:o03</title>
<path fill="none" stroke="#000000" d="M109.5,-255C109.5,-184.095 239.7808,-237.7119 252.5036,-178.9673"/>
<polygon fill="#000000" stroke="#000000" points="255.9878,-179.2986 253.5,-169 249.0225,-178.6022 255.9878,-179.2986"/>
</g>
<!-- sweep_3 -->
<g id="node12" class="node">
<title>sweep_3</title>
<text text-anchor="start" x="374.5" y="-33.8" font-family="Times,serif" font-size="9.00" fill="#7f7f7f">out</text>
<polygon fill="#ff7f50" stroke="transparent" points="390.5,-27 390.5,-45 423.5,-45 423.5,-27 390.5,-27"/>
<polygon fill="none" stroke="#000000" stroke-width="2" points="391.5,-28 391.5,-44 422.5,-44 422.5,-28 391.5,-28"/>
<text text-anchor="start" x="401" y="-33.8" font-family="Times,serif" font-size="9.00" fill="#000000">0.2</text>
<polygon fill="#ff7f50" stroke="transparent" stroke-width="2" points="425.5,-27 425.5,-45 449.5,-45 449.5,-27 425.5,-27"/>
<polygon fill="none" stroke="#000000" stroke-width="2" points="426.5,-28 426.5,-44 448.5,-44 448.5,-28 426.5,-28"/>
<text text-anchor="start" x="429.5" y="-33.8" font-family="Times,serif" font-size="9.00" fill="#000000">0.02</text>
<polygon fill="#ff7f50" stroke="transparent" stroke-width="2" points="451.5,-27 451.5,-45 475.5,-45 475.5,-27 451.5,-27"/>
<polygon fill="none" stroke="#000000" stroke-width="2" points="452.5,-28 452.5,-44 474.5,-44 474.5,-28 452.5,-28"/>
<text text-anchor="start" x="455.5" y="-33.8" font-family="Times,serif" font-size="9.00" fill="#000000">0.02</text>
<polygon fill="#ff7f50" stroke="transparent" stroke-width="2" points="477.5,-27 477.5,-45 506.5,-45 506.5,-27 477.5,-27"/>
<polygon fill="none" stroke="#000000" stroke-width="2" points="478.5,-28 478.5,-44 505.5,-44 505.5,-28 478.5,-28"/>
<text text-anchor="start" x="481.5" y="-33.8" font-family="Times,serif" font-size="9.00" fill="#000000">0.005</text>
<polygon fill="#ff7f50" stroke="transparent" stroke-width="2" points="508.5,-27 508.5,-45 537.5,-45 537.5,-27 508.5,-27"/>
<polygon fill="none" stroke="#000000" stroke-width="2" points="509.5,-28 509.5,-44 536.5,-44 536.5,-28 509.5,-28"/>
<text text-anchor="start" x="512.5" y="-33.8" font-family="Times,serif" font-size="9.00" fill="#000000">0.002</text>
<text text-anchor="start" x="377" y="-13.8" font-family="Times,serif" font-size="9.00" fill="#7f7f7f">in</text>
<polygon fill="#ff7f50" stroke="transparent" stroke-width="2" points="390.5,-7 390.5,-25 423.5,-25 423.5,-7 390.5,-7"/>
<polygon fill="none" stroke="#000000" stroke-width="2" points="391.5,-8 391.5,-24 422.5,-24 422.5,-8 391.5,-8"/>
<text text-anchor="start" x="394.5" y="-13.8" font-family="Times,serif" font-size="9.00" fill="#000000">0.2471</text>
<polygon fill="none" stroke="#7f7f7f" points="369,-4 369,-48 540,-48 540,-4 369,-4"/>
</g>
<!-- mix_3&#45;&gt;sweep_3 -->
<g id="edge11" class="edge">
<title>mix_3:s&#45;&gt;sweep_3:o01</title>
<path fill="none" stroke="#000000" d="M494.5,-131C494.5,-94.0207 468.8201,-86.7712 464.2057,-55.1339"/>
<polygon fill="#000000" stroke="#000000" points="467.6863,-54.7327 463.5,-45 460.7033,-55.219 467.6863,-54.7327"/>
</g>
<!-- mix_3&#45;&gt;sweep_3 -->
<g id="edge12" class="edge">
<title>mix_3:s&#45;&gt;sweep_3:o03</title>
<path fill="none" stroke="#000000" d="M523.5,-131C523.5,-96.3611 523.5,-85.2658 523.5,-55.0414"/>
<polygon fill="#000000" stroke="#000000" points="527.0001,-55 523.5,-45 520.0001,-55 527.0001,-55"/>
</g>
<!-- mix_4&#45;&gt;mix_1 -->
<g id="edge14" class="edge">
<title>mix_4:s&#45;&gt;mix_1:o02</title>
<path fill="none" stroke="#000000" d="M848.5,-255C848.5,-220.3611 848.5,-209.2658 848.5,-179.0414"/>
<polygon fill="#000000" stroke="#000000" points="852.0001,-179 848.5,-169 845.0001,-179 852.0001,-179"/>
</g>
<!-- mix_4&#45;&gt;sweep_1 -->
<g id="edge13" class="edge">
<title>mix_4:s&#45;&gt;sweep_1:o02</title>
<path fill="none" stroke="#000000" d="M817.5,-255C817.5,-192.2562 729.943,-231.4067 700.5,-176 689.6549,-155.5915 693.9661,-146.1682 700.5,-124 711.2538,-87.5146 744.6799,-86.6215 750.5994,-55.2461"/>
<polygon fill="#000000" stroke="#000000" points="754.1109,-55.2681 751.5,-45 747.1377,-54.6551 754.1109,-55.2681"/>
</g>
<!-- mix_5&#45;&gt;sweep_2 -->
<g id="edge15" class="edge">
<title>mix_5:s&#45;&gt;sweep_2:o02</title>
<path fill="none" stroke="#000000" d="M332.5,-255C332.5,-157.7877 137.4016,-261.7772 123.3027,-179.1049"/>
<polygon fill="#000000" stroke="#000000" points="126.781,-178.6914 122.5,-169 119.803,-179.2458 126.781,-178.6914"/>
</g>
<!-- mix_5&#45;&gt;sweep_2 -->
<g id="edge16" class="edge">
<title>mix_5:s&#45;&gt;sweep_2:o04</title>
<path fill="none" stroke="#000000" d="M365.5,-255C365.5,-207.5037 299.5055,-218.2128 289.7095,-179.3564"/>
<polygon fill="#000000" stroke="#000000" points="293.1364,-178.5265 288.5,-169 286.1837,-179.3385 293.1364,-178.5265"/>
</g>
<!-- mix_6&#45;&gt;mix_3 -->
<g id="edge18" class="edge">
<title>mix_6:s&#45;&gt;mix_3:o02</title>
<path fill="none" stroke="#000000" d="M591.5,-255C591.5,-220.3611 591.5,-209.2658 591.5,-179.0414"/>
<polygon fill="#000000" stroke="#000000" points="595.0001,-179 591.5,-169 588.0001,-179 595.0001,-179"/>
</g>
<!-- mix_6&#45;&gt;sweep_3 -->
<g id="edge17" class="edge">
<title>mix_6:s&#45;&gt;sweep_3:o02</title>
<path fill="none" stroke="#000000" d="M558.5,-255C558.5,-167.6342 426.277,-249.1447 378.5,-176 365.8614,-156.6508 367.7786,-144.4738 378.5,-124 405.3652,-72.6975 482.3664,-102.4691 491.5923,-55.1516"/>
<polygon fill="#000000" stroke="#000000" points="495.0954,-55.272 492.5,-45 488.1232,-54.6485 495.0954,-55.272"/>
</g>
</g>
</svg>
