<?xml version="1.0" encoding="UTF-8" standalone="no"?>
<!DOCTYPE svg PUBLIC "-//W3C//DTD SVG 1.1//EN"
 "http://www.w3.org/Graphics/SVG/1.1/DTD/svg11.dtd">
<!-- Generated by graphviz version 2.42.4 (0)
 -->
<!-- Pages: 1 -->
<svg width="1434pt" height="218pt"
 viewBox="0.00 0.00 1434.00 218.00" xmlns="http://www.w3.org/2000/svg" xmlns:xlink="http://www.w3.org/1999/xlink">
<g id="graph0" class="graph" transform="scale(1 1) rotate(0) translate(4 214)">
<polygon fill="white" stroke="transparent" points="-4,4 -4,-214 1430,-214 1430,4 -4,4"/>
<!-- mix -->
<g id="node1" class="node">
<title>mix</title>
<text text-anchor="start" x="13" y="-191.8" font-family="Times,serif" font-size="9.00" fill="#7f7f7f">out</text>
<polygon fill="none" stroke="#7f7f7f" points="33,-185 33,-203 97,-203 97,-185 33,-185"/>
<text text-anchor="start" x="36" y="-191.8" font-family="Times,serif" font-size="9.00" fill="#7f7f7f">1.74169032</text>
<polygon fill="none" stroke="#7f7f7f" points="99,-185 99,-203 133,-203 133,-185 99,-185"/>
<text text-anchor="start" x="102" y="-191.8" font-family="Times,serif" font-size="9.00" fill="#7f7f7f">1.094</text>
<polygon fill="#9acd32" stroke="transparent" points="135,-185 135,-203 199,-203 199,-185 135,-185"/>
<polygon fill="none" stroke="black" stroke-width="2" points="136,-186 136,-202 198,-202 198,-186 136,-186"/>
<text text-anchor="start" x="159" y="-191.8" font-family="Times,serif" font-size="9.00">1.0</text>
<polygon fill="none" stroke="#7f7f7f" points="201,-185 201,-203 235,-203 235,-185 201,-185"/>
<text text-anchor="start" x="210" y="-191.8" font-family="Times,serif" font-size="9.00" fill="#7f7f7f">1.0</text>
<polygon fill="none" stroke="#7f7f7f" points="237,-185 237,-203 273,-203 273,-185 237,-185"/>
<text text-anchor="start" x="241" y="-191.8" font-family="Times,serif" font-size="9.00" fill="#7f7f7f">0.717</text>
<polygon fill="none" stroke="#7f7f7f" points="275,-185 275,-203 333,-203 333,-185 275,-185"/>
<text text-anchor="start" x="278" y="-191.8" font-family="Times,serif" font-size="9.00" fill="#7f7f7f">0.6210371</text>
<polygon fill="none" stroke="#7f7f7f" points="335,-185 335,-203 357,-203 357,-185 335,-185"/>
<text text-anchor="start" x="338" y="-191.8" font-family="Times,serif" font-size="9.00" fill="#7f7f7f">0.5</text>
<polygon fill="none" stroke="#7f7f7f" points="359,-185 359,-203 381,-203 381,-185 359,-185"/>
<text text-anchor="start" x="362" y="-191.8" font-family="Times,serif" font-size="9.00" fill="#7f7f7f">0.5</text>
<polygon fill="none" stroke="#7f7f7f" points="383,-185 383,-203 423,-203 423,-185 383,-185"/>
<text text-anchor="start" x="386" y="-191.8" font-family="Times,serif" font-size="9.00" fill="#7f7f7f">0.4116</text>
<polygon fill="none" stroke="#7f7f7f" points="425,-185 425,-203 489,-203 489,-185 425,-185"/>
<text text-anchor="start" x="428" y="-191.8" font-family="Times,serif" font-size="9.00" fill="#7f7f7f">0.37010148</text>
<polygon fill="#9acd32" stroke="transparent" points="491,-185 491,-203 543,-203 543,-185 491,-185"/>
<polygon fill="none" stroke="black" stroke-width="2" points="492,-186 492,-202 542,-202 542,-186 492,-186"/>
<text text-anchor="start" x="509" y="-191.8" font-family="Times,serif" font-size="9.00">0.2</text>
<polygon fill="none" stroke="#7f7f7f" points="545,-185 545,-203 585,-203 585,-185 545,-185"/>
<text text-anchor="start" x="557" y="-191.8" font-family="Times,serif" font-size="9.00" fill="#7f7f7f">0.2</text>
<polygon fill="none" stroke="#7f7f7f" points="587,-185 587,-203 639,-203 639,-185 587,-185"/>
<text text-anchor="start" x="590" y="-191.8" font-family="Times,serif" font-size="9.00" fill="#7f7f7f">0.130004</text>
<polygon fill="none" stroke="#7f7f7f" points="641,-185 641,-203 663,-203 663,-185 641,-185"/>
<text text-anchor="start" x="644" y="-191.8" font-family="Times,serif" font-size="9.00" fill="#7f7f7f">0.1</text>
<polygon fill="none" stroke="#7f7f7f" points="665,-185 665,-203 687,-203 687,-185 665,-185"/>
<text text-anchor="start" x="668" y="-191.8" font-family="Times,serif" font-size="9.00" fill="#7f7f7f">0.1</text>
<polygon fill="none" stroke="#7f7f7f" points="689,-185 689,-203 753,-203 753,-185 689,-185"/>
<text text-anchor="start" x="692" y="-191.8" font-family="Times,serif" font-size="9.00" fill="#7f7f7f">0.08813814</text>
<polygon fill="#9acd32" stroke="transparent" points="755,-185 755,-203 819,-203 819,-185 755,-185"/>
<polygon fill="none" stroke="black" stroke-width="2" points="756,-186 756,-202 818,-202 818,-186 756,-186"/>
<text text-anchor="start" x="776" y="-191.8" font-family="Times,serif" font-size="9.00">0.05</text>
<polygon fill="none" stroke="#7f7f7f" points="821,-185 821,-203 855,-203 855,-185 821,-185"/>
<text text-anchor="start" x="827" y="-191.8" font-family="Times,serif" font-size="9.00" fill="#7f7f7f">0.05</text>
<polygon fill="none" stroke="#7f7f7f" points="857,-185 857,-203 885,-203 885,-185 857,-185"/>
<text text-anchor="start" x="860" y="-191.8" font-family="Times,serif" font-size="9.00" fill="#7f7f7f">0.05</text>
<polygon fill="gold" stroke="transparent" points="887,-185 887,-203 953,-203 953,-185 887,-185"/>
<polygon fill="none" stroke="black" stroke-width="2" points="888,-186 888,-202 952,-202 952,-186 888,-186"/>
<text text-anchor="start" x="891" y="-191.8" font-family="Times,serif" font-size="9.00">0.03916501</text>
<polygon fill="gold" stroke="transparent" stroke-width="2" points="955,-185 955,-203 1021,-203 1021,-185 955,-185"/>
<polygon fill="none" stroke="black" stroke-width="2" points="956,-186 956,-202 1020,-202 1020,-186 956,-186"/>
<text text-anchor="start" x="959" y="-191.8" font-family="Times,serif" font-size="9.00">0.02638449</text>
<polygon fill="none" stroke="#7f7f7f" points="1023,-185 1023,-203 1063,-203 1063,-185 1023,-185"/>
<text text-anchor="start" x="1032" y="-191.8" font-family="Times,serif" font-size="9.00" fill="#7f7f7f">0.02</text>
<polygon fill="gold" stroke="transparent" points="1065,-185 1065,-203 1131,-203 1131,-185 1065,-185"/>
<polygon fill="none" stroke="black" stroke-width="2" points="1066,-186 1066,-202 1130,-202 1130,-186 1066,-186"/>
<text text-anchor="start" x="1069" y="-191.8" font-family="Times,serif" font-size="9.00">0.00934178</text>
<polygon fill="none" stroke="#7f7f7f" points="1133,-185 1133,-203 1179,-203 1179,-185 1133,-185"/>
<text text-anchor="start" x="1136" y="-191.8" font-family="Times,serif" font-size="9.00" fill="#7f7f7f">0.00741</text>
<polygon fill="none" stroke="#7f7f7f" points="1181,-185 1181,-203 1215,-203 1215,-185 1181,-185"/>
<text text-anchor="start" x="1184" y="-191.8" font-family="Times,serif" font-size="9.00" fill="#7f7f7f">0.005</text>
<polygon fill="none" stroke="#7f7f7f" points="1217,-185 1217,-203 1275,-203 1275,-185 1217,-185"/>
<text text-anchor="start" x="1220" y="-191.8" font-family="Times,serif" font-size="9.00" fill="#7f7f7f">0.0031748</text>
<polygon fill="none" stroke="#7f7f7f" points="1277,-185 1277,-203 1313,-203 1313,-185 1277,-185"/>
<text text-anchor="start" x="1281" y="-191.8" font-family="Times,serif" font-size="9.00" fill="#7f7f7f">0.002</text>
<polygon fill="none" stroke="#7f7f7f" points="1315,-185 1315,-203 1349,-203 1349,-185 1315,-185"/>
<text text-anchor="start" x="1318" y="-191.8" font-family="Times,serif" font-size="9.00" fill="#7f7f7f">0.001</text>
<polygon fill="black" stroke="transparent" points="1351,-185 1351,-203 1415,-203 1415,-185 1351,-185"/>
<polygon fill="none" stroke="#7f7f7f" points="1351,-185 1351,-203 1415,-203 1415,-185 1351,-185"/>
<text text-anchor="start" x="1354" y="-191.8" font-family="Times,serif" font-size="9.00" fill="#7f7f7f">0.00102438</text>
<text text-anchor="start" x="16" y="-171.8" font-family="Times,serif" font-size="9.00" fill="#7f7f7f">in</text>
<polygon fill="none" stroke="#7f7f7f" points="33,-165 33,-183 97,-183 97,-165 33,-165"/>
<text text-anchor="start" x="48" y="-171.8" font-family="Times,serif" font-size="9.00" fill="#7f7f7f">1.1227</text>
<polygon fill="none" stroke="#7f7f7f" points="99,-165 99,-183 133,-183 133,-165 99,-165"/>
<text text-anchor="start" x="108" y="-171.8" font-family="Times,serif" font-size="9.00" fill="#7f7f7f">1.0</text>
<polygon fill="none" stroke="#7f7f7f" points="135,-165 135,-183 199,-183 199,-165 135,-165"/>
<text text-anchor="start" x="138" y="-171.8" font-family="Times,serif" font-size="9.00" fill="#7f7f7f">0.99741318</text>
<polygon fill="none" stroke="#7f7f7f" points="201,-165 201,-183 235,-183 235,-165 201,-165"/>
<text text-anchor="start" x="204" y="-171.8" font-family="Times,serif" font-size="9.00" fill="#7f7f7f">0.981</text>
<polygon fill="gold" stroke="transparent" points="237,-165 237,-183 273,-183 273,-165 237,-165"/>
<polygon fill="none" stroke="black" stroke-width="2" points="238,-166 238,-182 272,-182 272,-166 238,-166"/>
<text text-anchor="start" x="241" y="-171.8" font-family="Times,serif" font-size="9.00">0.736</text>
<polygon fill="none" stroke="#7f7f7f" points="275,-165 275,-183 333,-183 333,-165 275,-165"/>
<text text-anchor="start" x="293" y="-171.8" font-family="Times,serif" font-size="9.00" fill="#7f7f7f">0.72</text>
<polygon fill="none" stroke="#7f7f7f" points="335,-165 335,-183 357,-183 357,-165 335,-165"/>
<text text-anchor="start" x="338" y="-171.8" font-family="Times,serif" font-size="9.00" fill="#7f7f7f">0.5</text>
<polygon fill="none" stroke="#7f7f7f" points="359,-165 359,-183 381,-183 381,-165 359,-165"/>
<text text-anchor="start" x="362" y="-171.8" font-family="Times,serif" font-size="9.00" fill="#7f7f7f">0.5</text>
<polygon fill="gold" stroke="transparent" points="383,-165 383,-183 423,-183 423,-165 383,-165"/>
<polygon fill="none" stroke="black" stroke-width="2" points="384,-166 384,-182 422,-182 422,-166 384,-166"/>
<text text-anchor="start" x="389" y="-171.8" font-family="Times,serif" font-size="9.00">0.321</text>
<polygon fill="gold" stroke="transparent" stroke-width="2" points="425,-165 425,-183 489,-183 489,-165 425,-165"/>
<polygon fill="none" stroke="black" stroke-width="2" points="426,-166 426,-182 488,-182 488,-166 426,-166"/>
<text text-anchor="start" x="440" y="-171.8" font-family="Times,serif" font-size="9.00">0.2471</text>
<polygon fill="none" stroke="#7f7f7f" points="491,-165 491,-183 543,-183 543,-165 491,-165"/>
<text text-anchor="start" x="494" y="-171.8" font-family="Times,serif" font-size="9.00" fill="#7f7f7f">0.240039</text>
<polygon fill="none" stroke="#7f7f7f" points="545,-165 545,-183 585,-183 585,-165 545,-165"/>
<text text-anchor="start" x="548" y="-171.8" font-family="Times,serif" font-size="9.00" fill="#7f7f7f">0.2211</text>
<polygon fill="none" stroke="#7f7f7f" points="587,-165 587,-183 639,-183 639,-165 587,-165"/>
<text text-anchor="start" x="596" y="-171.8" font-family="Times,serif" font-size="9.00" fill="#7f7f7f">0.2001</text>
<polygon fill="none" stroke="#7f7f7f" points="641,-165 641,-183 663,-183 663,-165 641,-165"/>
<text text-anchor="start" x="644" y="-171.8" font-family="Times,serif" font-size="9.00" fill="#7f7f7f">0.2</text>
<polygon fill="none" stroke="#7f7f7f" points="665,-165 665,-183 687,-183 687,-165 665,-165"/>
<text text-anchor="start" x="668" y="-171.8" font-family="Times,serif" font-size="9.00" fill="#7f7f7f">0.2</text>
<polygon fill="none" stroke="#7f7f7f" points="689,-165 689,-183 753,-183 753,-165 689,-165"/>
<text text-anchor="start" x="713" y="-171.8" font-family="Times,serif" font-size="9.00" fill="#7f7f7f">0.1</text>
<polygon fill="none" stroke="#7f7f7f" points="755,-165 755,-183 819,-183 819,-165 755,-165"/>
<text text-anchor="start" x="758" y="-171.8" font-family="Times,serif" font-size="9.00" fill="#7f7f7f">0.09730844</text>
<polygon fill="none" stroke="#7f7f7f" points="821,-165 821,-183 855,-183 855,-165 821,-165"/>
<text text-anchor="start" x="824" y="-171.8" font-family="Times,serif" font-size="9.00" fill="#7f7f7f">0.083</text>
<polygon fill="none" stroke="#7f7f7f" points="857,-165 857,-183 885,-183 885,-165 857,-165"/>
<text text-anchor="start" x="860" y="-171.8" font-family="Times,serif" font-size="9.00" fill="#7f7f7f">0.05</text>
<polygon fill="none" stroke="#7f7f7f" points="887,-165 887,-183 953,-183 953,-165 887,-165"/>
<text text-anchor="start" x="909" y="-171.8" font-family="Times,serif" font-size="9.00" fill="#7f7f7f">0.05</text>
<polygon fill="none" stroke="#7f7f7f" points="955,-165 955,-183 1021,-183 1021,-165 955,-165"/>
<text text-anchor="start" x="971" y="-171.8" font-family="Times,serif" font-size="9.00" fill="#7f7f7f">0.0867</text>
<polygon fill="none" stroke="#7f7f7f" points="1023,-165 1023,-183 1063,-183 1063,-165 1023,-165"/>
<text text-anchor="start" x="1026" y="-171.8" font-family="Times,serif" font-size="9.00" fill="#7f7f7f">0.0451</text>
<polygon fill="none" stroke="#7f7f7f" points="1065,-165 1065,-183 1131,-183 1131,-165 1065,-165"/>
<text text-anchor="start" x="1069" y="-171.8" font-family="Times,serif" font-size="9.00" fill="#7f7f7f">0.03901088</text>
<polygon fill="none" stroke="#7f7f7f" points="1133,-165 1133,-183 1179,-183 1179,-165 1133,-165"/>
<text text-anchor="start" x="1139" y="-171.8" font-family="Times,serif" font-size="9.00" fill="#7f7f7f">0.0332</text>
<polygon fill="none" stroke="#7f7f7f" points="1181,-165 1181,-183 1215,-183 1215,-165 1181,-165"/>
<text text-anchor="start" x="1187" y="-171.8" font-family="Times,serif" font-size="9.00" fill="#7f7f7f">0.02</text>
<polygon fill="#9acd32" stroke="transparent" points="1217,-165 1217,-183 1275,-183 1275,-165 1217,-165"/>
<polygon fill="none" stroke="black" stroke-width="2" points="1218,-166 1218,-182 1274,-182 1274,-166 1218,-166"/>
<text text-anchor="start" x="1235" y="-171.8" font-family="Times,serif" font-size="9.00">0.01</text>
<polygon fill="#9acd32" stroke="transparent" stroke-width="2" points="1277,-165 1277,-183 1313,-183 1313,-165 1277,-165"/>
<polygon fill="none" stroke="black" stroke-width="2" points="1278,-166 1278,-182 1312,-182 1312,-166 1278,-166"/>
<text text-anchor="start" x="1281" y="-171.8" font-family="Times,serif" font-size="9.00">0.005</text>
<polygon fill="none" stroke="#7f7f7f" points="1315,-165 1315,-183 1349,-183 1349,-165 1315,-165"/>
<text text-anchor="start" x="1318" y="-171.8" font-family="Times,serif" font-size="9.00" fill="#7f7f7f">0.005</text>
<polygon fill="none" stroke="#7f7f7f" points="1351,-165 1351,-183 1415,-183 1415,-165 1351,-165"/>
<text text-anchor="start" x="1369" y="-171.8" font-family="Times,serif" font-size="9.00" fill="#7f7f7f">0.002</text>
<polygon fill="none" stroke="#7f7f7f" points="8,-162 8,-206 1418,-206 1418,-162 8,-162"/>
</g>
<!-- receive_1 -->
<g id="node2" class="node">
<title>receive_1</title>
<text text-anchor="start" x="217" y="-31.8" font-family="Times,serif" font-size="9.00" fill="#7f7f7f">out</text>
<polygon fill="coral" stroke="transparent" points="237,-25 237,-43 273,-43 273,-25 237,-25"/>
<polygon fill="none" stroke="black" stroke-width="2" points="238,-26 238,-42 272,-42 272,-26 238,-26"/>
<text text-anchor="start" x="241" y="-31.8" font-family="Times,serif" font-size="9.00">0.736</text>
<polygon fill="none" stroke="#7f7f7f" points="275,-25 275,-43 315,-43 315,-25 275,-25"/>
<text text-anchor="start" x="278" y="-31.8" font-family="Times,serif" font-size="9.00" fill="#7f7f7f">0.0635</text>
<text text-anchor="start" x="220" y="-12.8" font-family="Times,serif" font-size="9.00" fill="#7f7f7f">in</text>
<polygon fill="none" stroke="#7f7f7f" points="237,-7 237,-23 315,-23 315,-7 237,-7"/>
<text text-anchor="start" x="268" y="-12.8" font-family="Times,serif" font-size="9.00" fill="#7f7f7f">0.8</text>
<polygon fill="none" stroke="#7f7f7f" points="212,-4 212,-46 318,-46 318,-4 212,-4"/>
</g>
<!-- mix&#45;&gt;receive_1 -->
<g id="edge1" class="edge">
<title>mix:i01&#45;&gt;receive_1:o01</title>
<path fill="none" stroke="black" d="M255,-164C255,-114.21 255,-99.28 255,-54.12"/>
<polygon fill="black" stroke="black" points="258.5,-54 255,-44 251.5,-54 258.5,-54"/>
</g>
<!-- receive_2 -->
<g id="node3" class="node">
<title>receive_2</title>
<text text-anchor="start" x="361" y="-31.8" font-family="Times,serif" font-size="9.00" fill="#7f7f7f">out</text>
<polygon fill="coral" stroke="transparent" points="381,-25 381,-43 417,-43 417,-25 381,-25"/>
<polygon fill="none" stroke="black" stroke-width="2" points="382,-26 382,-42 416,-42 416,-26 382,-26"/>
<text text-anchor="start" x="385" y="-31.8" font-family="Times,serif" font-size="9.00">0.321</text>
<polygon fill="none" stroke="#7f7f7f" points="419,-25 419,-43 459,-43 459,-25 419,-25"/>
<text text-anchor="start" x="422" y="-31.8" font-family="Times,serif" font-size="9.00" fill="#7f7f7f">0.1789</text>
<text text-anchor="start" x="364" y="-12.8" font-family="Times,serif" font-size="9.00" fill="#7f7f7f">in</text>
<polygon fill="none" stroke="#7f7f7f" points="381,-7 381,-23 417,-23 417,-7 381,-7"/>
<text text-anchor="start" x="391" y="-12.8" font-family="Times,serif" font-size="9.00" fill="#7f7f7f">0.3</text>
<polygon fill="none" stroke="#7f7f7f" points="419,-7 419,-23 459,-23 459,-7 419,-7"/>
<text text-anchor="start" x="431" y="-12.8" font-family="Times,serif" font-size="9.00" fill="#7f7f7f">0.2</text>
<polygon fill="none" stroke="#7f7f7f" points="356,-4 356,-46 462,-46 462,-4 356,-4"/>
</g>
<!-- mix&#45;&gt;receive_2 -->
<g id="edge2" class="edge">
<title>mix:i02&#45;&gt;receive_2:o01</title>
<path fill="none" stroke="black" d="M403,-164C403,-114.18 399.51,-99.3 399.05,-54.12"/>
<polygon fill="black" stroke="black" points="402.55,-53.98 399,-44 395.55,-54.02 402.55,-53.98"/>
</g>
<!-- receive_3 -->
<g id="node4" class="node">
<title>receive_3</title>
<text text-anchor="start" x="501" y="-31.8" font-family="Times,serif" font-size="9.00" fill="#7f7f7f">out</text>
<polygon fill="coral" stroke="transparent" points="521,-25 521,-43 563,-43 563,-25 521,-25"/>
<polygon fill="none" stroke="black" stroke-width="2" points="522,-26 522,-42 562,-42 562,-26 522,-26"/>
<text text-anchor="start" x="525" y="-31.8" font-family="Times,serif" font-size="9.00">0.2471</text>
<polygon fill="none" stroke="#7f7f7f" points="565,-25 565,-43 605,-43 605,-25 565,-25"/>
<text text-anchor="start" x="568" y="-31.8" font-family="Times,serif" font-size="9.00" fill="#7f7f7f">0.0512</text>
<text text-anchor="start" x="504" y="-12.8" font-family="Times,serif" font-size="9.00" fill="#7f7f7f">in</text>
<polygon fill="none" stroke="#7f7f7f" points="521,-7 521,-23 563,-23 563,-7 521,-7"/>
<text text-anchor="start" x="534" y="-12.8" font-family="Times,serif" font-size="9.00" fill="#7f7f7f">0.3</text>
<polygon fill="none" stroke="#7f7f7f" points="496,-4 496,-46 608,-46 608,-4 496,-4"/>
</g>
<!-- mix&#45;&gt;receive_3 -->
<g id="edge3" class="edge">
<title>mix:i03&#45;&gt;receive_3:o01</title>
<path fill="none" stroke="black" d="M457,-164C457,-102.22 532.96,-108.41 541.27,-54.07"/>
<polygon fill="black" stroke="black" points="544.76,-54.23 542,-44 537.78,-53.72 544.76,-54.23"/>
</g>
<!-- prev_mix_4 -->
<g id="node5" class="node">
<title>prev_mix_4</title>
<text text-anchor="start" x="1075" y="-31.8" font-family="Times,serif" font-size="9.00" fill="#7f7f7f">out</text>
<polygon fill="none" stroke="#7f7f7f" points="1095,-25 1095,-43 1135,-43 1135,-25 1095,-25"/>
<text text-anchor="start" x="1104" y="-31.8" font-family="Times,serif" font-size="9.00" fill="#7f7f7f">0.01</text>
<polygon fill="#9acd32" stroke="transparent" points="1137,-25 1137,-43 1177,-43 1177,-25 1137,-25"/>
<polygon fill="none" stroke="black" stroke-width="2" points="1138,-26 1138,-42 1176,-42 1176,-26 1138,-26"/>
<text text-anchor="start" x="1146" y="-31.8" font-family="Times,serif" font-size="9.00">0.01</text>
<polygon fill="none" stroke="#7f7f7f" points="1179,-25 1179,-43 1219,-43 1219,-25 1179,-25"/>
<text text-anchor="start" x="1188" y="-31.8" font-family="Times,serif" font-size="9.00" fill="#7f7f7f">0.01</text>
<text text-anchor="start" x="1078" y="-12.8" font-family="Times,serif" font-size="9.00" fill="#7f7f7f">in</text>
<polygon fill="none" stroke="#7f7f7f" points="1095,-7 1095,-23 1135,-23 1135,-7 1095,-7"/>
<text text-anchor="start" x="1098" y="-12.8" font-family="Times,serif" font-size="9.00" fill="#7f7f7f">0.0101</text>
<polygon fill="none" stroke="#7f7f7f" points="1137,-7 1137,-23 1177,-23 1177,-7 1137,-7"/>
<text text-anchor="start" x="1140" y="-12.8" font-family="Times,serif" font-size="9.00" fill="#7f7f7f">0.0101</text>
<polygon fill="none" stroke="#7f7f7f" points="1179,-7 1179,-23 1219,-23 1219,-7 1179,-7"/>
<text text-anchor="start" x="1182" y="-12.8" font-family="Times,serif" font-size="9.00" fill="#7f7f7f">0.0101</text>
<polygon fill="none" stroke="#7f7f7f" points="1070,-4 1070,-46 1222,-46 1222,-4 1070,-4"/>
</g>
<!-- mix&#45;&gt;prev_mix_4 -->
<g id="edge4" class="edge">
<title>mix:i04&#45;&gt;prev_mix_4:o01</title>
<path fill="none" stroke="black" d="M1246,-164C1246,-101.23 1166.47,-109.24 1157.77,-54.21"/>
<polygon fill="black" stroke="black" points="1161.24,-53.71 1157,-44 1154.26,-54.23 1161.24,-53.71"/>
</g>
<!-- prev_mix_5 -->
<g id="node6" class="node">
<title>prev_mix_5</title>
<text text-anchor="start" x="1261" y="-31.8" font-family="Times,serif" font-size="9.00" fill="#7f7f7f">out</text>
<polygon fill="none" stroke="#7f7f7f" points="1281,-25 1281,-43 1321,-43 1321,-25 1281,-25"/>
<text text-anchor="start" x="1287" y="-31.8" font-family="Times,serif" font-size="9.00" fill="#7f7f7f">0.005</text>
<polygon fill="none" stroke="#7f7f7f" points="1323,-25 1323,-43 1363,-43 1363,-25 1323,-25"/>
<text text-anchor="start" x="1329" y="-31.8" font-family="Times,serif" font-size="9.00" fill="#7f7f7f">0.005</text>
<polygon fill="#9acd32" stroke="transparent" points="1365,-25 1365,-43 1405,-43 1405,-25 1365,-25"/>
<polygon fill="none" stroke="black" stroke-width="2" points="1366,-26 1366,-42 1404,-42 1404,-26 1366,-26"/>
<text text-anchor="start" x="1371" y="-31.8" font-family="Times,serif" font-size="9.00">0.005</text>
<text text-anchor="start" x="1264" y="-12.8" font-family="Times,serif" font-size="9.00" fill="#7f7f7f">in</text>
<polygon fill="none" stroke="#7f7f7f" points="1281,-7 1281,-23 1321,-23 1321,-7 1281,-7"/>
<text text-anchor="start" x="1284" y="-12.8" font-family="Times,serif" font-size="9.00" fill="#7f7f7f">0.0051</text>
<polygon fill="none" stroke="#7f7f7f" points="1323,-7 1323,-23 1363,-23 1363,-7 1323,-7"/>
<text text-anchor="start" x="1326" y="-12.8" font-family="Times,serif" font-size="9.00" fill="#7f7f7f">0.0051</text>
<polygon fill="none" stroke="#7f7f7f" points="1365,-7 1365,-23 1405,-23 1405,-7 1365,-7"/>
<text text-anchor="start" x="1368" y="-12.8" font-family="Times,serif" font-size="9.00" fill="#7f7f7f">0.0051</text>
<polygon fill="none" stroke="#7f7f7f" points="1256,-4 1256,-46 1408,-46 1408,-4 1256,-4"/>
</g>
<!-- mix&#45;&gt;prev_mix_5 -->
<g id="edge5" class="edge">
<title>mix:i05&#45;&gt;prev_mix_5:o01</title>
<path fill="none" stroke="black" d="M1295,-164C1295,-100.98 1375.43,-109.45 1384.22,-54.25"/>
<polygon fill="black" stroke="black" points="1387.73,-54.24 1385,-44 1380.75,-53.71 1387.73,-54.24"/>
</g>
</g>
</svg>
