<?xml version="1.0" encoding="UTF-8" standalone="no"?>
<!DOCTYPE svg PUBLIC "-//W3C//DTD SVG 1.1//EN"
 "http://www.w3.org/Graphics/SVG/1.1/DTD/svg11.dtd">
<!-- Generated by graphviz version 2.40.1 (20161225.0304)
 -->
<!-- Title: %3 Pages: 1 -->
<svg width="896pt" height="308pt"
 viewBox="0.00 0.00 896.00 308.00" xmlns="http://www.w3.org/2000/svg" xmlns:xlink="http://www.w3.org/1999/xlink">
<g id="graph0" class="graph" transform="scale(1 1) rotate(0) translate(4 304)">
<title>%3</title>
<polygon fill="#ffffff" stroke="transparent" points="-4,4 -4,-304 892,-304 892,4 -4,4"/>
<!-- spend -->
<g id="node1" class="node">
<title>spend</title>
<text text-anchor="start" x="141" y="-281.8" font-family="Times,serif" font-size="9.00" fill="#7f7f7f">out</text>
<polygon fill="#ffd700" stroke="transparent" points="157,-275 157,-293 208,-293 208,-275 157,-275"/>
<polygon fill="none" stroke="#000000" stroke-width="2" points="158,-276 158,-292 207,-292 207,-276 158,-276"/>
<text text-anchor="start" x="161" y="-281.8" font-family="Times,serif" font-size="9.00" fill="#000000">0.03916501</text>
<polygon fill="#ffd700" stroke="transparent" stroke-width="2" points="210,-275 210,-293 261,-293 261,-275 210,-275"/>
<polygon fill="none" stroke="#000000" stroke-width="2" points="211,-276 211,-292 260,-292 260,-276 211,-276"/>
<text text-anchor="start" x="214" y="-281.8" font-family="Times,serif" font-size="9.00" fill="#000000">0.02638449</text>
<polygon fill="#ffd700" stroke="transparent" stroke-width="2" points="263,-275 263,-293 314,-293 314,-275 263,-275"/>
<polygon fill="none" stroke="#000000" stroke-width="2" points="264,-276 264,-292 313,-292 313,-276 264,-276"/>
<text text-anchor="start" x="267" y="-281.8" font-family="Times,serif" font-size="9.00" fill="#000000">0.00934178</text>
<polygon fill="#ffd700" stroke="transparent" stroke-width="2" points="316,-275 316,-293 345,-293 345,-275 316,-275"/>
<polygon fill="none" stroke="#000000" stroke-width="2" points="317,-276 317,-292 344,-292 344,-276 317,-276"/>
<text text-anchor="start" x="320" y="-281.8" font-family="Times,serif" font-size="9.00" fill="#000000">0.002</text>
<polygon fill="#ffd700" stroke="transparent" stroke-width="2" points="347,-275 347,-293 376,-293 376,-275 347,-275"/>
<polygon fill="none" stroke="#000000" stroke-width="2" points="348,-276 348,-292 375,-292 375,-276 348,-276"/>
<text text-anchor="start" x="351" y="-281.8" font-family="Times,serif" font-size="9.00" fill="#000000">0.001</text>
<polygon fill="#ffd700" stroke="transparent" stroke-width="2" points="378,-275 378,-293 411,-293 411,-275 378,-275"/>
<polygon fill="none" stroke="#000000" stroke-width="2" points="379,-276 379,-292 410,-292 410,-276 379,-276"/>
<text text-anchor="start" x="382" y="-281.8" font-family="Times,serif" font-size="9.00" fill="#000000">0.0005</text>
<polygon fill="#ffd700" stroke="transparent" stroke-width="2" points="413,-275 413,-293 446,-293 446,-275 413,-275"/>
<polygon fill="none" stroke="#000000" stroke-width="2" points="414,-276 414,-292 445,-292 445,-276 414,-276"/>
<text text-anchor="start" x="417" y="-281.8" font-family="Times,serif" font-size="9.00" fill="#000000">0.0005</text>
<polygon fill="#ffd700" stroke="transparent" stroke-width="2" points="448,-275 448,-293 481,-293 481,-275 448,-275"/>
<polygon fill="none" stroke="#000000" stroke-width="2" points="449,-276 449,-292 480,-292 480,-276 449,-276"/>
<text text-anchor="start" x="452" y="-281.8" font-family="Times,serif" font-size="9.00" fill="#000000">0.0005</text>
<polygon fill="#ffd700" stroke="transparent" stroke-width="2" points="483,-275 483,-293 516,-293 516,-275 483,-275"/>
<polygon fill="none" stroke="#000000" stroke-width="2" points="484,-276 484,-292 515,-292 515,-276 484,-276"/>
<text text-anchor="start" x="487" y="-281.8" font-family="Times,serif" font-size="9.00" fill="#000000">0.0002</text>
<polygon fill="#ffd700" stroke="transparent" stroke-width="2" points="518,-275 518,-293 569,-293 569,-275 518,-275"/>
<polygon fill="none" stroke="#000000" stroke-width="2" points="519,-276 519,-292 568,-292 568,-276 519,-276"/>
<text text-anchor="start" x="522" y="-281.8" font-family="Times,serif" font-size="9.00" fill="#000000">0.00003499</text>
<polygon fill="#ffd700" stroke="transparent" stroke-width="2" points="571,-275 571,-293 622,-293 622,-275 571,-275"/>
<polygon fill="none" stroke="#000000" stroke-width="2" points="572,-276 572,-292 621,-292 621,-276 572,-276"/>
<text text-anchor="start" x="575" y="-281.8" font-family="Times,serif" font-size="9.00" fill="#000000">0.00005822</text>
<polygon fill="#ffd700" stroke="transparent" stroke-width="2" points="624,-275 624,-293 675,-293 675,-275 624,-275"/>
<polygon fill="none" stroke="#000000" stroke-width="2" points="625,-276 625,-292 674,-292 674,-276 625,-276"/>
<text text-anchor="start" x="628" y="-281.8" font-family="Times,serif" font-size="9.00" fill="#000000">0.00001551</text>
<text text-anchor="start" x="143.5" y="-261.8" font-family="Times,serif" font-size="9.00" fill="#7f7f7f">in</text>
<polygon fill="#9acd32" stroke="transparent" stroke-width="2" points="157,-255 157,-273 208,-273 208,-255 157,-255"/>
<polygon fill="none" stroke="#000000" stroke-width="2" points="158,-256 158,-272 207,-272 207,-256 158,-256"/>
<text text-anchor="start" x="174.5" y="-261.8" font-family="Times,serif" font-size="9.00" fill="#000000">0.02</text>
<polygon fill="#9acd32" stroke="transparent" stroke-width="2" points="210,-255 210,-273 261,-273 261,-255 210,-255"/>
<polygon fill="none" stroke="#000000" stroke-width="2" points="211,-256 211,-272 260,-272 260,-256 211,-256"/>
<text text-anchor="start" x="227.5" y="-261.8" font-family="Times,serif" font-size="9.00" fill="#000000">0.02</text>
<polygon fill="#9acd32" stroke="transparent" stroke-width="2" points="263,-255 263,-273 314,-273 314,-255 263,-255"/>
<polygon fill="none" stroke="#000000" stroke-width="2" points="264,-256 264,-272 313,-272 313,-256 264,-256"/>
<text text-anchor="start" x="280.5" y="-261.8" font-family="Times,serif" font-size="9.00" fill="#000000">0.02</text>
<polygon fill="#9acd32" stroke="transparent" stroke-width="2" points="316,-255 316,-273 345,-273 345,-255 316,-255"/>
<polygon fill="none" stroke="#000000" stroke-width="2" points="317,-256 317,-272 344,-272 344,-256 317,-256"/>
<text text-anchor="start" x="322.5" y="-261.8" font-family="Times,serif" font-size="9.00" fill="#000000">0.01</text>
<polygon fill="#9acd32" stroke="transparent" stroke-width="2" points="347,-255 347,-273 376,-273 376,-255 347,-255"/>
<polygon fill="none" stroke="#000000" stroke-width="2" points="348,-256 348,-272 375,-272 375,-256 348,-256"/>
<text text-anchor="start" x="351" y="-261.8" font-family="Times,serif" font-size="9.00" fill="#000000">0.005</text>
<polygon fill="#9acd32" stroke="transparent" stroke-width="2" points="378,-255 378,-273 411,-273 411,-255 378,-255"/>
<polygon fill="none" stroke="#000000" stroke-width="2" points="379,-256 379,-272 410,-272 410,-256 379,-256"/>
<text text-anchor="start" x="384" y="-261.8" font-family="Times,serif" font-size="9.00" fill="#000000">0.005</text>
<polygon fill="none" stroke="#7f7f7f" points="136,-252 136,-296 678,-296 678,-252 136,-252"/>
</g>
<!-- mix -->
<g id="node2" class="node">
<title>mix</title>
<text text-anchor="start" x="13" y="-157.8" font-family="Times,serif" font-size="9.00" fill="#7f7f7f">out</text>
<polygon fill="none" stroke="#7f7f7f" points="29,-151 29,-169 51,-169 51,-151 29,-151"/>
<text text-anchor="start" x="32" y="-157.8" font-family="Times,serif" font-size="9.00" fill="#7f7f7f">0.05</text>
<polygon fill="none" stroke="#7f7f7f" points="53,-151 53,-169 75,-169 75,-151 53,-151"/>
<text text-anchor="start" x="56" y="-157.8" font-family="Times,serif" font-size="9.00" fill="#7f7f7f">0.05</text>
<polygon fill="none" stroke="#7f7f7f" points="77,-151 77,-169 99,-169 99,-151 77,-151"/>
<text text-anchor="start" x="80" y="-157.8" font-family="Times,serif" font-size="9.00" fill="#7f7f7f">0.05</text>
<polygon fill="none" stroke="#7f7f7f" points="101,-151 101,-169 132,-169 132,-151 101,-151"/>
<text text-anchor="start" x="108.5" y="-157.8" font-family="Times,serif" font-size="9.00" fill="#7f7f7f">0.02</text>
<polygon fill="#9acd32" stroke="transparent" points="134,-151 134,-169 158,-169 158,-151 134,-151"/>
<polygon fill="none" stroke="#000000" stroke-width="2" points="135,-152 135,-168 157,-168 157,-152 135,-152"/>
<text text-anchor="start" x="138" y="-157.8" font-family="Times,serif" font-size="9.00" fill="#000000">0.02</text>
<polygon fill="none" stroke="#7f7f7f" points="160,-151 160,-169 184,-169 184,-151 160,-151"/>
<text text-anchor="start" x="164" y="-157.8" font-family="Times,serif" font-size="9.00" fill="#7f7f7f">0.02</text>
<polygon fill="#9acd32" stroke="transparent" points="186,-151 186,-169 210,-169 210,-151 186,-151"/>
<polygon fill="none" stroke="#000000" stroke-width="2" points="187,-152 187,-168 209,-168 209,-152 187,-152"/>
<text text-anchor="start" x="190" y="-157.8" font-family="Times,serif" font-size="9.00" fill="#000000">0.02</text>
<polygon fill="none" stroke="#7f7f7f" points="212,-151 212,-169 234,-169 234,-151 212,-151"/>
<text text-anchor="start" x="215" y="-157.8" font-family="Times,serif" font-size="9.00" fill="#7f7f7f">0.02</text>
<polygon fill="#9acd32" stroke="transparent" points="236,-151 236,-169 260,-169 260,-151 236,-151"/>
<polygon fill="none" stroke="#000000" stroke-width="2" points="237,-152 237,-168 259,-168 259,-152 237,-152"/>
<text text-anchor="start" x="240" y="-157.8" font-family="Times,serif" font-size="9.00" fill="#000000">0.02</text>
<polygon fill="none" stroke="#7f7f7f" points="262,-151 262,-169 293,-169 293,-151 262,-151"/>
<text text-anchor="start" x="269.5" y="-157.8" font-family="Times,serif" font-size="9.00" fill="#7f7f7f">0.01</text>
<polygon fill="none" stroke="#7f7f7f" points="295,-151 295,-169 326,-169 326,-151 295,-151"/>
<text text-anchor="start" x="302.5" y="-157.8" font-family="Times,serif" font-size="9.00" fill="#7f7f7f">0.01</text>
<polygon fill="none" stroke="#7f7f7f" points="328,-151 328,-169 352,-169 352,-151 328,-151"/>
<text text-anchor="start" x="332" y="-157.8" font-family="Times,serif" font-size="9.00" fill="#7f7f7f">0.01</text>
<polygon fill="#9acd32" stroke="transparent" points="354,-151 354,-169 378,-169 378,-151 354,-151"/>
<polygon fill="none" stroke="#000000" stroke-width="2" points="355,-152 355,-168 377,-168 377,-152 355,-152"/>
<text text-anchor="start" x="358" y="-157.8" font-family="Times,serif" font-size="9.00" fill="#000000">0.01</text>
<polygon fill="none" stroke="#7f7f7f" points="380,-151 380,-169 402,-169 402,-151 380,-151"/>
<text text-anchor="start" x="383" y="-157.8" font-family="Times,serif" font-size="9.00" fill="#7f7f7f">0.01</text>
<polygon fill="none" stroke="#7f7f7f" points="404,-151 404,-169 433,-169 433,-151 404,-151"/>
<text text-anchor="start" x="408" y="-157.8" font-family="Times,serif" font-size="9.00" fill="#7f7f7f">0.005</text>
<polygon fill="#9acd32" stroke="transparent" points="435,-151 435,-169 464,-169 464,-151 435,-151"/>
<polygon fill="none" stroke="#000000" stroke-width="2" points="436,-152 436,-168 463,-168 463,-152 436,-152"/>
<text text-anchor="start" x="439" y="-157.8" font-family="Times,serif" font-size="9.00" fill="#000000">0.005</text>
<polygon fill="#9acd32" stroke="transparent" stroke-width="2" points="466,-151 466,-169 495,-169 495,-151 466,-151"/>
<polygon fill="none" stroke="#000000" stroke-width="2" points="467,-152 467,-168 494,-168 494,-152 467,-152"/>
<text text-anchor="start" x="470" y="-157.8" font-family="Times,serif" font-size="9.00" fill="#000000">0.005</text>
<polygon fill="none" stroke="#7f7f7f" points="497,-151 497,-169 524,-169 524,-151 497,-151"/>
<text text-anchor="start" x="500" y="-157.8" font-family="Times,serif" font-size="9.00" fill="#7f7f7f">0.005</text>
<polygon fill="none" stroke="#7f7f7f" points="526,-151 526,-169 557,-169 557,-151 526,-151"/>
<text text-anchor="start" x="531" y="-157.8" font-family="Times,serif" font-size="9.00" fill="#7f7f7f">0.002</text>
<polygon fill="none" stroke="#7f7f7f" points="559,-151 559,-169 586,-169 586,-151 559,-151"/>
<text text-anchor="start" x="562" y="-157.8" font-family="Times,serif" font-size="9.00" fill="#7f7f7f">0.002</text>
<polygon fill="none" stroke="#7f7f7f" points="588,-151 588,-169 615,-169 615,-151 588,-151"/>
<text text-anchor="start" x="591" y="-157.8" font-family="Times,serif" font-size="9.00" fill="#7f7f7f">0.002</text>
<polygon fill="none" stroke="#7f7f7f" points="617,-151 617,-169 644,-169 644,-151 617,-151"/>
<text text-anchor="start" x="620" y="-157.8" font-family="Times,serif" font-size="9.00" fill="#7f7f7f">0.001</text>
<polygon fill="none" stroke="#7f7f7f" points="646,-151 646,-169 673,-169 673,-151 646,-151"/>
<text text-anchor="start" x="649" y="-157.8" font-family="Times,serif" font-size="9.00" fill="#7f7f7f">0.001</text>
<polygon fill="#ffd700" stroke="transparent" points="675,-151 675,-169 708,-169 708,-151 675,-151"/>
<polygon fill="none" stroke="#000000" stroke-width="2" points="676,-152 676,-168 707,-168 707,-152 676,-152"/>
<text text-anchor="start" x="679" y="-157.8" font-family="Times,serif" font-size="9.00" fill="#000000">0.0001</text>
<polygon fill="#ffd700" stroke="transparent" stroke-width="2" points="710,-151 710,-169 743,-169 743,-151 710,-151"/>
<polygon fill="none" stroke="#000000" stroke-width="2" points="711,-152 711,-168 742,-168 742,-152 711,-152"/>
<text text-anchor="start" x="714" y="-157.8" font-family="Times,serif" font-size="9.00" fill="#000000">0.0001</text>
<polygon fill="#ffd700" stroke="transparent" stroke-width="2" points="745,-151 745,-169 778,-169 778,-151 745,-151"/>
<polygon fill="none" stroke="#000000" stroke-width="2" points="746,-152 746,-168 777,-168 777,-152 746,-152"/>
<text text-anchor="start" x="749" y="-157.8" font-family="Times,serif" font-size="9.00" fill="#000000">0.0001</text>
<polygon fill="none" stroke="#7f7f7f" points="780,-151 780,-169 811,-169 811,-151 780,-151"/>
<text text-anchor="start" x="783" y="-157.8" font-family="Times,serif" font-size="9.00" fill="#7f7f7f">0.0001</text>
<text text-anchor="start" x="15.5" y="-137.8" font-family="Times,serif" font-size="9.00" fill="#7f7f7f">in</text>
<polygon fill="none" stroke="#7f7f7f" points="29,-131 29,-149 51,-149 51,-131 29,-131"/>
<text text-anchor="start" x="32" y="-137.8" font-family="Times,serif" font-size="9.00" fill="#7f7f7f">0.05</text>
<polygon fill="none" stroke="#7f7f7f" points="53,-131 53,-149 75,-149 75,-131 53,-131"/>
<text text-anchor="start" x="56" y="-137.8" font-family="Times,serif" font-size="9.00" fill="#7f7f7f">0.05</text>
<polygon fill="none" stroke="#7f7f7f" points="77,-131 77,-149 99,-149 99,-131 77,-131"/>
<text text-anchor="start" x="80" y="-137.8" font-family="Times,serif" font-size="9.00" fill="#7f7f7f">0.05</text>
<polygon fill="none" stroke="#7f7f7f" points="101,-131 101,-149 132,-149 132,-131 101,-131"/>
<text text-anchor="start" x="104" y="-137.8" font-family="Times,serif" font-size="9.00" fill="#7f7f7f">0.0201</text>
<polygon fill="none" stroke="#7f7f7f" points="134,-131 134,-149 158,-149 158,-131 134,-131"/>
<text text-anchor="start" x="138" y="-137.8" font-family="Times,serif" font-size="9.00" fill="#7f7f7f">0.02</text>
<polygon fill="#ffd700" stroke="transparent" points="160,-131 160,-149 184,-149 184,-131 160,-131"/>
<polygon fill="none" stroke="#000000" stroke-width="2" points="161,-132 161,-148 183,-148 183,-132 161,-132"/>
<text text-anchor="start" x="164" y="-137.8" font-family="Times,serif" font-size="9.00" fill="#000000">0.02</text>
<polygon fill="#ffd700" stroke="transparent" stroke-width="2" points="186,-131 186,-149 210,-149 210,-131 186,-131"/>
<polygon fill="none" stroke="#000000" stroke-width="2" points="187,-132 187,-148 209,-148 209,-132 187,-132"/>
<text text-anchor="start" x="190" y="-137.8" font-family="Times,serif" font-size="9.00" fill="#000000">0.02</text>
<polygon fill="none" stroke="#7f7f7f" points="212,-131 212,-149 234,-149 234,-131 212,-131"/>
<text text-anchor="start" x="215" y="-137.8" font-family="Times,serif" font-size="9.00" fill="#7f7f7f">0.02</text>
<polygon fill="#ffd700" stroke="transparent" points="236,-131 236,-149 260,-149 260,-131 236,-131"/>
<polygon fill="none" stroke="#000000" stroke-width="2" points="237,-132 237,-148 259,-148 259,-132 237,-132"/>
<text text-anchor="start" x="240" y="-137.8" font-family="Times,serif" font-size="9.00" fill="#000000">0.02</text>
<polygon fill="none" stroke="#7f7f7f" points="262,-131 262,-149 293,-149 293,-131 262,-131"/>
<text text-anchor="start" x="265" y="-137.8" font-family="Times,serif" font-size="9.00" fill="#7f7f7f">0.0101</text>
<polygon fill="none" stroke="#7f7f7f" points="295,-131 295,-149 326,-149 326,-131 295,-131"/>
<text text-anchor="start" x="298" y="-137.8" font-family="Times,serif" font-size="9.00" fill="#7f7f7f">0.0101</text>
<polygon fill="#ff7f50" stroke="transparent" points="328,-131 328,-149 352,-149 352,-131 328,-131"/>
<polygon fill="none" stroke="#000000" stroke-width="2" points="329,-132 329,-148 351,-148 351,-132 329,-132"/>
<text text-anchor="start" x="332" y="-137.8" font-family="Times,serif" font-size="9.00" fill="#000000">0.01</text>
<polygon fill="none" stroke="#7f7f7f" points="354,-131 354,-149 378,-149 378,-131 354,-131"/>
<text text-anchor="start" x="358" y="-137.8" font-family="Times,serif" font-size="9.00" fill="#7f7f7f">0.01</text>
<polygon fill="none" stroke="#7f7f7f" points="380,-131 380,-149 402,-149 402,-131 380,-131"/>
<text text-anchor="start" x="383" y="-137.8" font-family="Times,serif" font-size="9.00" fill="#7f7f7f">0.01</text>
<polygon fill="#ffd700" stroke="transparent" points="404,-131 404,-149 433,-149 433,-131 404,-131"/>
<polygon fill="none" stroke="#000000" stroke-width="2" points="405,-132 405,-148 432,-148 432,-132 405,-132"/>
<text text-anchor="start" x="408" y="-137.8" font-family="Times,serif" font-size="9.00" fill="#000000">0.005</text>
<polygon fill="none" stroke="#7f7f7f" points="435,-131 435,-149 464,-149 464,-131 435,-131"/>
<text text-anchor="start" x="439" y="-137.8" font-family="Times,serif" font-size="9.00" fill="#7f7f7f">0.005</text>
<polygon fill="#ffd700" stroke="transparent" points="466,-131 466,-149 495,-149 495,-131 466,-131"/>
<polygon fill="none" stroke="#000000" stroke-width="2" points="467,-132 467,-148 494,-148 494,-132 467,-132"/>
<text text-anchor="start" x="470" y="-137.8" font-family="Times,serif" font-size="9.00" fill="#000000">0.005</text>
<polygon fill="none" stroke="#7f7f7f" points="497,-131 497,-149 524,-149 524,-131 497,-131"/>
<text text-anchor="start" x="500" y="-137.8" font-family="Times,serif" font-size="9.00" fill="#7f7f7f">0.005</text>
<polygon fill="none" stroke="#7f7f7f" points="526,-131 526,-149 557,-149 557,-131 526,-131"/>
<text text-anchor="start" x="529" y="-137.8" font-family="Times,serif" font-size="9.00" fill="#7f7f7f">0.0021</text>
<polygon fill="none" stroke="#7f7f7f" points="559,-131 559,-149 586,-149 586,-131 559,-131"/>
<text text-anchor="start" x="562" y="-137.8" font-family="Times,serif" font-size="9.00" fill="#7f7f7f">0.002</text>
<polygon fill="none" stroke="#7f7f7f" points="588,-131 588,-149 615,-149 615,-131 588,-131"/>
<text text-anchor="start" x="591" y="-137.8" font-family="Times,serif" font-size="9.00" fill="#7f7f7f">0.002</text>
<polygon fill="none" stroke="#7f7f7f" points="617,-131 617,-149 644,-149 644,-131 617,-131"/>
<text text-anchor="start" x="620" y="-137.8" font-family="Times,serif" font-size="9.00" fill="#7f7f7f">0.001</text>
<polygon fill="none" stroke="#7f7f7f" points="646,-131 646,-149 673,-149 673,-131 646,-131"/>
<text text-anchor="start" x="649" y="-137.8" font-family="Times,serif" font-size="9.00" fill="#7f7f7f">0.001</text>
<polygon fill="#ffd700" stroke="transparent" points="675,-131 675,-149 708,-149 708,-131 675,-131"/>
<polygon fill="none" stroke="#000000" stroke-width="2" points="676,-132 676,-148 707,-148 707,-132 676,-132"/>
<text text-anchor="start" x="679" y="-137.8" font-family="Times,serif" font-size="9.00" fill="#000000">0.0002</text>
<polygon fill="#ffd700" stroke="transparent" stroke-width="2" points="710,-131 710,-149 743,-149 743,-131 710,-131"/>
<polygon fill="none" stroke="#000000" stroke-width="2" points="711,-132 711,-148 742,-148 742,-132 711,-132"/>
<text text-anchor="start" x="714" y="-137.8" font-family="Times,serif" font-size="9.00" fill="#000000">0.0002</text>
<polygon fill="#ffd700" stroke="transparent" stroke-width="2" points="745,-131 745,-149 778,-149 778,-131 745,-131"/>
<polygon fill="none" stroke="#000000" stroke-width="2" points="746,-132 746,-148 777,-148 777,-132 746,-132"/>
<text text-anchor="start" x="749" y="-137.8" font-family="Times,serif" font-size="9.00" fill="#000000">0.0002</text>
<polygon fill="none" stroke="#7f7f7f" points="780,-131 780,-149 811,-149 811,-131 780,-131"/>
<text text-anchor="start" x="783" y="-137.8" font-family="Times,serif" font-size="9.00" fill="#7f7f7f">0.0002</text>
<polygon fill="none" stroke="#7f7f7f" points="813,-131 813,-149 844,-149 844,-131 813,-131"/>
<text text-anchor="start" x="816" y="-137.8" font-family="Times,serif" font-size="9.00" fill="#7f7f7f">0.0001</text>
<polygon fill="none" stroke="#7f7f7f" points="846,-131 846,-149 877,-149 877,-131 846,-131"/>
<text text-anchor="start" x="849" y="-137.8" font-family="Times,serif" font-size="9.00" fill="#7f7f7f">0.0001</text>
<polygon fill="none" stroke="#7f7f7f" points="8,-128 8,-172 880,-172 880,-128 8,-128"/>
</g>
<!-- spend&#45;&gt;mix -->
<g id="edge1" class="edge">
<title>spend:i01&#45;&gt;mix:o01</title>
<path fill="none" stroke="#000000" d="M182,-255C182,-217.2868 152.1782,-211.3073 146.8196,-179.2962"/>
<polygon fill="#000000" stroke="#000000" points="150.2825,-178.6907 146,-169 143.3046,-179.2462 150.2825,-178.6907"/>
</g>
<!-- spend&#45;&gt;mix -->
<g id="edge2" class="edge">
<title>spend:i02&#45;&gt;mix:o02</title>
<path fill="none" stroke="#000000" d="M235,-255C235,-217.1288 204.3498,-211.4227 198.8423,-179.3311"/>
<polygon fill="#000000" stroke="#000000" points="202.3011,-178.6825 198,-169 195.3243,-179.2514 202.3011,-178.6825"/>
</g>
<!-- spend&#45;&gt;mix -->
<g id="edge3" class="edge">
<title>spend:i03&#45;&gt;mix:o03</title>
<path fill="none" stroke="#000000" d="M288,-255C288,-216.4683 254.5796,-211.7439 248.8355,-179.0228"/>
<polygon fill="#000000" stroke="#000000" points="252.3187,-178.6747 248,-169 245.3429,-179.2562 252.3187,-178.6747"/>
</g>
<!-- spend&#45;&gt;mix -->
<g id="edge4" class="edge">
<title>spend:i04&#45;&gt;mix:o04</title>
<path fill="none" stroke="#000000" d="M330,-255C330,-217.2868 359.8218,-211.3073 365.1804,-179.2962"/>
<polygon fill="#000000" stroke="#000000" points="368.6954,-179.2462 366,-169 361.7175,-178.6907 368.6954,-179.2462"/>
</g>
<!-- spend&#45;&gt;mix -->
<g id="edge5" class="edge">
<title>spend:i05&#45;&gt;mix:o05</title>
<path fill="none" stroke="#000000" d="M361,-255C361,-203.6474 438.5722,-221.1648 448.8747,-178.959"/>
<polygon fill="#000000" stroke="#000000" points="452.355,-179.3298 450,-169 445.3993,-178.5438 452.355,-179.3298"/>
</g>
<!-- spend&#45;&gt;mix -->
<g id="edge6" class="edge">
<title>spend:i06&#45;&gt;mix:o06</title>
<path fill="none" stroke="#000000" d="M394,-255C394,-204.3471 469.512,-220.621 479.8359,-179.1183"/>
<polygon fill="#000000" stroke="#000000" points="483.3341,-179.3345 481,-169 476.3799,-178.5344 483.3341,-179.3345"/>
</g>
<!-- sweep -->
<g id="node3" class="node">
<title>sweep</title>
<text text-anchor="start" x="123" y="-33.8" font-family="Times,serif" font-size="9.00" fill="#7f7f7f">out</text>
<polygon fill="#ff7f50" stroke="transparent" points="139,-27 139,-45 168,-45 168,-27 139,-27"/>
<polygon fill="none" stroke="#000000" stroke-width="2" points="140,-28 140,-44 167,-44 167,-28 140,-28"/>
<text text-anchor="start" x="147.5" y="-33.8" font-family="Times,serif" font-size="9.00" fill="#000000">0.5</text>
<polygon fill="#ffd700" stroke="transparent" stroke-width="2" points="170,-27 170,-45 199,-45 199,-27 170,-27"/>
<polygon fill="none" stroke="#000000" stroke-width="2" points="171,-28 171,-44 198,-44 198,-28 171,-28"/>
<text text-anchor="start" x="178.5" y="-33.8" font-family="Times,serif" font-size="9.00" fill="#000000">0.2</text>
<polygon fill="#ffd700" stroke="transparent" stroke-width="2" points="201,-27 201,-45 234,-45 234,-27 201,-27"/>
<polygon fill="none" stroke="#000000" stroke-width="2" points="202,-28 202,-44 233,-44 233,-28 202,-28"/>
<text text-anchor="start" x="211.5" y="-33.8" font-family="Times,serif" font-size="9.00" fill="#000000">0.2</text>
<polygon fill="#ffd700" stroke="transparent" stroke-width="2" points="236,-27 236,-45 256,-45 256,-27 236,-27"/>
<polygon fill="none" stroke="#000000" stroke-width="2" points="237,-28 237,-44 255,-44 255,-28 237,-28"/>
<text text-anchor="start" x="240" y="-33.8" font-family="Times,serif" font-size="9.00" fill="#000000">0.2</text>
<polygon fill="#ff7f50" stroke="transparent" stroke-width="2" points="258,-27 258,-45 278,-45 278,-27 258,-27"/>
<polygon fill="none" stroke="#000000" stroke-width="2" points="259,-28 259,-44 277,-44 277,-28 259,-28"/>
<text text-anchor="start" x="262" y="-33.8" font-family="Times,serif" font-size="9.00" fill="#000000">0.1</text>
<polygon fill="#ffd700" stroke="transparent" stroke-width="2" points="280,-27 280,-45 304,-45 304,-27 280,-27"/>
<polygon fill="none" stroke="#000000" stroke-width="2" points="281,-28 281,-44 303,-44 303,-28 281,-28"/>
<text text-anchor="start" x="284" y="-33.8" font-family="Times,serif" font-size="9.00" fill="#000000">0.02</text>
<polygon fill="#ffd700" stroke="transparent" stroke-width="2" points="306,-27 306,-45 330,-45 330,-27 306,-27"/>
<polygon fill="none" stroke="#000000" stroke-width="2" points="307,-28 307,-44 329,-44 329,-28 307,-28"/>
<text text-anchor="start" x="310" y="-33.8" font-family="Times,serif" font-size="9.00" fill="#000000">0.02</text>
<polygon fill="#ffd700" stroke="transparent" stroke-width="2" points="332,-27 332,-45 356,-45 356,-27 332,-27"/>
<polygon fill="none" stroke="#000000" stroke-width="2" points="333,-28 333,-44 355,-44 355,-28 333,-28"/>
<text text-anchor="start" x="336" y="-33.8" font-family="Times,serif" font-size="9.00" fill="#000000">0.02</text>
<polygon fill="#ff7f50" stroke="transparent" stroke-width="2" points="358,-27 358,-45 382,-45 382,-27 358,-27"/>
<polygon fill="none" stroke="#000000" stroke-width="2" points="359,-28 359,-44 381,-44 381,-28 359,-28"/>
<text text-anchor="start" x="362" y="-33.8" font-family="Times,serif" font-size="9.00" fill="#000000">0.01</text>
<polygon fill="#ffd700" stroke="transparent" stroke-width="2" points="384,-27 384,-45 413,-45 413,-27 384,-27"/>
<polygon fill="none" stroke="#000000" stroke-width="2" points="385,-28 385,-44 412,-44 412,-28 385,-28"/>
<text text-anchor="start" x="388" y="-33.8" font-family="Times,serif" font-size="9.00" fill="#000000">0.005</text>
<polygon fill="#ffd700" stroke="transparent" stroke-width="2" points="415,-27 415,-45 444,-45 444,-27 415,-27"/>
<polygon fill="none" stroke="#000000" stroke-width="2" points="416,-28 416,-44 443,-44 443,-28 416,-28"/>
<text text-anchor="start" x="419" y="-33.8" font-family="Times,serif" font-size="9.00" fill="#000000">0.005</text>
<polygon fill="#ffd700" stroke="transparent" stroke-width="2" points="446,-27 446,-45 475,-45 475,-27 446,-27"/>
<polygon fill="none" stroke="#000000" stroke-width="2" points="447,-28 447,-44 474,-44 474,-28 447,-28"/>
<text text-anchor="start" x="450" y="-33.8" font-family="Times,serif" font-size="9.00" fill="#000000">0.005</text>
<polygon fill="#ffd700" stroke="transparent" stroke-width="2" points="477,-27 477,-45 506,-45 506,-27 477,-27"/>
<polygon fill="none" stroke="#000000" stroke-width="2" points="478,-28 478,-44 505,-44 505,-28 478,-28"/>
<text text-anchor="start" x="481" y="-33.8" font-family="Times,serif" font-size="9.00" fill="#000000">0.002</text>
<polygon fill="#ffd700" stroke="transparent" stroke-width="2" points="508,-27 508,-45 537,-45 537,-27 508,-27"/>
<polygon fill="none" stroke="#000000" stroke-width="2" points="509,-28 509,-44 536,-44 536,-28 509,-28"/>
<text text-anchor="start" x="512" y="-33.8" font-family="Times,serif" font-size="9.00" fill="#000000">0.002</text>
<polygon fill="#ffd700" stroke="transparent" stroke-width="2" points="539,-27 539,-45 568,-45 568,-27 539,-27"/>
<polygon fill="none" stroke="#000000" stroke-width="2" points="540,-28 540,-44 567,-44 567,-28 540,-28"/>
<text text-anchor="start" x="543" y="-33.8" font-family="Times,serif" font-size="9.00" fill="#000000">0.002</text>
<polygon fill="#ffd700" stroke="transparent" stroke-width="2" points="570,-27 570,-45 603,-45 603,-27 570,-27"/>
<polygon fill="none" stroke="#000000" stroke-width="2" points="571,-28 571,-44 602,-44 602,-28 571,-28"/>
<text text-anchor="start" x="574" y="-33.8" font-family="Times,serif" font-size="9.00" fill="#000000">0.0005</text>
<polygon fill="#ffd700" stroke="transparent" stroke-width="2" points="605,-27 605,-45 638,-45 638,-27 605,-27"/>
<polygon fill="none" stroke="#000000" stroke-width="2" points="606,-28 606,-44 637,-44 637,-28 606,-28"/>
<text text-anchor="start" x="609" y="-33.8" font-family="Times,serif" font-size="9.00" fill="#000000">0.0005</text>
<polygon fill="#ffd700" stroke="transparent" stroke-width="2" points="640,-27 640,-45 673,-45 673,-27 640,-27"/>
<polygon fill="none" stroke="#000000" stroke-width="2" points="641,-28 641,-44 672,-44 672,-28 641,-28"/>
<text text-anchor="start" x="644" y="-33.8" font-family="Times,serif" font-size="9.00" fill="#000000">0.0002</text>
<polygon fill="#ffd700" stroke="transparent" stroke-width="2" points="675,-27 675,-45 708,-45 708,-27 675,-27"/>
<polygon fill="none" stroke="#000000" stroke-width="2" points="676,-28 676,-44 707,-44 707,-28 676,-28"/>
<text text-anchor="start" x="679" y="-33.8" font-family="Times,serif" font-size="9.00" fill="#000000">0.0002</text>
<polygon fill="#ffd700" stroke="transparent" stroke-width="2" points="710,-27 710,-45 743,-45 743,-27 710,-27"/>
<polygon fill="none" stroke="#000000" stroke-width="2" points="711,-28 711,-44 742,-44 742,-28 711,-28"/>
<text text-anchor="start" x="714" y="-33.8" font-family="Times,serif" font-size="9.00" fill="#000000">0.0002</text>
<polygon fill="#ffd700" stroke="transparent" stroke-width="2" points="745,-27 745,-45 778,-45 778,-27 745,-27"/>
<polygon fill="none" stroke="#000000" stroke-width="2" points="746,-28 746,-44 777,-44 777,-28 746,-28"/>
<text text-anchor="start" x="749" y="-33.8" font-family="Times,serif" font-size="9.00" fill="#000000">0.0002</text>
<polygon fill="#ffd700" stroke="transparent" stroke-width="2" points="780,-27 780,-45 813,-45 813,-27 780,-27"/>
<polygon fill="none" stroke="#000000" stroke-width="2" points="781,-28 781,-44 812,-44 812,-28 781,-28"/>
<text text-anchor="start" x="784" y="-33.8" font-family="Times,serif" font-size="9.00" fill="#000000">0.0001</text>
<polygon fill="#ffd700" stroke="transparent" stroke-width="2" points="815,-27 815,-45 848,-45 848,-27 815,-27"/>
<polygon fill="none" stroke="#000000" stroke-width="2" points="816,-28 816,-44 847,-44 847,-28 816,-28"/>
<text text-anchor="start" x="819" y="-33.8" font-family="Times,serif" font-size="9.00" fill="#000000">0.0001</text>
<text text-anchor="start" x="125.5" y="-13.8" font-family="Times,serif" font-size="9.00" fill="#7f7f7f">in</text>
<polygon fill="#ff7f50" stroke="transparent" stroke-width="2" points="139,-7 139,-25 168,-25 168,-7 139,-7"/>
<polygon fill="none" stroke="#000000" stroke-width="2" points="140,-8 140,-24 167,-24 167,-8 140,-8"/>
<text text-anchor="start" x="143" y="-13.8" font-family="Times,serif" font-size="9.00" fill="#000000">0.736</text>
<polygon fill="#ff7f50" stroke="transparent" stroke-width="2" points="170,-7 170,-25 199,-25 199,-7 170,-7"/>
<polygon fill="none" stroke="#000000" stroke-width="2" points="171,-8 171,-24 198,-24 198,-8 171,-8"/>
<text text-anchor="start" x="174" y="-13.8" font-family="Times,serif" font-size="9.00" fill="#000000">0.321</text>
<polygon fill="#ff7f50" stroke="transparent" stroke-width="2" points="201,-7 201,-25 234,-25 234,-7 201,-7"/>
<polygon fill="none" stroke="#000000" stroke-width="2" points="202,-8 202,-24 233,-24 233,-8 202,-8"/>
<text text-anchor="start" x="205" y="-13.8" font-family="Times,serif" font-size="9.00" fill="#000000">0.2471</text>
<polygon fill="none" stroke="#7f7f7f" points="117.5,-4 117.5,-48 850.5,-48 850.5,-4 117.5,-4"/>
</g>
<!-- mix&#45;&gt;sweep -->
<g id="edge7" class="edge">
<title>mix:i01&#45;&gt;sweep:o01</title>
<path fill="none" stroke="#000000" d="M172,-131C172,-69.1011 278.7912,-105.8472 290.8887,-55.1229"/>
<polygon fill="#000000" stroke="#000000" points="294.3877,-55.3223 292,-45 287.4295,-54.5583 294.3877,-55.3223"/>
</g>
<!-- mix&#45;&gt;sweep -->
<g id="edge8" class="edge">
<title>mix:i02&#45;&gt;sweep:o02</title>
<path fill="none" stroke="#000000" d="M198,-131C198,-69.1011 304.7912,-105.8472 316.8887,-55.1229"/>
<polygon fill="#000000" stroke="#000000" points="320.3877,-55.3223 318,-45 313.4295,-54.5583 320.3877,-55.3223"/>
</g>
<!-- mix&#45;&gt;sweep -->
<g id="edge9" class="edge">
<title>mix:i03&#45;&gt;sweep:o03</title>
<path fill="none" stroke="#000000" d="M248,-131C248,-77.4087 332.0238,-98.9576 342.855,-55.0523"/>
<polygon fill="#000000" stroke="#000000" points="346.3457,-55.3319 344,-45 339.3907,-54.5396 346.3457,-55.3319"/>
</g>
<!-- mix&#45;&gt;sweep -->
<g id="edge10" class="edge">
<title>mix:i04&#45;&gt;sweep:o04</title>
<path fill="none" stroke="#000000" d="M340,-131C340,-94.1559 364.8515,-86.6724 369.317,-55.104"/>
<polygon fill="#000000" stroke="#000000" points="372.8176,-55.2133 370,-45 365.8335,-54.7412 372.8176,-55.2133"/>
</g>
<!-- mix&#45;&gt;sweep -->
<g id="edge11" class="edge">
<title>mix:i05&#45;&gt;sweep:o05</title>
<path fill="none" stroke="#000000" d="M418,-131C418,-95.4368 401.5742,-85.9302 398.4944,-55.2526"/>
<polygon fill="#000000" stroke="#000000" points="401.9777,-54.8198 398,-45 394.9858,-55.157 401.9777,-54.8198"/>
</g>
<!-- mix&#45;&gt;sweep -->
<g id="edge12" class="edge">
<title>mix:i06&#45;&gt;sweep:o06</title>
<path fill="none" stroke="#000000" d="M481,-131C481,-95.3434 463.7529,-85.9974 460.5191,-55.274"/>
<polygon fill="#000000" stroke="#000000" points="464.0003,-54.8106 460,-45 457.0092,-55.1639 464.0003,-54.8106"/>
</g>
<!-- mix&#45;&gt;sweep -->
<g id="edge13" class="edge">
<title>mix:i07&#45;&gt;sweep:o07</title>
<path fill="none" stroke="#000000" d="M692,-131C692,-93.4412 663.0065,-87.1945 657.7968,-55.2621"/>
<polygon fill="#000000" stroke="#000000" points="661.2637,-54.699 657,-45 654.2847,-55.241 661.2637,-54.699"/>
</g>
<!-- mix&#45;&gt;sweep -->
<g id="edge14" class="edge">
<title>mix:i08&#45;&gt;sweep:o08</title>
<path fill="none" stroke="#000000" d="M727,-131C727,-93.4412 698.0065,-87.1945 692.7968,-55.2621"/>
<polygon fill="#000000" stroke="#000000" points="696.2637,-54.699 692,-45 689.2847,-55.241 696.2637,-54.699"/>
</g>
<!-- mix&#45;&gt;sweep -->
<g id="edge15" class="edge">
<title>mix:i09&#45;&gt;sweep:o09</title>
<path fill="none" stroke="#000000" d="M762,-131C762,-96.3611 762,-85.2658 762,-55.0414"/>
<polygon fill="#000000" stroke="#000000" points="765.5001,-55 762,-45 758.5001,-55 765.5001,-55"/>
</g>
</g>
</svg>
